{"glyphs":{"0":{"ha":588,"x_min":61,"x_max":525,"o":"m 525 739 l 525 138 q 490 36 525 72 q 374 0 454 0 l 213 0 q 97 36 133 0 q 61 138 61 72 l 61 739 q 97 840 61 804 q 213 876 133 876 l 374 876 q 490 840 454 876 q 525 739 525 804 m 365 160 l 365 717 q 357 747 365 739 q 325 754 349 754 l 261 754 q 231 747 239 754 q 222 717 222 739 l 222 160 q 231 131 222 139 q 261 122 239 122 l 325 122 q 357 131 349 122 q 365 160 365 139 z "},"1":{"ha":361,"x_min":26,"x_max":294,"o":"m 226 876 l 226 754 l 26 754 l 26 876 l 226 876 m 135 876 l 294 876 l 294 0 l 135 0 l 135 876 z "},"2":{"ha":513,"x_min":33,"x_max":475,"o":"m 193 717 l 193 586 l 33 586 l 33 739 q 69 840 33 804 q 185 876 104 876 l 318 876 q 435 840 399 876 q 471 739 471 804 l 471 640 q 456 535 471 579 q 408 440 442 490 l 226 122 l 475 122 l 475 0 l 38 0 l 38 115 l 264 482 q 303 561 293 526 q 313 643 313 596 l 313 717 q 304 747 313 739 q 274 754 296 754 l 233 754 q 201 747 210 754 q 193 717 193 739 z "},"3":{"ha":542,"x_min":39,"x_max":482,"o":"m 199 717 l 199 599 l 39 599 l 39 739 q 74 840 39 804 q 190 876 110 876 l 331 876 q 446 840 410 876 q 482 739 482 804 l 482 551 q 468 484 482 511 q 424 446 454 457 q 468 410 454 435 q 482 346 482 386 l 482 138 q 446 36 482 72 q 331 0 410 0 l 190 0 q 74 36 110 0 q 39 138 39 72 l 39 276 l 199 276 l 199 160 q 207 131 199 139 q 238 122 215 122 l 285 122 q 316 131 308 122 q 324 160 324 139 l 324 347 q 316 378 324 371 q 285 386 308 386 l 178 386 l 178 503 l 285 503 q 316 510 308 503 q 324 540 324 518 l 324 717 q 316 747 324 739 q 285 754 308 754 l 238 754 q 207 747 215 754 q 199 717 199 739 z "},"4":{"ha":563,"x_min":10,"x_max":563,"o":"m 64 169 l 64 293 l 563 293 l 563 169 l 64 169 m 10 169 l 10 306 l 285 876 l 444 876 l 94 169 l 10 169 m 328 463 l 479 463 l 479 0 l 328 0 l 328 463 z "},"5":{"ha":554,"x_min":56,"x_max":507,"o":"m 217 288 l 217 160 q 225 131 217 139 q 256 122 233 122 l 308 122 q 340 131 332 122 q 349 160 349 139 l 349 397 q 340 427 349 419 q 308 435 332 435 l 157 435 l 157 557 l 356 557 q 472 521 436 557 q 507 419 507 485 l 507 138 q 472 36 507 72 q 356 0 436 0 l 207 0 q 91 36 126 0 q 56 138 56 72 l 56 288 l 217 288 m 219 435 l 61 435 l 61 876 l 501 876 l 501 754 l 219 754 l 219 435 z "},"6":{"ha":575,"x_min":61,"x_max":522,"o":"m 365 160 l 365 353 q 357 383 365 375 q 325 390 349 390 l 174 390 l 174 510 l 371 510 q 487 474 451 510 q 522 372 522 438 l 522 138 q 487 36 522 72 q 371 0 451 0 l 286 0 l 286 122 l 325 122 q 357 131 349 122 q 365 160 365 139 m 219 717 l 219 160 q 228 131 219 139 q 258 122 236 122 l 299 122 l 299 0 l 213 0 q 97 36 133 0 q 61 138 61 72 l 61 739 q 97 840 61 804 q 213 876 133 876 l 297 876 l 297 754 l 258 754 q 228 747 236 754 q 219 717 219 739 m 358 604 l 358 717 q 351 747 358 739 q 319 754 343 754 l 279 754 l 279 876 l 364 876 q 480 840 444 876 q 515 739 515 804 l 515 604 l 358 604 z "},"7":{"ha":457,"x_min":10,"x_max":450,"o":"m 406 876 l 406 747 l 10 747 l 10 876 l 406 876 m 450 876 l 450 782 l 206 0 l 42 0 l 321 876 l 450 876 z "},"8":{"ha":585,"x_min":60,"x_max":524,"o":"m 215 350 l 215 158 q 224 129 215 138 q 254 121 232 121 l 297 121 l 297 0 l 211 0 q 96 36 132 0 q 60 138 60 72 l 60 343 q 74 408 60 383 q 118 443 88 432 q 74 481 88 454 q 60 549 60 508 l 60 739 q 96 840 60 804 q 211 876 132 876 l 299 876 l 299 756 l 254 756 q 224 748 232 756 q 215 718 215 740 l 215 535 q 224 506 215 514 q 254 497 232 497 l 299 497 l 299 388 l 254 388 q 224 380 232 388 q 215 350 215 372 m 369 535 l 369 718 q 361 748 369 740 q 329 756 353 756 l 290 756 l 290 876 l 372 876 q 488 840 453 876 q 524 739 524 804 l 524 549 q 510 481 524 508 q 465 443 497 454 q 510 408 497 432 q 524 343 524 383 l 524 138 q 488 36 524 72 q 372 0 453 0 l 288 0 l 288 121 l 329 121 q 361 129 353 121 q 369 158 369 138 l 369 350 q 361 380 369 372 q 329 388 353 388 l 286 388 l 286 497 l 329 497 q 361 506 353 497 q 369 535 369 514 z "},"9":{"ha":572,"x_min":50,"x_max":510,"o":"m 207 717 l 207 506 q 215 476 207 485 q 246 468 224 468 l 399 468 l 399 353 l 201 353 q 85 388 121 353 q 50 490 50 424 l 50 739 q 85 840 50 804 q 201 876 121 876 l 286 876 l 286 754 l 246 754 q 215 747 224 754 q 207 717 207 739 m 353 160 l 353 717 q 345 747 353 739 q 314 754 338 754 l 274 754 l 274 876 l 358 876 q 474 840 439 876 q 510 739 510 804 l 510 138 q 474 36 510 72 q 358 0 439 0 l 275 0 l 275 122 l 314 122 q 345 131 338 122 q 353 160 353 139 m 213 269 l 213 160 q 221 131 213 139 q 251 122 229 122 l 292 122 l 292 0 l 207 0 q 91 36 126 0 q 56 138 56 72 l 56 269 l 213 269 z "},"A":{"ha":599,"x_min":11,"x_max":588,"o":"m 464 303 l 464 182 l 133 182 l 133 303 l 464 303 m 588 0 l 426 0 l 294 722 l 171 0 l 11 0 l 188 876 l 403 876 l 588 0 z "},"Æ":{"ha":881,"x_min":11,"x_max":853,"o":"m 488 876 l 169 0 l 11 0 l 343 876 l 488 876 m 482 313 l 482 193 l 150 193 l 150 313 l 482 313 m 431 876 l 585 876 l 585 0 l 431 0 l 431 876 m 853 122 l 853 0 l 499 0 l 499 122 l 853 122 m 800 511 l 800 388 l 506 388 l 506 511 l 800 511 m 842 876 l 842 754 l 499 754 l 499 876 l 842 876 z "},"Á":{"ha":599,"x_min":11,"x_max":588,"o":"m 464 303 l 464 182 l 133 182 l 133 303 l 464 303 m 588 0 l 426 0 l 294 722 l 171 0 l 11 0 l 188 876 l 403 876 l 588 0 m 232 921 l 351 1111 l 519 1111 l 363 921 l 232 921 z "},"Ă":{"ha":599,"x_min":11,"x_max":588,"o":"m 464 303 l 464 182 l 133 182 l 133 303 l 464 303 m 588 0 l 426 0 l 294 722 l 171 0 l 11 0 l 188 876 l 403 876 l 588 0 m 374 1111 l 515 1111 l 515 1058 q 480 957 515 993 q 365 921 444 921 l 285 921 l 285 1022 l 333 1022 q 365 1031 357 1022 q 374 1060 374 1039 l 374 1111 m 74 1111 l 215 1111 l 215 1060 q 224 1031 215 1039 q 256 1022 232 1022 l 304 1022 l 304 921 l 224 921 q 109 957 144 921 q 74 1058 74 993 l 74 1111 z "},"Â":{"ha":599,"x_min":11,"x_max":588,"o":"m 464 303 l 464 182 l 133 182 l 133 303 l 464 303 m 588 0 l 426 0 l 294 722 l 171 0 l 11 0 l 188 876 l 403 876 l 588 0 m 67 921 l 214 1111 l 376 1111 l 524 921 l 368 921 l 294 1028 l 222 921 l 67 921 z "},"Ä":{"ha":599,"x_min":11,"x_max":588,"o":"m 72 919 l 72 1065 l 233 1065 l 233 919 l 72 919 m 356 919 l 356 1065 l 517 1065 l 517 919 l 356 919 m 464 303 l 464 182 l 133 182 l 133 303 l 464 303 m 588 0 l 426 0 l 294 722 l 171 0 l 11 0 l 188 876 l 403 876 l 588 0 z "},"À":{"ha":599,"x_min":11,"x_max":588,"o":"m 464 303 l 464 182 l 133 182 l 133 303 l 464 303 m 588 0 l 426 0 l 294 722 l 171 0 l 11 0 l 188 876 l 403 876 l 588 0 m 232 1111 l 351 921 l 221 921 l 64 1111 l 232 1111 z "},"Ā":{"ha":599,"x_min":11,"x_max":588,"o":"m 464 303 l 464 182 l 133 182 l 133 303 l 464 303 m 588 0 l 426 0 l 294 722 l 171 0 l 11 0 l 188 876 l 403 876 l 588 0 m 85 919 l 85 1029 l 506 1029 l 506 919 l 85 919 z "},"Ą":{"ha":599,"x_min":11,"x_max":613,"o":"m 464 303 l 464 182 l 133 182 l 133 303 l 464 303 m 588 0 l 426 0 l 294 722 l 171 0 l 11 0 l 188 876 l 403 876 l 588 0 m 339 -154 q 369 -62 339 -94 q 471 -29 399 -29 l 588 -29 l 588 -131 l 496 -131 q 467 -137 475 -131 q 458 -165 458 -143 l 458 -197 q 467 -224 458 -217 q 496 -231 475 -231 l 613 -231 l 613 -332 l 471 -332 q 369 -299 399 -332 q 339 -207 339 -267 l 339 -154 m 588 -35 l 481 -35 l 481 17 l 588 17 l 588 -35 z "},"Å":{"ha":599,"x_min":11,"x_max":588,"o":"m 464 303 l 464 182 l 133 182 l 133 303 l 464 303 m 588 0 l 426 0 l 294 722 l 171 0 l 11 0 l 188 876 l 403 876 l 588 0 m 458 1047 l 458 1024 q 433 947 458 974 q 346 919 407 919 l 246 919 q 159 947 185 919 q 133 1024 133 974 l 133 1047 q 159 1126 133 1099 q 246 1153 185 1153 l 346 1153 q 433 1126 407 1153 q 458 1047 458 1099 m 354 1029 l 354 1042 q 348 1068 354 1061 q 319 1075 342 1075 l 272 1075 q 244 1068 250 1075 q 238 1042 238 1061 l 238 1029 q 244 1004 238 1011 q 272 997 250 997 l 319 997 q 348 1004 342 997 q 354 1029 354 1011 z "},"Ã":{"ha":599,"x_min":11,"x_max":588,"o":"m 464 303 l 464 182 l 133 182 l 133 303 l 464 303 m 588 0 l 426 0 l 294 722 l 171 0 l 11 0 l 188 876 l 403 876 l 588 0 m 374 921 q 312 936 339 921 q 263 966 285 951 q 225 981 242 981 q 200 949 200 981 l 200 921 l 69 921 l 69 965 q 95 1051 69 1019 q 186 1083 121 1083 l 203 1083 q 263 1069 236 1083 q 311 1039 290 1054 q 349 1024 332 1024 q 368 1031 363 1024 q 374 1056 374 1038 l 374 1083 l 504 1083 l 504 1035 q 480 951 504 982 q 388 921 456 921 l 374 921 z "},"B":{"ha":611,"x_min":67,"x_max":551,"o":"m 67 876 l 400 876 q 516 840 481 876 q 551 739 551 804 l 551 550 q 538 481 551 508 q 493 443 524 454 q 538 408 524 432 q 551 343 551 383 l 551 138 q 516 36 551 72 q 400 0 481 0 l 67 0 l 67 876 m 393 154 l 393 347 q 385 377 393 369 q 353 385 376 385 l 226 385 l 226 117 l 353 117 q 385 124 376 117 q 393 154 393 132 m 393 539 l 393 722 q 385 752 393 744 q 353 760 376 760 l 226 760 l 226 501 l 353 501 q 385 510 376 501 q 393 539 393 518 z "},"C":{"ha":571,"x_min":60,"x_max":525,"o":"m 221 722 l 221 153 q 229 124 221 132 q 260 115 238 115 l 299 115 l 299 -1 l 211 -1 q 96 35 132 -1 q 60 136 60 71 l 60 739 q 96 840 60 804 q 211 876 132 876 l 304 876 l 304 760 l 260 760 q 229 752 238 760 q 221 722 221 744 m 364 586 l 364 722 q 356 752 364 744 q 325 760 349 760 l 282 760 l 282 876 l 374 876 q 489 840 453 876 q 525 739 525 804 l 525 586 l 364 586 m 364 153 l 364 286 l 525 286 l 525 136 q 489 35 525 71 q 374 -1 453 -1 l 282 -1 l 282 115 l 325 115 q 356 124 349 115 q 364 153 364 132 z "},"Ć":{"ha":571,"x_min":60,"x_max":525,"o":"m 221 722 l 221 153 q 229 124 221 132 q 260 115 238 115 l 299 115 l 299 -1 l 211 -1 q 96 35 132 -1 q 60 136 60 71 l 60 739 q 96 840 60 804 q 211 876 132 876 l 304 876 l 304 760 l 260 760 q 229 752 238 760 q 221 722 221 744 m 364 586 l 364 722 q 356 752 364 744 q 325 760 349 760 l 282 760 l 282 876 l 374 876 q 489 840 453 876 q 525 739 525 804 l 525 586 l 364 586 m 364 153 l 364 286 l 525 286 l 525 136 q 489 35 525 71 q 374 -1 453 -1 l 282 -1 l 282 115 l 325 115 q 356 124 349 115 q 364 153 364 132 m 225 921 l 344 1111 l 513 1111 l 356 921 l 225 921 z "},"Č":{"ha":571,"x_min":60,"x_max":525,"o":"m 221 722 l 221 153 q 229 124 221 132 q 260 115 238 115 l 299 115 l 299 -1 l 211 -1 q 96 35 132 -1 q 60 136 60 71 l 60 739 q 96 840 60 804 q 211 876 132 876 l 304 876 l 304 760 l 260 760 q 229 752 238 760 q 221 722 221 744 m 364 586 l 364 722 q 356 752 364 744 q 325 760 349 760 l 282 760 l 282 876 l 374 876 q 489 840 453 876 q 525 739 525 804 l 525 586 l 364 586 m 364 153 l 364 286 l 525 286 l 525 136 q 489 35 525 71 q 374 -1 453 -1 l 282 -1 l 282 115 l 325 115 q 356 124 349 115 q 364 153 364 132 m 210 921 l 63 1111 l 218 1111 l 290 1004 l 364 1111 l 519 1111 l 372 921 l 210 921 z "},"Ç":{"ha":571,"x_min":60,"x_max":525,"o":"m 221 722 l 221 153 q 229 124 221 132 q 260 115 238 115 l 299 115 l 299 -1 l 211 -1 q 96 35 132 -1 q 60 136 60 71 l 60 739 q 96 840 60 804 q 211 876 132 876 l 304 876 l 304 760 l 260 760 q 229 752 238 760 q 221 722 221 744 m 364 586 l 364 722 q 356 752 364 744 q 325 760 349 760 l 282 760 l 282 876 l 374 876 q 489 840 453 876 q 525 739 525 804 l 525 586 l 364 586 m 364 153 l 364 286 l 525 286 l 525 136 q 489 35 525 71 q 374 -1 453 -1 l 282 -1 l 282 115 l 325 115 q 356 124 349 115 q 364 153 364 132 m 219 -132 l 219 -68 l 368 -68 l 368 -144 q 328 -251 368 -214 q 208 -289 289 -289 l 115 -289 l 115 -174 l 176 -174 q 210 -163 200 -174 q 219 -132 219 -153 z "},"D":{"ha":619,"x_min":74,"x_max":558,"o":"m 397 538 l 397 722 q 390 752 397 744 q 358 760 382 760 l 139 760 l 139 876 l 407 876 q 522 840 486 876 q 558 739 558 804 l 558 538 l 397 538 m 397 154 l 397 565 l 558 565 l 558 138 q 522 36 558 72 q 407 0 486 0 l 139 0 l 139 117 l 358 117 q 390 124 382 117 q 397 154 397 132 m 74 876 l 233 876 l 233 0 l 74 0 l 74 876 z "},"Ď":{"ha":619,"x_min":74,"x_max":558,"o":"m 397 538 l 397 722 q 390 752 397 744 q 358 760 382 760 l 139 760 l 139 876 l 407 876 q 522 840 486 876 q 558 739 558 804 l 558 538 l 397 538 m 397 154 l 397 565 l 558 565 l 558 138 q 522 36 558 72 q 407 0 486 0 l 139 0 l 139 117 l 358 117 q 390 124 382 117 q 397 154 397 132 m 74 876 l 233 876 l 233 0 l 74 0 l 74 876 m 224 921 l 76 1111 l 232 1111 l 304 1004 l 378 1111 l 533 1111 l 386 921 l 224 921 z "},"Đ":{"ha":625,"x_min":1,"x_max":558,"o":"m 397 538 l 397 717 q 390 747 397 739 q 358 754 382 754 l 139 754 l 139 876 l 407 876 q 522 840 486 876 q 558 739 558 804 l 558 538 l 397 538 m 397 160 l 397 565 l 558 565 l 558 138 q 522 36 558 72 q 407 0 486 0 l 139 0 l 139 122 l 358 122 q 390 131 382 122 q 397 160 397 139 m 74 876 l 233 876 l 233 0 l 74 0 l 74 876 m 329 500 l 329 385 l 1 385 l 1 500 l 329 500 z "},"E":{"ha":519,"x_min":67,"x_max":494,"o":"m 67 876 l 228 876 l 228 0 l 67 0 l 67 876 m 443 511 l 443 388 l 147 388 l 147 511 l 443 511 m 483 876 l 483 754 l 139 754 l 139 876 l 483 876 m 494 122 l 494 0 l 139 0 l 139 122 l 494 122 z "},"É":{"ha":519,"x_min":67,"x_max":494,"o":"m 67 876 l 228 876 l 228 0 l 67 0 l 67 876 m 443 511 l 443 388 l 147 388 l 147 511 l 443 511 m 483 876 l 483 754 l 139 754 l 139 876 l 483 876 m 494 122 l 494 0 l 139 0 l 139 122 l 494 122 m 207 921 l 326 1111 l 494 1111 l 338 921 l 207 921 z "},"Ě":{"ha":519,"x_min":50,"x_max":506,"o":"m 67 876 l 228 876 l 228 0 l 67 0 l 67 876 m 443 511 l 443 388 l 147 388 l 147 511 l 443 511 m 483 876 l 483 754 l 139 754 l 139 876 l 483 876 m 494 122 l 494 0 l 139 0 l 139 122 l 494 122 m 196 921 l 49 1111 l 204 1111 l 276 1004 l 350 1111 l 506 1111 l 358 921 l 196 921 z "},"Ê":{"ha":519,"x_min":50,"x_max":507,"o":"m 67 876 l 228 876 l 228 0 l 67 0 l 67 876 m 443 511 l 443 388 l 147 388 l 147 511 l 443 511 m 483 876 l 483 754 l 139 754 l 139 876 l 483 876 m 494 122 l 494 0 l 139 0 l 139 122 l 494 122 m 50 921 l 197 1111 l 360 1111 l 507 921 l 351 921 l 278 1028 l 206 921 l 50 921 z "},"Ë":{"ha":550,"x_min":51,"x_max":497,"o":"m 53 919 l 53 1065 l 214 1065 l 214 919 l 53 919 m 336 919 l 336 1065 l 497 1065 l 497 919 l 336 919 m 67 876 l 228 876 l 228 0 l 67 0 l 67 876 m 443 511 l 443 388 l 147 388 l 147 511 l 443 511 m 483 876 l 483 754 l 139 754 l 139 876 l 483 876 m 494 122 l 494 0 l 139 0 l 139 122 l 494 122 z "},"Ė":{"ha":519,"x_min":67,"x_max":494,"o":"m 67 876 l 228 876 l 228 0 l 67 0 l 67 876 m 443 511 l 443 388 l 147 388 l 147 511 l 443 511 m 483 876 l 483 754 l 139 754 l 139 876 l 483 876 m 494 122 l 494 0 l 139 0 l 139 122 l 494 122 m 201 921 l 201 1067 l 371 1067 l 371 921 l 201 921 z "},"È":{"ha":519,"x_min":54,"x_max":494,"o":"m 67 876 l 228 876 l 228 0 l 67 0 l 67 876 m 443 511 l 443 388 l 147 388 l 147 511 l 443 511 m 483 876 l 483 754 l 139 754 l 139 876 l 483 876 m 494 122 l 494 0 l 139 0 l 139 122 l 494 122 m 222 1111 l 342 921 l 211 921 l 54 1111 l 222 1111 z "},"Ē":{"ha":519,"x_min":64,"x_max":494,"o":"m 67 876 l 228 876 l 228 0 l 67 0 l 67 876 m 443 511 l 443 388 l 147 388 l 147 511 l 443 511 m 483 876 l 483 754 l 139 754 l 139 876 l 483 876 m 494 122 l 494 0 l 139 0 l 139 122 l 494 122 m 63 933 l 63 1043 l 483 1043 l 483 933 l 63 933 z "},"Ę":{"ha":519,"x_min":67,"x_max":521,"o":"m 67 876 l 228 876 l 228 0 l 67 0 l 67 876 m 443 511 l 443 388 l 147 388 l 147 511 l 443 511 m 483 876 l 483 754 l 139 754 l 139 876 l 483 876 m 494 122 l 494 0 l 139 0 l 139 122 l 494 122 m 247 -154 q 277 -62 247 -94 q 379 -29 307 -29 l 496 -29 l 496 -131 l 404 -131 q 375 -137 383 -131 q 367 -165 367 -143 l 367 -197 q 375 -224 367 -217 q 404 -231 383 -231 l 521 -231 l 521 -332 l 379 -332 q 277 -299 307 -332 q 247 -207 247 -267 l 247 -154 m 496 -35 l 389 -35 l 389 17 l 496 17 l 496 -35 z "},"Ð":{"ha":618,"x_min":1,"x_max":558,"o":"m 397 538 l 397 722 q 390 752 397 744 q 358 760 382 760 l 139 760 l 139 876 l 407 876 q 522 840 486 876 q 558 739 558 804 l 558 538 l 397 538 m 397 154 l 397 565 l 558 565 l 558 138 q 522 36 558 72 q 407 0 486 0 l 139 0 l 139 117 l 358 117 q 390 124 382 117 q 397 154 397 132 m 74 876 l 233 876 l 233 0 l 74 0 l 74 876 m 329 500 l 329 385 l 1 385 l 1 500 l 329 500 z "},"F":{"ha":504,"x_min":67,"x_max":492,"o":"m 67 876 l 228 876 l 228 0 l 67 0 l 67 876 m 443 488 l 443 371 l 147 371 l 147 488 l 443 488 m 492 876 l 492 754 l 139 754 l 139 876 l 492 876 z "},"G":{"ha":578,"x_min":60,"x_max":525,"o":"m 221 722 l 221 153 q 229 124 221 132 q 260 115 238 115 l 297 115 l 297 -1 l 211 -1 q 96 35 132 -1 q 60 136 60 71 l 60 739 q 96 840 60 804 q 211 876 132 876 l 304 876 l 304 760 l 260 760 q 229 752 238 760 q 221 722 221 744 m 525 460 l 525 347 l 294 347 l 294 460 l 525 460 m 364 607 l 364 722 q 356 752 364 744 q 325 760 349 760 l 282 760 l 282 876 l 374 876 q 490 840 454 876 q 525 739 525 804 l 525 607 l 364 607 m 364 153 l 364 382 l 525 382 l 525 136 q 490 35 525 71 q 374 -1 454 -1 l 285 -1 l 285 115 l 325 115 q 356 124 349 115 q 364 153 364 132 z "},"Ğ":{"ha":578,"x_min":60,"x_max":525,"o":"m 221 722 l 221 153 q 229 124 221 132 q 260 115 238 115 l 297 115 l 297 -1 l 211 -1 q 96 35 132 -1 q 60 136 60 71 l 60 739 q 96 840 60 804 q 211 876 132 876 l 304 876 l 304 760 l 260 760 q 229 752 238 760 q 221 722 221 744 m 525 460 l 525 347 l 294 347 l 294 460 l 525 460 m 364 607 l 364 722 q 356 752 364 744 q 325 760 349 760 l 282 760 l 282 876 l 374 876 q 490 840 454 876 q 525 739 525 804 l 525 607 l 364 607 m 364 153 l 364 382 l 525 382 l 525 136 q 490 35 525 71 q 374 -1 454 -1 l 285 -1 l 285 115 l 325 115 q 356 124 349 115 q 364 153 364 132 m 372 1111 l 514 1111 l 514 1058 q 478 957 514 993 q 364 921 443 921 l 283 921 l 283 1022 l 332 1022 q 364 1031 356 1022 q 372 1060 372 1039 l 372 1111 m 72 1111 l 214 1111 l 214 1060 q 222 1031 214 1039 q 254 1022 231 1022 l 303 1022 l 303 921 l 222 921 q 108 957 143 921 q 72 1058 72 993 l 72 1111 z "},"Ģ":{"ha":578,"x_min":60,"x_max":525,"o":"m 221 722 l 221 153 q 229 124 221 132 q 260 115 238 115 l 297 115 l 297 -1 l 211 -1 q 96 35 132 -1 q 60 136 60 71 l 60 739 q 96 840 60 804 q 211 876 132 876 l 304 876 l 304 760 l 260 760 q 229 752 238 760 q 221 722 221 744 m 525 460 l 525 347 l 294 347 l 294 460 l 525 460 m 364 607 l 364 722 q 356 752 364 744 q 325 760 349 760 l 282 760 l 282 876 l 374 876 q 490 840 454 876 q 525 739 525 804 l 525 607 l 364 607 m 364 153 l 364 382 l 525 382 l 525 136 q 490 35 525 71 q 374 -1 454 -1 l 285 -1 l 285 115 l 325 115 q 356 124 349 115 q 364 153 364 132 m 219 -68 l 383 -68 l 383 -151 l 272 -347 l 219 -347 l 219 -68 z "},"H":{"ha":633,"x_min":67,"x_max":565,"o":"m 444 496 l 444 374 l 188 374 l 188 496 l 444 496 m 67 876 l 226 876 l 226 0 l 67 0 l 67 876 m 407 876 l 565 876 l 565 0 l 407 0 l 407 876 z "},"I":{"ha":310,"x_min":75,"x_max":235,"o":"m 75 876 l 235 876 l 235 0 l 75 0 l 75 876 z "},"Í":{"ha":310,"x_min":75,"x_max":378,"o":"m 75 876 l 235 876 l 235 0 l 75 0 l 75 876 m 90 921 l 210 1111 l 378 1111 l 221 921 l 90 921 z "},"Î":{"ha":310,"x_min":-72,"x_max":385,"o":"m 75 876 l 235 876 l 235 0 l 75 0 l 75 876 m -74 921 l 74 1111 l 236 1111 l 383 921 l 228 921 l 154 1028 l 82 921 l -74 921 z "},"Ï":{"ha":310,"x_min":-69,"x_max":376,"o":"m -68 919 l -68 1065 l 93 1065 l 93 919 l -68 919 m 215 919 l 215 1065 l 376 1065 l 376 919 l 215 919 m 75 876 l 235 876 l 235 0 l 75 0 l 75 876 z "},"İ":{"ha":310,"x_min":69,"x_max":240,"o":"m 75 876 l 235 876 l 235 0 l 75 0 l 75 876 m 69 933 l 69 1079 l 239 1079 l 239 933 l 69 933 z "},"Ì":{"ha":310,"x_min":-68,"x_max":235,"o":"m 75 876 l 235 876 l 235 0 l 75 0 l 75 876 m 100 1111 l 219 921 l 89 921 l -68 1111 l 100 1111 z "},"Ī":{"ha":310,"x_min":-56,"x_max":365,"o":"m 75 876 l 235 876 l 235 0 l 75 0 l 75 876 m -56 933 l -56 1043 l 365 1043 l 365 933 l -56 933 z "},"Į":{"ha":310,"x_min":-14,"x_max":260,"o":"m 75 876 l 235 876 l 235 0 l 75 0 l 75 876 m -14 -154 q 16 -62 -14 -94 q 118 -29 46 -29 l 235 -29 l 235 -131 l 143 -131 q 114 -137 122 -131 q 106 -165 106 -143 l 106 -197 q 114 -224 106 -217 q 143 -231 122 -231 l 260 -231 l 260 -332 l 118 -332 q 16 -299 46 -332 q -14 -207 -14 -267 l -14 -154 m 235 -35 l 128 -35 l 128 17 l 235 17 l 235 -35 z "},"J":{"ha":514,"x_min":18,"x_max":451,"o":"m 18 307 l 178 307 l 178 160 q 186 131 178 139 q 218 122 194 122 l 251 122 q 283 131 275 122 q 290 160 290 139 l 290 876 l 451 876 l 451 138 q 415 36 451 72 q 300 0 379 0 l 169 0 q 53 36 89 0 q 18 138 18 72 l 18 307 z "},"K":{"ha":592,"x_min":67,"x_max":581,"o":"m 233 440 l 400 440 l 579 0 l 407 0 l 233 440 m 400 440 l 233 440 l 408 876 l 581 876 l 400 440 m 67 876 l 226 876 l 226 0 l 67 0 l 67 876 z "},"Ķ":{"ha":592,"x_min":67,"x_max":581,"o":"m 233 440 l 400 440 l 579 0 l 407 0 l 233 440 m 400 440 l 233 440 l 408 876 l 581 876 l 400 440 m 67 876 l 226 876 l 226 0 l 67 0 l 67 876 m 215 -68 l 379 -68 l 379 -151 l 268 -347 l 215 -347 l 215 -68 z "},"L":{"ha":464,"x_min":67,"x_max":460,"o":"m 67 876 l 226 876 l 226 0 l 67 0 l 67 876 m 135 0 l 135 122 l 460 122 l 460 0 l 135 0 z "},"Ĺ":{"ha":464,"x_min":67,"x_max":460,"o":"m 67 876 l 226 876 l 226 0 l 67 0 l 67 876 m 135 0 l 135 122 l 460 122 l 460 0 l 135 0 m 83 921 l 203 1111 l 371 1111 l 214 921 l 83 921 z "},"Ļ":{"ha":464,"x_min":67,"x_max":460,"o":"m 67 876 l 226 876 l 226 0 l 67 0 l 67 876 m 135 0 l 135 122 l 460 122 l 460 0 l 135 0 m 179 -68 l 343 -68 l 343 -151 l 232 -347 l 179 -347 l 179 -68 z "},"Ł":{"ha":479,"x_min":-37,"x_max":465,"o":"m 376 604 l 376 488 l -37 292 l -37 408 l 376 604 m 74 876 l 233 876 l 233 0 l 74 0 l 74 876 m 140 0 l 140 122 l 465 122 l 465 0 l 140 0 z "},"M":{"ha":779,"x_min":67,"x_max":711,"o":"m 454 190 l 325 190 l 208 614 l 208 0 l 67 0 l 67 876 l 242 876 l 389 356 l 536 876 l 711 876 l 711 0 l 571 0 l 571 615 l 454 190 z "},"N":{"ha":619,"x_min":67,"x_max":551,"o":"m 406 876 l 551 876 l 551 0 l 401 0 l 214 581 l 214 0 l 67 0 l 67 876 l 221 876 l 406 304 l 406 876 z "},"Ń":{"ha":619,"x_min":67,"x_max":551,"o":"m 406 876 l 551 876 l 551 0 l 401 0 l 214 581 l 214 0 l 67 0 l 67 876 l 221 876 l 406 304 l 406 876 m 240 921 l 360 1111 l 528 1111 l 371 921 l 240 921 z "},"Ň":{"ha":619,"x_min":67,"x_max":551,"o":"m 406 876 l 551 876 l 551 0 l 401 0 l 214 581 l 214 0 l 67 0 l 67 876 l 221 876 l 406 304 l 406 876 m 229 919 l 82 1110 l 238 1110 l 310 1003 l 383 1110 l 539 1110 l 392 919 l 229 919 z "},"Ņ":{"ha":619,"x_min":67,"x_max":551,"o":"m 406 876 l 551 876 l 551 0 l 401 0 l 214 581 l 214 0 l 67 0 l 67 876 l 221 876 l 406 304 l 406 876 m 215 -68 l 379 -68 l 379 -151 l 268 -347 l 215 -347 l 215 -68 z "},"Ñ":{"ha":619,"x_min":67,"x_max":551,"o":"m 406 876 l 551 876 l 551 0 l 401 0 l 214 581 l 214 0 l 67 0 l 67 876 l 221 876 l 406 304 l 406 876 m 397 921 q 335 936 363 921 q 287 966 308 951 q 249 981 265 981 q 224 949 224 981 l 224 921 l 93 921 l 93 965 q 119 1051 93 1019 q 210 1083 144 1083 l 226 1083 q 287 1069 260 1083 q 335 1039 314 1054 q 372 1024 356 1024 q 392 1031 386 1024 q 397 1056 397 1038 l 397 1083 l 528 1083 l 528 1035 q 503 951 528 982 q 411 921 479 921 l 397 921 z "},"O":{"ha":596,"x_min":61,"x_max":533,"o":"m 374 338 l 374 717 q 366 747 374 739 q 335 754 358 754 l 288 754 l 288 876 l 382 876 q 498 840 463 876 q 533 739 533 804 l 533 338 l 374 338 m 374 160 l 374 385 l 533 385 l 533 138 q 498 36 533 72 q 382 0 463 0 l 282 0 l 282 122 l 335 122 q 366 131 358 122 q 374 160 374 139 m 221 717 l 221 338 l 61 338 l 61 739 q 97 840 61 804 q 213 876 133 876 l 307 876 l 307 754 l 261 754 q 229 747 238 754 q 221 717 221 739 m 221 392 l 221 160 q 229 131 221 139 q 261 122 238 122 l 306 122 l 306 0 l 213 0 q 97 36 133 0 q 61 138 61 72 l 61 392 l 221 392 z "},"Œ":{"ha":854,"x_min":79,"x_max":814,"o":"m 392 338 l 392 722 q 383 752 392 744 q 351 760 375 760 l 306 760 l 306 876 l 336 876 q 419 853 390 876 q 460 793 449 831 q 472 708 472 756 l 472 338 l 392 338 m 392 154 l 392 385 l 472 385 l 472 168 q 460 83 472 122 q 420 22 449 44 q 338 0 392 0 l 300 0 l 300 117 l 351 117 q 383 124 375 117 q 392 154 392 132 m 239 722 l 239 338 l 79 338 l 79 739 q 115 840 79 804 q 231 876 150 876 l 313 876 l 313 760 l 278 760 q 247 752 256 760 q 239 722 239 744 m 239 392 l 239 154 q 247 124 239 132 q 278 117 256 117 l 310 117 l 310 0 l 231 0 q 115 36 150 0 q 79 138 79 72 l 79 392 l 239 392 m 425 876 l 547 876 l 547 0 l 425 0 l 425 876 m 763 507 l 763 392 l 467 392 l 467 507 l 763 507 m 803 876 l 803 760 l 458 760 l 458 876 l 803 876 m 814 117 l 814 0 l 458 0 l 458 117 l 814 117 z "},"Ó":{"ha":596,"x_min":61,"x_max":533,"o":"m 374 338 l 374 717 q 366 747 374 739 q 335 754 358 754 l 288 754 l 288 876 l 382 876 q 498 840 463 876 q 533 739 533 804 l 533 338 l 374 338 m 374 160 l 374 385 l 533 385 l 533 138 q 498 36 533 72 q 382 0 463 0 l 282 0 l 282 122 l 335 122 q 366 131 358 122 q 374 160 374 139 m 221 717 l 221 338 l 61 338 l 61 739 q 97 840 61 804 q 213 876 133 876 l 307 876 l 307 754 l 261 754 q 229 747 238 754 q 221 717 221 739 m 221 392 l 221 160 q 229 131 221 139 q 261 122 238 122 l 306 122 l 306 0 l 213 0 q 97 36 133 0 q 61 138 61 72 l 61 392 l 221 392 m 228 921 l 347 1111 l 515 1111 l 358 921 l 228 921 z "},"Ô":{"ha":596,"x_min":61,"x_max":533,"o":"m 374 338 l 374 717 q 366 747 374 739 q 335 754 358 754 l 288 754 l 288 876 l 382 876 q 498 840 463 876 q 533 739 533 804 l 533 338 l 374 338 m 374 160 l 374 385 l 533 385 l 533 138 q 498 36 533 72 q 382 0 463 0 l 282 0 l 282 122 l 335 122 q 366 131 358 122 q 374 160 374 139 m 221 717 l 221 338 l 61 338 l 61 739 q 97 840 61 804 q 213 876 133 876 l 307 876 l 307 754 l 261 754 q 229 747 238 754 q 221 717 221 739 m 221 392 l 221 160 q 229 131 221 139 q 261 122 238 122 l 306 122 l 306 0 l 213 0 q 97 36 133 0 q 61 138 61 72 l 61 392 l 221 392 m 67 921 l 214 1111 l 376 1111 l 524 921 l 368 921 l 294 1028 l 222 921 l 67 921 z "},"Ö":{"ha":586,"x_min":61,"x_max":533,"o":"m 75 919 l 75 1065 l 236 1065 l 236 919 l 75 919 m 358 919 l 358 1065 l 519 1065 l 519 919 l 358 919 m 374 338 l 374 717 q 366 747 374 739 q 335 754 358 754 l 288 754 l 288 876 l 382 876 q 498 840 463 876 q 533 739 533 804 l 533 338 l 374 338 m 374 160 l 374 385 l 533 385 l 533 138 q 498 36 533 72 q 382 0 463 0 l 282 0 l 282 122 l 335 122 q 366 131 358 122 q 374 160 374 139 m 221 717 l 221 338 l 61 338 l 61 739 q 97 840 61 804 q 213 876 133 876 l 307 876 l 307 754 l 261 754 q 229 747 238 754 q 221 717 221 739 m 221 392 l 221 160 q 229 131 221 139 q 261 122 238 122 l 306 122 l 306 0 l 213 0 q 97 36 133 0 q 61 138 61 72 l 61 392 l 221 392 z "},"Ò":{"ha":596,"x_min":61,"x_max":533,"o":"m 374 338 l 374 717 q 366 747 374 739 q 335 754 358 754 l 288 754 l 288 876 l 382 876 q 498 840 463 876 q 533 739 533 804 l 533 338 l 374 338 m 374 160 l 374 385 l 533 385 l 533 138 q 498 36 533 72 q 382 0 463 0 l 282 0 l 282 122 l 335 122 q 366 131 358 122 q 374 160 374 139 m 221 717 l 221 338 l 61 338 l 61 739 q 97 840 61 804 q 213 876 133 876 l 307 876 l 307 754 l 261 754 q 229 747 238 754 q 221 717 221 739 m 221 392 l 221 160 q 229 131 221 139 q 261 122 238 122 l 306 122 l 306 0 l 213 0 q 97 36 133 0 q 61 138 61 72 l 61 392 l 221 392 m 233 1111 l 353 921 l 222 921 l 65 1111 l 233 1111 z "},"Ő":{"ha":586,"x_min":61,"x_max":607,"o":"m 340 919 l 460 1110 l 607 1110 l 450 919 l 340 919 m 146 919 l 265 1110 l 413 1110 l 256 919 l 146 919 m 374 338 l 374 717 q 366 747 374 739 q 335 754 358 754 l 288 754 l 288 876 l 382 876 q 498 840 463 876 q 533 739 533 804 l 533 338 l 374 338 m 374 160 l 374 385 l 533 385 l 533 138 q 498 36 533 72 q 382 0 463 0 l 282 0 l 282 122 l 335 122 q 366 131 358 122 q 374 160 374 139 m 221 717 l 221 338 l 61 338 l 61 739 q 97 840 61 804 q 213 876 133 876 l 307 876 l 307 754 l 261 754 q 229 747 238 754 q 221 717 221 739 m 221 392 l 221 160 q 229 131 221 139 q 261 122 238 122 l 306 122 l 306 0 l 213 0 q 97 36 133 0 q 61 138 61 72 l 61 392 l 221 392 z "},"Ō":{"ha":596,"x_min":61,"x_max":533,"o":"m 374 338 l 374 717 q 366 747 374 739 q 335 754 358 754 l 288 754 l 288 876 l 382 876 q 498 840 463 876 q 533 739 533 804 l 533 338 l 374 338 m 374 160 l 374 385 l 533 385 l 533 138 q 498 36 533 72 q 382 0 463 0 l 282 0 l 282 122 l 335 122 q 366 131 358 122 q 374 160 374 139 m 221 717 l 221 338 l 61 338 l 61 739 q 97 840 61 804 q 213 876 133 876 l 307 876 l 307 754 l 261 754 q 229 747 238 754 q 221 717 221 739 m 221 392 l 221 160 q 229 131 221 139 q 261 122 238 122 l 306 122 l 306 0 l 213 0 q 97 36 133 0 q 61 138 61 72 l 61 392 l 221 392 m 86 919 l 86 1029 l 507 1029 l 507 919 l 86 919 z "},"Ø":{"ha":603,"x_min":61,"x_max":546,"o":"m 538 739 l 538 138 q 502 36 538 72 q 386 0 467 0 l 217 0 q 101 36 136 0 q 65 138 65 72 l 65 739 q 101 840 65 804 q 217 876 136 876 l 386 876 q 502 840 467 876 q 538 739 538 804 m 385 151 l 385 725 q 376 755 385 747 q 344 763 368 763 l 258 763 q 226 755 235 763 q 218 725 218 747 l 218 151 q 226 122 218 131 q 258 114 235 114 l 344 114 q 376 122 368 114 q 385 151 385 131 m 463 904 l 546 904 l 143 -28 l 61 -28 l 463 904 z "},"Õ":{"ha":596,"x_min":61,"x_max":533,"o":"m 374 338 l 374 717 q 366 747 374 739 q 335 754 358 754 l 288 754 l 288 876 l 382 876 q 498 840 463 876 q 533 739 533 804 l 533 338 l 374 338 m 374 160 l 374 385 l 533 385 l 533 138 q 498 36 533 72 q 382 0 463 0 l 282 0 l 282 122 l 335 122 q 366 131 358 122 q 374 160 374 139 m 221 717 l 221 338 l 61 338 l 61 739 q 97 840 61 804 q 213 876 133 876 l 307 876 l 307 754 l 261 754 q 229 747 238 754 q 221 717 221 739 m 221 392 l 221 160 q 229 131 221 139 q 261 122 238 122 l 306 122 l 306 0 l 213 0 q 97 36 133 0 q 61 138 61 72 l 61 392 l 221 392 m 382 921 q 320 936 347 921 q 272 966 293 951 q 233 981 250 981 q 208 949 208 981 l 208 921 l 78 921 l 78 965 q 103 1051 78 1019 q 194 1083 129 1083 l 211 1083 q 272 1069 244 1083 q 319 1039 299 1054 q 357 1024 340 1024 q 376 1031 371 1024 q 382 1056 382 1038 l 382 1083 l 513 1083 l 513 1035 q 488 951 513 982 q 396 921 464 921 l 382 921 z "},"P":{"ha":576,"x_min":67,"x_max":540,"o":"m 381 482 l 381 717 q 373 747 381 739 q 342 754 365 754 l 103 754 l 103 876 l 389 876 q 505 840 469 876 q 540 739 540 804 l 540 460 q 505 358 540 394 q 389 322 469 322 l 135 322 l 135 444 l 342 444 q 373 453 365 444 q 381 482 381 461 m 67 876 l 226 876 l 226 0 l 67 0 l 67 876 z "},"Q":{"ha":596,"x_min":61,"x_max":571,"o":"m 374 338 l 374 717 q 366 747 374 739 q 335 754 358 754 l 288 754 l 288 876 l 382 876 q 498 840 463 876 q 533 739 533 804 l 533 338 l 374 338 m 374 160 l 374 385 l 533 385 l 533 138 q 498 36 533 72 q 382 0 463 0 l 282 0 l 282 122 l 335 122 q 366 131 358 122 q 374 160 374 139 m 221 717 l 221 338 l 61 338 l 61 739 q 97 840 61 804 q 213 876 133 876 l 307 876 l 307 754 l 261 754 q 229 747 238 754 q 221 717 221 739 m 221 392 l 221 160 q 229 131 221 139 q 261 122 238 122 l 306 122 l 306 0 l 213 0 q 97 36 133 0 q 61 138 61 72 l 61 392 l 221 392 m 219 104 l 392 104 l 571 -117 l 396 -117 l 219 104 z "},"R":{"ha":597,"x_min":67,"x_max":585,"o":"m 381 497 l 381 717 q 373 747 381 739 q 342 754 365 754 l 103 754 l 103 876 l 389 876 q 505 840 469 876 q 540 739 540 804 l 540 479 q 505 378 540 414 q 389 342 469 342 l 135 342 l 135 460 l 342 460 q 373 468 365 460 q 381 497 381 476 m 67 876 l 226 876 l 226 0 l 67 0 l 67 876 m 254 404 l 414 404 l 585 0 l 413 0 l 254 404 z "},"Ŕ":{"ha":597,"x_min":67,"x_max":585,"o":"m 381 497 l 381 717 q 373 747 381 739 q 342 754 365 754 l 103 754 l 103 876 l 389 876 q 505 840 469 876 q 540 739 540 804 l 540 479 q 505 378 540 414 q 389 342 469 342 l 135 342 l 135 460 l 342 460 q 373 468 365 460 q 381 497 381 476 m 67 876 l 226 876 l 226 0 l 67 0 l 67 876 m 254 404 l 414 404 l 585 0 l 413 0 l 254 404 m 222 919 l 342 1110 l 510 1110 l 353 919 l 222 919 z "},"Ř":{"ha":597,"x_min":67,"x_max":585,"o":"m 381 497 l 381 717 q 373 747 381 739 q 342 754 365 754 l 103 754 l 103 876 l 389 876 q 505 840 469 876 q 540 739 540 804 l 540 479 q 505 378 540 414 q 389 342 469 342 l 135 342 l 135 460 l 342 460 q 373 468 365 460 q 381 497 381 476 m 67 876 l 226 876 l 226 0 l 67 0 l 67 876 m 254 404 l 414 404 l 585 0 l 413 0 l 254 404 m 214 919 l 67 1110 l 222 1110 l 294 1003 l 368 1110 l 524 1110 l 376 919 l 214 919 z "},"Ŗ":{"ha":597,"x_min":67,"x_max":585,"o":"m 381 497 l 381 717 q 373 747 381 739 q 342 754 365 754 l 103 754 l 103 876 l 389 876 q 505 840 469 876 q 540 739 540 804 l 540 479 q 505 378 540 414 q 389 342 469 342 l 135 342 l 135 460 l 342 460 q 373 468 365 460 q 381 497 381 476 m 67 876 l 226 876 l 226 0 l 67 0 l 67 876 m 254 404 l 414 404 l 585 0 l 413 0 l 254 404 m 215 -68 l 379 -68 l 379 -151 l 268 -347 l 215 -347 l 215 -68 z "},"S":{"ha":554,"x_min":50,"x_max":506,"o":"m 344 160 l 344 347 q 336 377 344 369 q 306 385 328 385 l 193 385 q 83 422 115 385 q 50 524 50 458 l 50 739 q 85 840 50 804 q 200 876 119 876 l 353 876 q 467 840 432 876 q 503 739 503 804 l 503 617 l 342 617 l 342 717 q 334 747 342 739 q 303 754 326 754 l 250 754 q 218 747 226 754 q 210 717 210 739 l 210 540 q 218 511 210 519 q 250 503 226 503 l 360 503 q 472 467 439 503 q 506 367 506 432 l 506 138 q 470 36 506 72 q 354 0 435 0 l 204 0 q 88 36 124 0 q 53 138 53 72 l 53 258 l 213 258 l 213 160 q 221 131 213 139 q 253 122 229 122 l 306 122 q 336 131 328 122 q 344 160 344 139 z "},"Ś":{"ha":554,"x_min":50,"x_max":506,"o":"m 344 160 l 344 347 q 336 377 344 369 q 306 385 328 385 l 193 385 q 83 422 115 385 q 50 524 50 458 l 50 739 q 85 840 50 804 q 200 876 119 876 l 353 876 q 467 840 432 876 q 503 739 503 804 l 503 617 l 342 617 l 342 717 q 334 747 342 739 q 303 754 326 754 l 250 754 q 218 747 226 754 q 210 717 210 739 l 210 540 q 218 511 210 519 q 250 503 226 503 l 360 503 q 472 467 439 503 q 506 367 506 432 l 506 138 q 470 36 506 72 q 354 0 435 0 l 204 0 q 88 36 124 0 q 53 138 53 72 l 53 258 l 213 258 l 213 160 q 221 131 213 139 q 253 122 229 122 l 306 122 q 336 131 328 122 q 344 160 344 139 m 217 921 l 336 1111 l 504 1111 l 347 921 l 217 921 z "},"Š":{"ha":554,"x_min":50,"x_max":506,"o":"m 344 160 l 344 347 q 336 377 344 369 q 306 385 328 385 l 193 385 q 83 422 115 385 q 50 524 50 458 l 50 739 q 85 840 50 804 q 200 876 119 876 l 353 876 q 467 840 432 876 q 503 739 503 804 l 503 617 l 342 617 l 342 717 q 334 747 342 739 q 303 754 326 754 l 250 754 q 218 747 226 754 q 210 717 210 739 l 210 540 q 218 511 210 519 q 250 503 226 503 l 360 503 q 472 467 439 503 q 506 367 506 432 l 506 138 q 470 36 506 72 q 354 0 435 0 l 204 0 q 88 36 124 0 q 53 138 53 72 l 53 258 l 213 258 l 213 160 q 221 131 213 139 q 253 122 229 122 l 306 122 q 336 131 328 122 q 344 160 344 139 m 196 921 l 49 1111 l 204 1111 l 276 1004 l 350 1111 l 506 1111 l 358 921 l 196 921 z "},"Ş":{"ha":554,"x_min":50,"x_max":506,"o":"m 344 160 l 344 347 q 336 377 344 369 q 306 385 328 385 l 193 385 q 83 422 115 385 q 50 524 50 458 l 50 739 q 85 840 50 804 q 200 876 119 876 l 353 876 q 467 840 432 876 q 503 739 503 804 l 503 617 l 342 617 l 342 717 q 334 747 342 739 q 303 754 326 754 l 250 754 q 218 747 226 754 q 210 717 210 739 l 210 540 q 218 511 210 519 q 250 503 226 503 l 360 503 q 472 467 439 503 q 506 367 506 432 l 506 138 q 470 36 506 72 q 354 0 435 0 l 204 0 q 88 36 124 0 q 53 138 53 72 l 53 258 l 213 258 l 213 160 q 221 131 213 139 q 253 122 229 122 l 306 122 q 336 131 328 122 q 344 160 344 139 m 194 -68 l 358 -68 l 358 -151 l 247 -347 l 194 -347 l 194 -68 z "},"Ș":{"ha":554,"x_min":50,"x_max":506,"o":"m 344 160 l 344 347 q 336 377 344 369 q 306 385 328 385 l 193 385 q 83 422 115 385 q 50 524 50 458 l 50 739 q 85 840 50 804 q 200 876 119 876 l 353 876 q 467 840 432 876 q 503 739 503 804 l 503 617 l 342 617 l 342 717 q 334 747 342 739 q 303 754 326 754 l 250 754 q 218 747 226 754 q 210 717 210 739 l 210 540 q 218 511 210 519 q 250 503 226 503 l 360 503 q 472 467 439 503 q 506 367 506 432 l 506 138 q 470 36 506 72 q 354 0 435 0 l 204 0 q 88 36 124 0 q 53 138 53 72 l 53 258 l 213 258 l 213 160 q 221 131 213 139 q 253 122 229 122 l 306 122 q 336 131 328 122 q 344 160 344 139 m 194 -68 l 358 -68 l 358 -151 l 247 -347 l 194 -347 l 194 -68 z "},"T":{"ha":481,"x_min":7,"x_max":474,"o":"m 160 839 l 319 839 l 319 0 l 160 0 l 160 839 m 474 876 l 474 754 l 7 754 l 7 876 l 474 876 z "},"Ť":{"ha":481,"x_min":7,"x_max":474,"o":"m 160 839 l 319 839 l 319 0 l 160 0 l 160 839 m 474 876 l 474 754 l 7 754 l 7 876 l 474 876 m 157 921 l 10 1111 l 165 1111 l 238 1004 l 311 1111 l 467 1111 l 319 921 l 157 921 z "},"Ţ":{"ha":481,"x_min":7,"x_max":474,"o":"m 160 839 l 319 839 l 319 0 l 160 0 l 160 839 m 474 876 l 474 754 l 7 754 l 7 876 l 474 876 m 157 -68 l 321 -68 l 321 -151 l 210 -347 l 157 -347 l 157 -68 z "},"Ț":{"ha":481,"x_min":7,"x_max":474,"o":"m 160 839 l 319 839 l 319 0 l 160 0 l 160 839 m 474 876 l 474 754 l 7 754 l 7 876 l 474 876 m 158 -68 l 322 -68 l 322 -151 l 211 -347 l 158 -347 l 158 -68 z "},"Þ":{"ha":594,"x_min":71,"x_max":538,"o":"m 378 324 l 378 551 q 370 581 378 574 q 339 589 363 589 l 129 589 l 129 708 l 386 708 q 502 672 467 708 q 538 571 538 636 l 538 304 q 502 203 538 239 q 386 168 467 168 l 138 168 l 138 286 l 339 286 q 370 294 363 286 q 378 324 378 303 m 71 876 l 231 876 l 231 0 l 71 0 l 71 876 z "},"U":{"ha":601,"x_min":65,"x_max":538,"o":"m 378 160 l 378 876 l 538 876 l 538 138 q 501 36 538 72 q 386 0 465 0 l 286 0 l 286 122 l 338 122 q 369 131 361 122 q 378 160 378 139 m 225 876 l 225 160 q 233 131 225 139 q 264 122 242 122 l 308 122 l 308 0 l 217 0 q 101 36 136 0 q 65 138 65 72 l 65 876 l 225 876 z "},"Ú":{"ha":601,"x_min":65,"x_max":538,"o":"m 378 160 l 378 876 l 538 876 l 538 138 q 501 36 538 72 q 386 0 465 0 l 286 0 l 286 122 l 338 122 q 369 131 361 122 q 378 160 378 139 m 225 876 l 225 160 q 233 131 225 139 q 264 122 242 122 l 308 122 l 308 0 l 217 0 q 101 36 136 0 q 65 138 65 72 l 65 876 l 225 876 m 231 921 l 350 1111 l 518 1111 l 361 921 l 231 921 z "},"Û":{"ha":601,"x_min":65,"x_max":538,"o":"m 378 160 l 378 876 l 538 876 l 538 138 q 501 36 538 72 q 386 0 465 0 l 286 0 l 286 122 l 338 122 q 369 131 361 122 q 378 160 378 139 m 225 876 l 225 160 q 233 131 225 139 q 264 122 242 122 l 308 122 l 308 0 l 217 0 q 101 36 136 0 q 65 138 65 72 l 65 876 l 225 876 m 72 921 l 219 1111 l 382 1111 l 529 921 l 374 921 l 300 1028 l 228 921 l 72 921 z "},"Ü":{"ha":601,"x_min":65,"x_max":538,"o":"m 78 919 l 78 1065 l 239 1065 l 239 919 l 78 919 m 361 919 l 361 1065 l 522 1065 l 522 919 l 361 919 m 378 160 l 378 876 l 538 876 l 538 138 q 501 36 538 72 q 386 0 465 0 l 286 0 l 286 122 l 338 122 q 369 131 361 122 q 378 160 378 139 m 225 876 l 225 160 q 233 131 225 139 q 264 122 242 122 l 308 122 l 308 0 l 217 0 q 101 36 136 0 q 65 138 65 72 l 65 876 l 225 876 z "},"Ù":{"ha":601,"x_min":65,"x_max":538,"o":"m 378 160 l 378 876 l 538 876 l 538 138 q 501 36 538 72 q 386 0 465 0 l 286 0 l 286 122 l 338 122 q 369 131 361 122 q 378 160 378 139 m 225 876 l 225 160 q 233 131 225 139 q 264 122 242 122 l 308 122 l 308 0 l 217 0 q 101 36 136 0 q 65 138 65 72 l 65 876 l 225 876 m 246 1111 l 365 921 l 235 921 l 78 1111 l 246 1111 z "},"Ű":{"ha":589,"x_min":65,"x_max":603,"o":"m 336 921 l 456 1111 l 603 1111 l 446 921 l 336 921 m 142 921 l 261 1111 l 408 1111 l 251 921 l 142 921 m 378 160 l 378 876 l 538 876 l 538 138 q 501 36 538 72 q 386 0 465 0 l 286 0 l 286 122 l 338 122 q 369 131 361 122 q 378 160 378 139 m 225 876 l 225 160 q 233 131 225 139 q 264 122 242 122 l 308 122 l 308 0 l 217 0 q 101 36 136 0 q 65 138 65 72 l 65 876 l 225 876 z "},"Ū":{"ha":601,"x_min":65,"x_max":538,"o":"m 378 160 l 378 876 l 538 876 l 538 138 q 501 36 538 72 q 386 0 465 0 l 286 0 l 286 122 l 338 122 q 369 131 361 122 q 378 160 378 139 m 225 876 l 225 160 q 233 131 225 139 q 264 122 242 122 l 308 122 l 308 0 l 217 0 q 101 36 136 0 q 65 138 65 72 l 65 876 l 225 876 m 92 919 l 92 1029 l 513 1029 l 513 919 l 92 919 z "},"Ų":{"ha":601,"x_min":65,"x_max":538,"o":"m 378 160 l 378 876 l 538 876 l 538 138 q 501 36 538 72 q 386 0 465 0 l 286 0 l 286 122 l 338 122 q 369 131 361 122 q 378 160 378 139 m 225 876 l 225 160 q 233 131 225 139 q 264 122 242 122 l 308 122 l 308 0 l 217 0 q 101 36 136 0 q 65 138 65 72 l 65 876 l 225 876 m 118 -154 q 148 -62 118 -94 q 250 -29 178 -29 l 367 -29 l 367 -131 l 275 -131 q 246 -137 254 -131 q 238 -165 238 -143 l 238 -197 q 246 -224 238 -217 q 275 -231 254 -231 l 392 -231 l 392 -332 l 250 -332 q 148 -299 178 -332 q 118 -207 118 -267 l 118 -154 m 367 -35 l 260 -35 l 260 17 l 367 17 l 367 -35 z "},"Ů":{"ha":601,"x_min":65,"x_max":538,"o":"m 378 160 l 378 876 l 538 876 l 538 138 q 501 36 538 72 q 386 0 465 0 l 286 0 l 286 122 l 338 122 q 369 131 361 122 q 378 160 378 139 m 225 876 l 225 160 q 233 131 225 139 q 264 122 242 122 l 308 122 l 308 0 l 217 0 q 101 36 136 0 q 65 138 65 72 l 65 876 l 225 876 m 463 1047 l 463 1024 q 437 947 463 974 q 350 919 411 919 l 250 919 q 163 947 189 919 q 138 1024 138 974 l 138 1047 q 163 1126 138 1099 q 250 1153 189 1153 l 350 1153 q 437 1126 411 1153 q 463 1047 463 1099 m 358 1029 l 358 1042 q 352 1068 358 1061 q 324 1075 346 1075 l 276 1075 q 248 1068 254 1075 q 242 1042 242 1061 l 242 1029 q 248 1004 242 1011 q 276 997 254 997 l 324 997 q 352 1004 346 997 q 358 1029 358 1011 z "},"V":{"ha":574,"x_min":8,"x_max":565,"o":"m 401 876 l 565 876 l 392 0 l 182 0 l 8 876 l 174 876 l 286 168 l 401 876 z "},"W":{"ha":938,"x_min":14,"x_max":924,"o":"m 764 876 l 924 876 l 769 0 l 567 0 l 468 618 l 371 0 l 168 0 l 14 876 l 179 876 l 269 165 l 385 876 l 553 876 l 667 165 l 764 876 z "},"X":{"ha":578,"x_min":4,"x_max":574,"o":"m 374 447 l 574 0 l 396 0 l 286 307 l 175 0 l 4 0 l 197 447 l 14 876 l 193 876 l 286 588 l 379 876 l 551 876 l 374 447 z "},"Y":{"ha":565,"x_min":4,"x_max":561,"o":"m 360 257 l 215 257 l 4 876 l 167 876 l 286 426 l 399 876 l 561 876 l 360 257 m 208 344 l 368 344 l 368 0 l 208 0 l 208 344 z "},"Ý":{"ha":565,"x_min":4,"x_max":561,"o":"m 360 257 l 215 257 l 4 876 l 167 876 l 286 426 l 399 876 l 561 876 l 360 257 m 208 344 l 368 344 l 368 0 l 208 0 l 208 344 m 215 921 l 335 1111 l 503 1111 l 346 921 l 215 921 z "},"Ÿ":{"ha":554,"x_min":4,"x_max":561,"o":"m 57 931 l 57 1076 l 218 1076 l 218 931 l 57 931 m 340 931 l 340 1076 l 501 1076 l 501 931 l 340 931 m 360 257 l 215 257 l 4 876 l 167 876 l 286 426 l 399 876 l 561 876 l 360 257 m 208 344 l 368 344 l 368 0 l 208 0 l 208 344 z "},"Z":{"ha":496,"x_min":17,"x_max":479,"o":"m 479 876 l 479 754 l 32 754 l 32 876 l 479 876 m 315 754 l 479 754 l 181 122 l 17 122 l 315 754 m 472 122 l 472 0 l 17 0 l 17 122 l 472 122 z "},"Ź":{"ha":496,"x_min":17,"x_max":479,"o":"m 479 876 l 479 754 l 32 754 l 32 876 l 479 876 m 315 754 l 479 754 l 181 122 l 17 122 l 315 754 m 472 122 l 472 0 l 17 0 l 17 122 l 472 122 m 190 921 l 310 1111 l 478 1111 l 321 921 l 190 921 z "},"Ž":{"ha":496,"x_min":17,"x_max":488,"o":"m 479 876 l 479 754 l 32 754 l 32 876 l 479 876 m 315 754 l 479 754 l 181 122 l 17 122 l 315 754 m 472 122 l 472 0 l 17 0 l 17 122 l 472 122 m 178 921 l 31 1111 l 186 1111 l 258 1004 l 332 1111 l 488 1111 l 340 921 l 178 921 z "},"Ż":{"ha":496,"x_min":17,"x_max":479,"o":"m 479 876 l 479 754 l 32 754 l 32 876 l 479 876 m 315 754 l 479 754 l 181 122 l 17 122 l 315 754 m 472 122 l 472 0 l 17 0 l 17 122 l 472 122 m 176 921 l 176 1067 l 346 1067 l 346 921 l 176 921 z "},"a":{"ha":547,"x_min":50,"x_max":489,"o":"m 207 321 l 50 321 l 50 544 q 84 646 50 610 q 192 682 118 682 l 235 682 q 310 656 283 682 q 338 579 338 631 l 338 475 l 331 475 l 331 514 q 321 549 331 539 q 288 560 311 560 l 246 560 q 215 552 224 560 q 207 522 207 544 l 207 321 m 489 0 l 331 0 l 331 575 l 333 582 l 333 682 l 489 682 l 489 0 m 50 361 l 207 361 l 207 160 q 215 131 207 139 q 246 122 224 122 l 288 122 q 321 133 311 122 q 331 168 331 143 l 331 206 l 338 206 l 338 104 q 310 26 338 51 q 235 0 283 0 l 192 0 q 84 36 118 0 q 50 138 50 72 l 50 361 z "},"á":{"ha":547,"x_min":50,"x_max":503,"o":"m 207 321 l 50 321 l 50 544 q 84 646 50 610 q 192 682 118 682 l 235 682 q 310 656 283 682 q 338 579 338 631 l 338 475 l 331 475 l 331 514 q 321 549 331 539 q 288 560 311 560 l 246 560 q 215 552 224 560 q 207 522 207 544 l 207 321 m 489 0 l 331 0 l 331 575 l 333 582 l 333 682 l 489 682 l 489 0 m 50 361 l 207 361 l 207 160 q 215 131 207 139 q 246 122 224 122 l 288 122 q 321 133 311 122 q 331 168 331 143 l 331 206 l 338 206 l 338 104 q 310 26 338 51 q 235 0 283 0 l 192 0 q 84 36 118 0 q 50 138 50 72 l 50 361 m 215 726 l 335 917 l 503 917 l 346 726 l 215 726 z "},"ă":{"ha":547,"x_min":50,"x_max":507,"o":"m 207 321 l 50 321 l 50 544 q 84 646 50 610 q 192 682 118 682 l 235 682 q 310 656 283 682 q 338 579 338 631 l 338 475 l 331 475 l 331 514 q 321 549 331 539 q 288 560 311 560 l 246 560 q 215 552 224 560 q 207 522 207 544 l 207 321 m 489 0 l 331 0 l 331 575 l 333 582 l 333 682 l 489 682 l 489 0 m 50 361 l 207 361 l 207 160 q 215 131 207 139 q 246 122 224 122 l 288 122 q 321 133 311 122 q 331 168 331 143 l 331 206 l 338 206 l 338 104 q 310 26 338 51 q 235 0 283 0 l 192 0 q 84 36 118 0 q 50 138 50 72 l 50 361 m 364 917 l 506 917 l 506 864 q 470 763 506 799 q 356 726 435 726 l 275 726 l 275 828 l 324 828 q 356 836 347 828 q 364 865 364 844 l 364 917 m 64 917 l 206 917 l 206 865 q 214 836 206 844 q 246 828 222 828 l 294 828 l 294 726 l 214 726 q 99 763 135 726 q 64 864 64 799 l 64 917 z "},"â":{"ha":547,"x_min":49,"x_max":506,"o":"m 207 321 l 50 321 l 50 544 q 84 646 50 610 q 192 682 118 682 l 235 682 q 310 656 283 682 q 338 579 338 631 l 338 475 l 331 475 l 331 514 q 321 549 331 539 q 288 560 311 560 l 246 560 q 215 552 224 560 q 207 522 207 544 l 207 321 m 489 0 l 331 0 l 331 575 l 333 582 l 333 682 l 489 682 l 489 0 m 50 361 l 207 361 l 207 160 q 215 131 207 139 q 246 122 224 122 l 288 122 q 321 133 311 122 q 331 168 331 143 l 331 206 l 338 206 l 338 104 q 310 26 338 51 q 235 0 283 0 l 192 0 q 84 36 118 0 q 50 138 50 72 l 50 361 m 49 726 l 196 917 l 358 917 l 506 726 l 350 726 l 276 833 l 204 726 l 49 726 z "},"ä":{"ha":547,"x_min":50,"x_max":500,"o":"m 56 751 l 56 897 l 217 897 l 217 751 l 56 751 m 339 751 l 339 897 l 500 897 l 500 751 l 339 751 m 207 321 l 50 321 l 50 544 q 84 646 50 610 q 192 682 118 682 l 235 682 q 310 656 283 682 q 338 579 338 631 l 338 475 l 331 475 l 331 514 q 321 549 331 539 q 288 560 311 560 l 246 560 q 215 552 224 560 q 207 522 207 544 l 207 321 m 489 0 l 331 0 l 331 575 l 333 582 l 333 682 l 489 682 l 489 0 m 50 361 l 207 361 l 207 160 q 215 131 207 139 q 246 122 224 122 l 288 122 q 321 133 311 122 q 331 168 331 143 l 331 206 l 338 206 l 338 104 q 310 26 338 51 q 235 0 283 0 l 192 0 q 84 36 118 0 q 50 138 50 72 l 50 361 z "},"æ":{"ha":846,"x_min":57,"x_max":786,"o":"m 382 417 l 422 321 l 214 236 l 57 283 l 382 417 m 57 283 l 214 236 l 214 160 q 222 131 214 139 q 253 122 231 122 l 294 122 q 327 131 317 122 q 338 164 338 140 l 338 518 q 294 560 336 560 l 253 560 q 222 552 231 560 q 214 522 214 544 l 214 432 l 57 432 l 57 544 q 91 646 57 610 q 199 682 125 682 l 296 682 q 367 664 336 682 q 410 618 399 646 q 453 664 422 646 q 533 682 483 682 l 635 682 q 751 646 715 682 q 786 544 786 610 l 786 307 l 632 307 l 632 525 q 624 555 632 547 q 593 563 617 563 l 532 563 q 500 555 508 563 q 492 525 492 547 l 492 157 q 500 127 492 135 q 532 119 508 119 l 590 119 q 622 127 614 119 q 629 157 629 135 l 629 207 l 785 207 l 785 138 q 749 36 785 72 q 633 0 713 0 l 532 0 q 453 19 483 0 q 410 64 422 38 q 367 19 397 38 q 296 0 336 0 l 199 0 q 91 36 125 0 q 57 138 57 72 l 57 283 m 776 400 l 776 293 l 386 293 l 386 400 l 776 400 z "},"à":{"ha":547,"x_min":50,"x_max":489,"o":"m 207 321 l 50 321 l 50 544 q 84 646 50 610 q 192 682 118 682 l 235 682 q 310 656 283 682 q 338 579 338 631 l 338 475 l 331 475 l 331 514 q 321 549 331 539 q 288 560 311 560 l 246 560 q 215 552 224 560 q 207 522 207 544 l 207 321 m 489 0 l 331 0 l 331 575 l 333 582 l 333 682 l 489 682 l 489 0 m 50 361 l 207 361 l 207 160 q 215 131 207 139 q 246 122 224 122 l 288 122 q 321 133 311 122 q 331 168 331 143 l 331 206 l 338 206 l 338 104 q 310 26 338 51 q 235 0 283 0 l 192 0 q 84 36 118 0 q 50 138 50 72 l 50 361 m 257 917 l 376 726 l 246 726 l 89 917 l 257 917 z "},"ā":{"ha":547,"x_min":50,"x_max":489,"o":"m 207 321 l 50 321 l 50 544 q 84 646 50 610 q 192 682 118 682 l 235 682 q 310 656 283 682 q 338 579 338 631 l 338 475 l 331 475 l 331 514 q 321 549 331 539 q 288 560 311 560 l 246 560 q 215 552 224 560 q 207 522 207 544 l 207 321 m 489 0 l 331 0 l 331 575 l 333 582 l 333 682 l 489 682 l 489 0 m 50 361 l 207 361 l 207 160 q 215 131 207 139 q 246 122 224 122 l 288 122 q 321 133 311 122 q 331 168 331 143 l 331 206 l 338 206 l 338 104 q 310 26 338 51 q 235 0 283 0 l 192 0 q 84 36 118 0 q 50 138 50 72 l 50 361 m 60 767 l 60 876 l 481 876 l 481 767 l 60 767 z "},"ą":{"ha":547,"x_min":50,"x_max":514,"o":"m 207 321 l 50 321 l 50 544 q 84 646 50 610 q 192 682 118 682 l 235 682 q 310 656 283 682 q 338 579 338 631 l 338 475 l 331 475 l 331 514 q 321 549 331 539 q 288 560 311 560 l 246 560 q 215 552 224 560 q 207 522 207 544 l 207 321 m 489 0 l 331 0 l 331 575 l 333 582 l 333 682 l 489 682 l 489 0 m 50 361 l 207 361 l 207 160 q 215 131 207 139 q 246 122 224 122 l 288 122 q 321 133 311 122 q 331 168 331 143 l 331 206 l 338 206 l 338 104 q 310 26 338 51 q 235 0 283 0 l 192 0 q 84 36 118 0 q 50 138 50 72 l 50 361 m 240 -154 q 270 -62 240 -94 q 372 -29 300 -29 l 489 -29 l 489 -131 l 397 -131 q 368 -137 376 -131 q 360 -165 360 -143 l 360 -197 q 368 -224 360 -217 q 397 -231 376 -231 l 514 -231 l 514 -332 l 372 -332 q 270 -299 300 -332 q 240 -207 240 -267 l 240 -154 m 489 -35 l 382 -35 l 382 17 l 489 17 l 489 -35 z "},"å":{"ha":547,"x_min":50,"x_max":489,"o":"m 207 321 l 50 321 l 50 544 q 84 646 50 610 q 192 682 118 682 l 235 682 q 310 656 283 682 q 338 579 338 631 l 338 475 l 331 475 l 331 514 q 321 549 331 539 q 288 560 311 560 l 246 560 q 215 552 224 560 q 207 522 207 544 l 207 321 m 489 0 l 331 0 l 331 575 l 333 582 l 333 682 l 489 682 l 489 0 m 50 361 l 207 361 l 207 160 q 215 131 207 139 q 246 122 224 122 l 288 122 q 321 133 311 122 q 331 168 331 143 l 331 206 l 338 206 l 338 104 q 310 26 338 51 q 235 0 283 0 l 192 0 q 84 36 118 0 q 50 138 50 72 l 50 361 m 440 863 l 440 839 q 415 762 440 789 q 328 735 389 735 l 228 735 q 141 762 167 735 q 115 839 115 789 l 115 863 q 141 941 115 914 q 228 968 167 968 l 328 968 q 415 941 389 968 q 440 863 440 914 m 336 844 l 336 857 q 330 883 336 876 q 301 890 324 890 l 254 890 q 226 883 232 890 q 219 857 219 876 l 219 844 q 226 819 219 826 q 254 813 232 813 l 301 813 q 330 819 324 813 q 336 844 336 826 z "},"ã":{"ha":547,"x_min":50,"x_max":489,"o":"m 207 321 l 50 321 l 50 544 q 84 646 50 610 q 192 682 118 682 l 235 682 q 310 656 283 682 q 338 579 338 631 l 338 475 l 331 475 l 331 514 q 321 549 331 539 q 288 560 311 560 l 246 560 q 215 552 224 560 q 207 522 207 544 l 207 321 m 489 0 l 331 0 l 331 575 l 333 582 l 333 682 l 489 682 l 489 0 m 50 361 l 207 361 l 207 160 q 215 131 207 139 q 246 122 224 122 l 288 122 q 321 133 311 122 q 331 168 331 143 l 331 206 l 338 206 l 338 104 q 310 26 338 51 q 235 0 283 0 l 192 0 q 84 36 118 0 q 50 138 50 72 l 50 361 m 356 740 q 294 756 321 740 q 245 785 267 771 q 207 800 224 800 q 182 768 182 800 l 182 740 l 51 740 l 51 785 q 77 871 51 839 q 168 903 103 903 l 185 903 q 245 888 218 903 q 293 858 272 874 q 331 843 314 843 q 350 850 344 843 q 356 875 356 857 l 356 903 l 486 903 l 486 854 q 462 771 486 801 q 369 740 438 740 l 356 740 z "},"b":{"ha":547,"x_min":60,"x_max":499,"o":"m 340 363 l 499 363 l 499 138 q 465 36 499 72 q 356 0 431 0 l 314 0 q 238 26 265 0 q 210 104 210 51 l 210 203 l 217 203 l 217 168 q 227 133 217 143 q 260 122 238 122 l 301 122 q 333 131 325 122 q 340 160 340 139 l 340 363 m 499 322 l 340 322 l 340 524 q 333 553 340 546 q 301 561 325 561 l 260 561 q 227 551 238 561 q 217 514 217 540 l 217 471 l 210 471 l 210 579 q 238 658 210 632 q 314 683 265 683 l 356 683 q 465 647 431 683 q 499 546 499 611 l 499 322 m 60 929 l 217 929 l 217 104 l 215 99 l 215 0 l 60 0 l 60 929 z "},"c":{"ha":528,"x_min":50,"x_max":489,"o":"m 207 522 l 207 160 q 215 131 207 139 q 246 122 224 122 l 278 122 l 278 0 l 201 0 q 85 36 121 0 q 50 138 50 72 l 50 544 q 85 646 50 610 q 201 682 121 682 l 282 682 l 282 560 l 246 560 q 215 552 224 560 q 207 522 207 544 m 335 453 l 335 522 q 327 552 335 544 q 296 560 319 560 l 263 560 l 263 682 l 338 682 q 453 646 418 682 q 489 544 489 610 l 489 453 l 335 453 m 335 160 l 335 231 l 489 231 l 489 138 q 453 36 489 72 q 338 0 418 0 l 263 0 l 263 122 l 296 122 q 327 131 319 122 q 335 160 335 139 z "},"ć":{"ha":528,"x_min":50,"x_max":490,"o":"m 207 522 l 207 160 q 215 131 207 139 q 246 122 224 122 l 278 122 l 278 0 l 201 0 q 85 36 121 0 q 50 138 50 72 l 50 544 q 85 646 50 610 q 201 682 121 682 l 282 682 l 282 560 l 246 560 q 215 552 224 560 q 207 522 207 544 m 335 453 l 335 522 q 327 552 335 544 q 296 560 319 560 l 263 560 l 263 682 l 338 682 q 453 646 418 682 q 489 544 489 610 l 489 453 l 335 453 m 335 160 l 335 231 l 489 231 l 489 138 q 453 36 489 72 q 338 0 418 0 l 263 0 l 263 122 l 296 122 q 327 131 319 122 q 335 160 335 139 m 203 726 l 322 917 l 490 917 l 333 726 l 203 726 z "},"č":{"ha":528,"x_min":39,"x_max":496,"o":"m 207 522 l 207 160 q 215 131 207 139 q 246 122 224 122 l 278 122 l 278 0 l 201 0 q 85 36 121 0 q 50 138 50 72 l 50 544 q 85 646 50 610 q 201 682 121 682 l 282 682 l 282 560 l 246 560 q 215 552 224 560 q 207 522 207 544 m 335 453 l 335 522 q 327 552 335 544 q 296 560 319 560 l 263 560 l 263 682 l 338 682 q 453 646 418 682 q 489 544 489 610 l 489 453 l 335 453 m 335 160 l 335 231 l 489 231 l 489 138 q 453 36 489 72 q 338 0 418 0 l 263 0 l 263 122 l 296 122 q 327 131 319 122 q 335 160 335 139 m 186 726 l 39 917 l 194 917 l 267 810 l 340 917 l 496 917 l 349 726 l 186 726 z "},"ç":{"ha":528,"x_min":50,"x_max":489,"o":"m 207 522 l 207 160 q 215 131 207 139 q 246 122 224 122 l 278 122 l 278 0 l 201 0 q 85 36 121 0 q 50 138 50 72 l 50 544 q 85 646 50 610 q 201 682 121 682 l 282 682 l 282 560 l 246 560 q 215 552 224 560 q 207 522 207 544 m 335 453 l 335 522 q 327 552 335 544 q 296 560 319 560 l 263 560 l 263 682 l 338 682 q 453 646 418 682 q 489 544 489 610 l 489 453 l 335 453 m 335 160 l 335 231 l 489 231 l 489 138 q 453 36 489 72 q 338 0 418 0 l 263 0 l 263 122 l 296 122 q 327 131 319 122 q 335 160 335 139 m 201 -132 l 201 -68 l 350 -68 l 350 -144 q 310 -251 350 -214 q 190 -289 271 -289 l 97 -289 l 97 -174 l 158 -174 q 192 -163 182 -174 q 201 -132 201 -153 z "},"d":{"ha":547,"x_min":50,"x_max":489,"o":"m 207 322 l 50 322 l 50 546 q 84 647 50 611 q 192 683 118 683 l 235 683 q 310 658 283 683 q 338 579 338 632 l 338 471 l 331 471 l 331 514 q 321 551 331 540 q 288 561 311 561 l 246 561 q 215 553 224 561 q 207 524 207 546 l 207 322 m 331 929 l 489 929 l 489 0 l 333 0 l 333 99 l 331 104 l 331 929 m 50 363 l 207 363 l 207 160 q 215 131 207 139 q 246 122 224 122 l 288 122 q 321 133 311 122 q 331 168 331 143 l 331 203 l 338 203 l 338 104 q 310 26 338 51 q 235 0 283 0 l 192 0 q 84 36 118 0 q 50 138 50 72 l 50 363 z "},"ď":{"ha":593,"x_min":50,"x_max":667,"o":"m 547 929 l 667 929 l 667 851 l 593 675 l 547 675 l 547 929 m 207 322 l 50 322 l 50 546 q 84 647 50 611 q 192 683 118 683 l 235 683 q 310 658 283 683 q 338 579 338 632 l 338 471 l 331 471 l 331 514 q 321 551 331 540 q 288 561 311 561 l 246 561 q 215 553 224 561 q 207 524 207 546 l 207 322 m 331 929 l 489 929 l 489 0 l 333 0 l 333 99 l 331 104 l 331 929 m 50 363 l 207 363 l 207 160 q 215 131 207 139 q 246 122 224 122 l 288 122 q 321 133 311 122 q 331 168 331 143 l 331 203 l 338 203 l 338 104 q 310 26 338 51 q 235 0 283 0 l 192 0 q 84 36 118 0 q 50 138 50 72 l 50 363 z "},"đ":{"ha":554,"x_min":57,"x_max":561,"o":"m 214 321 l 57 321 l 57 544 q 91 646 57 610 q 199 682 125 682 l 242 682 q 317 656 290 682 q 344 579 344 631 l 344 471 l 338 471 l 338 514 q 328 549 338 539 q 294 560 318 560 l 253 560 q 222 552 231 560 q 214 522 214 544 l 214 321 m 338 929 l 496 929 l 496 0 l 340 0 l 340 99 l 338 104 l 338 929 m 57 363 l 214 363 l 214 160 q 222 131 214 139 q 253 122 231 122 l 294 122 q 328 133 318 122 q 338 168 338 143 l 338 203 l 344 203 l 344 104 q 317 26 344 51 q 242 0 290 0 l 199 0 q 91 36 125 0 q 57 138 57 72 l 57 363 m 561 849 l 561 757 l 235 757 l 235 849 l 561 849 z "},"ı":{"ha":276,"x_min":60,"x_max":217,"o":"m 217 0 l 60 0 l 60 682 l 217 682 l 217 0 z "},"e":{"ha":544,"x_min":53,"x_max":501,"o":"m 206 528 l 206 156 q 214 126 206 133 q 244 118 222 118 l 281 118 l 281 0 l 204 0 q 89 36 125 0 q 53 138 53 72 l 53 544 q 89 646 53 610 q 204 682 125 682 l 286 682 l 286 565 l 244 565 q 214 558 222 565 q 206 528 206 550 m 350 317 l 350 528 q 342 558 350 550 q 311 565 335 565 l 271 565 l 271 682 l 351 682 q 466 646 431 682 q 501 544 501 610 l 501 317 l 350 317 m 347 156 l 347 207 l 500 207 l 500 138 q 464 36 500 72 q 349 0 428 0 l 271 0 l 271 118 l 308 118 q 340 126 332 118 q 347 156 347 135 m 501 397 l 501 296 l 101 296 l 101 397 l 501 397 z "},"é":{"ha":544,"x_min":53,"x_max":501,"o":"m 206 528 l 206 156 q 214 126 206 133 q 244 118 222 118 l 281 118 l 281 0 l 204 0 q 89 36 125 0 q 53 138 53 72 l 53 544 q 89 646 53 610 q 204 682 125 682 l 286 682 l 286 565 l 244 565 q 214 558 222 565 q 206 528 206 550 m 350 317 l 350 528 q 342 558 350 550 q 311 565 335 565 l 271 565 l 271 682 l 351 682 q 466 646 431 682 q 501 544 501 610 l 501 317 l 350 317 m 347 156 l 347 207 l 500 207 l 500 138 q 464 36 500 72 q 349 0 428 0 l 271 0 l 271 118 l 308 118 q 340 126 332 118 q 347 156 347 135 m 501 397 l 501 296 l 101 296 l 101 397 l 501 397 m 211 726 l 331 917 l 499 917 l 342 726 l 211 726 z "},"ě":{"ha":544,"x_min":50,"x_max":506,"o":"m 206 528 l 206 156 q 214 126 206 133 q 244 118 222 118 l 281 118 l 281 0 l 204 0 q 89 36 125 0 q 53 138 53 72 l 53 544 q 89 646 53 610 q 204 682 125 682 l 286 682 l 286 565 l 244 565 q 214 558 222 565 q 206 528 206 550 m 350 317 l 350 528 q 342 558 350 550 q 311 565 335 565 l 271 565 l 271 682 l 351 682 q 466 646 431 682 q 501 544 501 610 l 501 317 l 350 317 m 347 156 l 347 207 l 500 207 l 500 138 q 464 36 500 72 q 349 0 428 0 l 271 0 l 271 118 l 308 118 q 340 126 332 118 q 347 156 347 135 m 501 397 l 501 296 l 101 296 l 101 397 l 501 397 m 196 726 l 49 917 l 204 917 l 276 810 l 350 917 l 506 917 l 358 726 l 196 726 z "},"ê":{"ha":543,"x_min":51,"x_max":508,"o":"m 51 726 l 199 917 l 361 917 l 508 726 l 353 726 l 279 833 l 207 726 l 51 726 m 206 528 l 206 156 q 214 126 206 133 q 244 118 222 118 l 281 118 l 281 0 l 204 0 q 89 36 125 0 q 53 138 53 72 l 53 544 q 89 646 53 610 q 204 682 125 682 l 286 682 l 286 565 l 244 565 q 214 558 222 565 q 206 528 206 550 m 350 317 l 350 528 q 342 558 350 550 q 311 565 335 565 l 271 565 l 271 682 l 351 682 q 466 646 431 682 q 501 544 501 610 l 501 317 l 350 317 m 347 156 l 347 207 l 500 207 l 500 138 q 464 36 500 72 q 349 0 428 0 l 271 0 l 271 118 l 308 118 q 340 126 332 118 q 347 156 347 135 m 501 397 l 501 296 l 101 296 l 101 397 l 501 397 z "},"ë":{"ha":543,"x_min":50,"x_max":501,"o":"m 51 751 l 51 897 l 213 897 l 213 751 l 51 751 m 335 751 l 335 897 l 496 897 l 496 751 l 335 751 m 206 528 l 206 156 q 214 126 206 133 q 244 118 222 118 l 281 118 l 281 0 l 204 0 q 89 36 125 0 q 53 138 53 72 l 53 544 q 89 646 53 610 q 204 682 125 682 l 286 682 l 286 565 l 244 565 q 214 558 222 565 q 206 528 206 550 m 350 317 l 350 528 q 342 558 350 550 q 311 565 335 565 l 271 565 l 271 682 l 351 682 q 466 646 431 682 q 501 544 501 610 l 501 317 l 350 317 m 347 156 l 347 207 l 500 207 l 500 138 q 464 36 500 72 q 349 0 428 0 l 271 0 l 271 118 l 308 118 q 340 126 332 118 q 347 156 347 135 m 501 397 l 501 296 l 101 296 l 101 397 l 501 397 z "},"ė":{"ha":544,"x_min":53,"x_max":501,"o":"m 206 528 l 206 156 q 214 126 206 133 q 244 118 222 118 l 281 118 l 281 0 l 204 0 q 89 36 125 0 q 53 138 53 72 l 53 544 q 89 646 53 610 q 204 682 125 682 l 286 682 l 286 565 l 244 565 q 214 558 222 565 q 206 528 206 550 m 350 317 l 350 528 q 342 558 350 550 q 311 565 335 565 l 271 565 l 271 682 l 351 682 q 466 646 431 682 q 501 544 501 610 l 501 317 l 350 317 m 347 156 l 347 207 l 500 207 l 500 138 q 464 36 500 72 q 349 0 428 0 l 271 0 l 271 118 l 308 118 q 340 126 332 118 q 347 156 347 135 m 501 397 l 501 296 l 101 296 l 101 397 l 501 397 m 194 749 l 194 894 l 364 894 l 364 749 l 194 749 z "},"è":{"ha":544,"x_min":44,"x_max":501,"o":"m 206 528 l 206 156 q 214 126 206 133 q 244 118 222 118 l 281 118 l 281 0 l 204 0 q 89 36 125 0 q 53 138 53 72 l 53 544 q 89 646 53 610 q 204 682 125 682 l 286 682 l 286 565 l 244 565 q 214 558 222 565 q 206 528 206 550 m 350 317 l 350 528 q 342 558 350 550 q 311 565 335 565 l 271 565 l 271 682 l 351 682 q 466 646 431 682 q 501 544 501 610 l 501 317 l 350 317 m 347 156 l 347 207 l 500 207 l 500 138 q 464 36 500 72 q 349 0 428 0 l 271 0 l 271 118 l 308 118 q 340 126 332 118 q 347 156 347 135 m 501 397 l 501 296 l 101 296 l 101 397 l 501 397 m 213 917 l 332 726 l 201 726 l 44 917 l 213 917 z "},"ē":{"ha":544,"x_min":53,"x_max":501,"o":"m 206 528 l 206 156 q 214 126 206 133 q 244 118 222 118 l 281 118 l 281 0 l 204 0 q 89 36 125 0 q 53 138 53 72 l 53 544 q 89 646 53 610 q 204 682 125 682 l 286 682 l 286 565 l 244 565 q 214 558 222 565 q 206 528 206 550 m 350 317 l 350 528 q 342 558 350 550 q 311 565 335 565 l 271 565 l 271 682 l 351 682 q 466 646 431 682 q 501 544 501 610 l 501 317 l 350 317 m 347 156 l 347 207 l 500 207 l 500 138 q 464 36 500 72 q 349 0 428 0 l 271 0 l 271 118 l 308 118 q 340 126 332 118 q 347 156 347 135 m 501 397 l 501 296 l 101 296 l 101 397 l 501 397 m 61 767 l 61 876 l 482 876 l 482 767 l 61 767 z "},"ę":{"ha":544,"x_min":53,"x_max":501,"o":"m 206 528 l 206 156 q 214 126 206 133 q 244 118 222 118 l 281 118 l 281 0 l 204 0 q 89 36 125 0 q 53 138 53 72 l 53 544 q 89 646 53 610 q 204 682 125 682 l 286 682 l 286 565 l 244 565 q 214 558 222 565 q 206 528 206 550 m 350 317 l 350 528 q 342 558 350 550 q 311 565 335 565 l 271 565 l 271 682 l 351 682 q 466 646 431 682 q 501 544 501 610 l 501 317 l 350 317 m 347 156 l 347 207 l 500 207 l 500 138 q 464 36 500 72 q 349 0 428 0 l 271 0 l 271 118 l 308 118 q 340 126 332 118 q 347 156 347 135 m 501 397 l 501 296 l 101 296 l 101 397 l 501 397 m 94 -154 q 124 -62 94 -94 q 226 -29 154 -29 l 343 -29 l 343 -131 l 251 -131 q 222 -137 231 -131 q 214 -165 214 -143 l 214 -197 q 222 -224 214 -217 q 251 -231 231 -231 l 368 -231 l 368 -332 l 226 -332 q 124 -299 154 -332 q 94 -207 94 -267 l 94 -154 m 343 -35 l 236 -35 l 236 17 l 343 17 l 343 -35 z "},"ð":{"ha":572,"x_min":50,"x_max":510,"o":"m 207 160 q 215 131 207 139 q 246 122 224 122 l 286 122 l 286 0 l 201 0 q 85 36 121 0 q 50 138 50 72 l 50 444 q 85 546 50 510 q 201 582 121 582 l 399 582 l 399 467 l 246 467 q 215 459 224 467 q 207 428 207 451 l 207 160 m 354 421 q 338 547 354 488 q 292 656 321 606 q 230 747 264 706 q 161 821 196 789 q 96 876 126 853 l 314 876 q 378 806 344 849 q 442 708 413 764 q 491 581 472 651 q 510 428 510 511 l 510 138 q 474 36 510 72 q 358 0 439 0 l 274 0 l 274 122 l 315 122 q 347 131 339 122 q 354 160 354 139 l 354 421 m 124 657 l 124 746 l 486 868 l 486 779 l 124 657 z "},"f":{"ha":344,"x_min":10,"x_max":338,"o":"m 236 768 l 236 0 l 79 0 l 79 792 q 115 893 79 857 q 229 929 150 929 l 338 929 l 338 806 l 275 806 q 244 798 253 806 q 236 768 236 790 m 338 682 l 338 560 l 10 560 l 10 682 l 338 682 z "},"g":{"ha":547,"x_min":50,"x_max":489,"o":"m 50 363 l 207 363 l 207 178 q 215 149 207 157 q 246 140 224 140 l 288 140 q 321 151 311 140 q 331 188 331 161 l 331 221 l 338 221 l 338 122 q 310 44 338 69 q 235 18 283 18 l 192 18 q 84 54 118 18 q 50 156 50 90 l 50 363 m 207 321 l 50 321 l 50 544 q 84 646 50 610 q 192 682 118 682 l 235 682 q 310 656 283 682 q 338 579 338 631 l 338 471 l 331 471 l 331 514 q 321 549 331 539 q 288 560 311 560 l 246 560 q 215 552 224 560 q 207 522 207 544 l 207 321 m 331 -32 l 331 33 l 489 33 l 489 -51 q 453 -153 489 -117 q 338 -189 417 -189 l 75 -189 l 75 -69 l 292 -69 q 323 -61 315 -69 q 331 -32 331 -53 m 489 17 l 331 17 l 331 583 l 333 585 l 333 682 l 489 682 l 489 17 z "},"ğ":{"ha":547,"x_min":50,"x_max":494,"o":"m 50 363 l 207 363 l 207 178 q 215 149 207 157 q 246 140 224 140 l 288 140 q 321 151 311 140 q 331 188 331 161 l 331 221 l 338 221 l 338 122 q 310 44 338 69 q 235 18 283 18 l 192 18 q 84 54 118 18 q 50 156 50 90 l 50 363 m 207 321 l 50 321 l 50 544 q 84 646 50 610 q 192 682 118 682 l 235 682 q 310 656 283 682 q 338 579 338 631 l 338 471 l 331 471 l 331 514 q 321 549 331 539 q 288 560 311 560 l 246 560 q 215 552 224 560 q 207 522 207 544 l 207 321 m 331 -32 l 331 33 l 489 33 l 489 -51 q 453 -153 489 -117 q 338 -189 417 -189 l 75 -189 l 75 -69 l 292 -69 q 323 -61 315 -69 q 331 -32 331 -53 m 489 17 l 331 17 l 331 583 l 333 585 l 333 682 l 489 682 l 489 17 m 353 917 l 494 917 l 494 864 q 459 763 494 799 q 344 726 424 726 l 264 726 l 264 828 l 313 828 q 344 836 336 828 q 353 865 353 844 l 353 917 m 53 917 l 194 917 l 194 865 q 203 836 194 844 q 235 828 211 828 l 283 828 l 283 726 l 203 726 q 88 763 124 726 q 53 864 53 799 l 53 917 z "},"ģ":{"ha":547,"x_min":50,"x_max":489,"o":"m 368 726 l 204 726 l 204 810 l 315 1006 l 368 1006 l 368 726 m 50 363 l 207 363 l 207 178 q 215 149 207 157 q 246 140 224 140 l 288 140 q 321 151 311 140 q 331 188 331 161 l 331 221 l 338 221 l 338 122 q 310 44 338 69 q 235 18 283 18 l 192 18 q 84 54 118 18 q 50 156 50 90 l 50 363 m 207 321 l 50 321 l 50 544 q 84 646 50 610 q 192 682 118 682 l 235 682 q 310 656 283 682 q 338 579 338 631 l 338 471 l 331 471 l 331 514 q 321 549 331 539 q 288 560 311 560 l 246 560 q 215 552 224 560 q 207 522 207 544 l 207 321 m 331 -32 l 331 33 l 489 33 l 489 -51 q 453 -153 489 -117 q 338 -189 417 -189 l 75 -189 l 75 -69 l 292 -69 q 323 -61 315 -69 q 331 -32 331 -53 m 489 17 l 331 17 l 331 583 l 333 585 l 333 682 l 489 682 l 489 17 z "},"ß":{"ha":743,"x_min":63,"x_max":708,"o":"m 303 215 l 460 215 l 460 153 q 467 124 460 132 q 496 115 475 117 l 514 115 q 545 124 538 115 q 553 153 553 132 l 553 249 q 545 278 553 271 q 514 286 538 286 l 450 286 q 337 322 369 286 q 304 424 304 358 l 304 488 q 340 586 304 554 q 447 618 375 618 q 483 625 475 618 q 492 650 492 632 l 492 688 q 485 718 492 710 q 454 726 478 726 l 263 726 q 231 718 240 726 q 222 688 222 710 l 222 0 l 63 0 l 63 714 q 95 815 63 779 q 208 850 128 850 l 510 850 q 621 815 586 850 q 656 718 656 781 l 656 626 q 644 563 656 588 q 603 525 632 538 q 525 513 575 513 l 497 513 q 466 505 475 513 q 457 475 457 497 l 457 436 q 466 406 457 414 q 497 399 475 399 l 557 399 q 673 363 638 399 q 708 261 708 326 l 708 138 q 676 36 708 72 q 564 0 643 0 l 450 0 q 338 37 372 1 q 303 138 303 72 l 303 215 z "},"h":{"ha":554,"x_min":60,"x_max":499,"o":"m 499 0 l 340 0 l 340 522 q 333 552 340 544 q 301 560 325 560 l 260 560 q 227 549 238 560 q 217 514 217 539 l 217 474 l 210 474 l 210 579 q 238 656 210 631 q 314 682 265 682 l 356 682 q 465 646 431 682 q 499 544 499 610 l 499 0 m 217 0 l 60 0 l 60 929 l 217 929 l 217 0 z "},"i":{"ha":276,"x_min":56,"x_max":221,"o":"m 217 0 l 60 0 l 60 682 l 217 682 l 217 0 m 56 793 l 56 931 l 221 931 l 221 793 l 56 793 z "},"í":{"ha":276,"x_min":60,"x_max":356,"o":"m 217 0 l 60 0 l 60 682 l 217 682 l 217 0 m 68 726 l 188 917 l 356 917 l 199 726 l 68 726 z "},"î":{"ha":276,"x_min":-90,"x_max":367,"o":"m 217 0 l 60 0 l 60 682 l 217 682 l 217 0 m -90 726 l 57 917 l 218 917 l 367 726 l 211 726 l 138 833 l 64 726 l -90 726 z "},"ï":{"ha":276,"x_min":-86,"x_max":360,"o":"m 217 0 l 60 0 l 60 682 l 217 682 l 217 0 m -86 751 l -86 897 l 75 897 l 75 751 l -86 751 m 197 751 l 197 897 l 360 897 l 360 751 l 197 751 z "},"ì":{"ha":276,"x_min":-83,"x_max":217,"o":"m 217 0 l 60 0 l 60 682 l 217 682 l 217 0 m 85 917 l 204 726 l 75 726 l -83 917 l 85 917 z "},"ī":{"ha":276,"x_min":-72,"x_max":349,"o":"m 217 0 l 60 0 l 60 682 l 217 682 l 217 0 m -72 767 l -72 876 l 349 876 l 349 767 l -72 767 z "},"į":{"ha":276,"x_min":-32,"x_max":242,"o":"m 217 0 l 60 0 l 60 682 l 217 682 l 217 0 m 56 793 l 56 931 l 221 931 l 221 793 l 56 793 m -32 -154 q -2 -62 -32 -94 q 100 -29 28 -29 l 217 -29 l 217 -131 l 125 -131 q 96 -137 104 -131 q 88 -165 88 -143 l 88 -197 q 96 -224 88 -217 q 125 -231 104 -231 l 242 -231 l 242 -332 l 100 -332 q -2 -299 28 -332 q -32 -207 -32 -267 l -32 -154 m 217 -35 l 110 -35 l 110 17 l 217 17 l 217 -35 z "},"j":{"ha":276,"x_min":-11,"x_max":221,"o":"m 60 -32 l 60 682 l 217 682 l 217 -51 q 181 -153 217 -117 q 65 -189 146 -189 l -11 -189 l -11 -69 l 19 -69 q 51 -61 43 -69 q 60 -32 60 -53 m 56 793 l 56 931 l 221 931 l 221 793 l 56 793 z "},"k":{"ha":543,"x_min":60,"x_max":542,"o":"m 217 0 l 60 0 l 60 929 l 217 929 l 217 0 m 229 354 l 389 354 l 542 0 l 376 0 l 229 354 m 389 354 l 229 354 l 378 682 l 542 682 l 389 354 z "},"ķ":{"ha":543,"x_min":60,"x_max":542,"o":"m 217 0 l 60 0 l 60 929 l 217 929 l 217 0 m 229 354 l 389 354 l 542 0 l 376 0 l 229 354 m 389 354 l 229 354 l 378 682 l 542 682 l 389 354 m 201 -68 l 365 -68 l 365 -151 l 254 -347 l 201 -347 l 201 -68 z "},"l":{"ha":276,"x_min":60,"x_max":217,"o":"m 217 0 l 60 0 l 60 929 l 217 929 l 217 0 z "},"ĺ":{"ha":276,"x_min":60,"x_max":360,"o":"m 217 0 l 60 0 l 60 929 l 217 929 l 217 0 m 71 974 l 190 1164 l 358 1164 l 201 974 l 71 974 z "},"ľ":{"ha":328,"x_min":60,"x_max":396,"o":"m 276 929 l 396 929 l 396 851 l 322 675 l 276 675 l 276 929 m 217 0 l 60 0 l 60 929 l 217 929 l 217 0 z "},"ļ":{"ha":276,"x_min":56,"x_max":221,"o":"m 217 0 l 60 0 l 60 929 l 217 929 l 217 0 m 56 -68 l 221 -68 l 221 -151 l 108 -347 l 56 -347 l 56 -68 z "},"ł":{"ha":290,"x_min":-56,"x_max":358,"o":"m 358 667 l 358 551 l -56 356 l -56 471 l 358 667 m 224 0 l 67 0 l 67 929 l 224 929 l 224 0 z "},"m":{"ha":832,"x_min":60,"x_max":779,"o":"m 499 0 l 340 0 l 340 522 q 333 552 340 544 q 301 560 325 560 l 260 560 q 227 549 238 560 q 217 514 217 539 l 217 471 l 210 471 l 210 579 q 238 656 210 631 q 314 682 265 682 l 356 682 q 465 646 431 682 q 499 544 499 610 l 499 0 m 217 0 l 60 0 l 60 682 l 215 682 l 215 583 l 217 578 l 217 0 m 779 0 l 622 0 l 622 522 q 615 552 622 544 q 583 560 607 560 l 542 560 q 509 549 519 560 q 499 514 499 539 l 499 471 l 488 471 l 483 576 q 513 655 481 628 q 594 682 544 682 l 638 682 q 745 646 711 682 q 779 544 779 610 l 779 0 z "},"n":{"ha":554,"x_min":60,"x_max":499,"o":"m 217 0 l 60 0 l 60 682 l 215 682 l 215 583 l 217 578 l 217 0 m 499 0 l 340 0 l 340 522 q 333 552 340 544 q 301 560 325 560 l 260 560 q 227 549 238 560 q 217 514 217 539 l 217 471 l 210 471 l 210 579 q 238 656 210 631 q 314 682 265 682 l 356 682 q 465 646 431 682 q 499 544 499 610 l 499 0 z "},"ń":{"ha":554,"x_min":60,"x_max":499,"o":"m 217 0 l 60 0 l 60 682 l 215 682 l 215 583 l 217 578 l 217 0 m 499 0 l 340 0 l 340 522 q 333 552 340 544 q 301 560 325 560 l 260 560 q 227 549 238 560 q 217 514 217 539 l 217 471 l 210 471 l 210 579 q 238 656 210 631 q 314 682 265 682 l 356 682 q 465 646 431 682 q 499 544 499 610 l 499 0 m 201 726 l 321 917 l 489 917 l 332 726 l 201 726 z "},"ň":{"ha":554,"x_min":39,"x_max":499,"o":"m 217 0 l 60 0 l 60 682 l 215 682 l 215 583 l 217 578 l 217 0 m 499 0 l 340 0 l 340 522 q 333 552 340 544 q 301 560 325 560 l 260 560 q 227 549 238 560 q 217 514 217 539 l 217 471 l 210 471 l 210 579 q 238 656 210 631 q 314 682 265 682 l 356 682 q 465 646 431 682 q 499 544 499 610 l 499 0 m 185 726 l 38 917 l 193 917 l 265 810 l 339 917 l 494 917 l 347 726 l 185 726 z "},"ņ":{"ha":554,"x_min":60,"x_max":499,"o":"m 217 0 l 60 0 l 60 682 l 215 682 l 215 583 l 217 578 l 217 0 m 499 0 l 340 0 l 340 522 q 333 552 340 544 q 301 560 325 560 l 260 560 q 227 549 238 560 q 217 514 217 539 l 217 471 l 210 471 l 210 579 q 238 656 210 631 q 314 682 265 682 l 356 682 q 465 646 431 682 q 499 544 499 610 l 499 0 m 194 -68 l 358 -68 l 358 -151 l 247 -347 l 194 -347 l 194 -68 z "},"ñ":{"ha":554,"x_min":49,"x_max":499,"o":"m 217 0 l 60 0 l 60 682 l 215 682 l 215 583 l 217 578 l 217 0 m 499 0 l 340 0 l 340 522 q 333 552 340 544 q 301 560 325 560 l 260 560 q 227 549 238 560 q 217 514 217 539 l 217 471 l 210 471 l 210 579 q 238 656 210 631 q 314 682 265 682 l 356 682 q 465 646 431 682 q 499 544 499 610 l 499 0 m 353 740 q 291 756 318 740 q 242 785 264 771 q 204 800 221 800 q 179 768 179 800 l 179 740 l 49 740 l 49 785 q 74 871 49 839 q 165 903 100 903 l 182 903 q 242 888 215 903 q 290 858 269 874 q 328 843 311 843 q 347 850 342 843 q 353 875 353 857 l 353 903 l 483 903 l 483 854 q 459 771 483 801 q 367 740 435 740 l 353 740 z "},"o":{"ha":558,"x_min":53,"x_max":506,"o":"m 351 251 l 351 526 q 343 556 351 549 q 311 564 335 564 l 276 564 l 276 682 l 358 682 q 472 646 438 682 q 506 544 506 610 l 506 251 l 351 251 m 351 156 l 351 297 l 506 297 l 506 138 q 472 36 506 72 q 358 0 438 0 l 271 0 l 271 118 l 311 118 q 343 126 335 118 q 351 156 351 135 m 207 526 l 207 250 l 53 250 l 53 544 q 87 646 53 610 q 201 682 121 682 l 282 682 l 282 564 l 247 564 q 215 556 224 564 q 207 526 207 549 m 207 304 l 207 156 q 215 126 207 135 q 247 118 224 118 l 281 118 l 281 0 l 201 0 q 87 36 121 0 q 53 138 53 72 l 53 304 l 207 304 z "},"ó":{"ha":558,"x_min":53,"x_max":506,"o":"m 351 251 l 351 526 q 343 556 351 549 q 311 564 335 564 l 276 564 l 276 682 l 358 682 q 472 646 438 682 q 506 544 506 610 l 506 251 l 351 251 m 351 156 l 351 297 l 506 297 l 506 138 q 472 36 506 72 q 358 0 438 0 l 271 0 l 271 118 l 311 118 q 343 126 335 118 q 351 156 351 135 m 207 526 l 207 250 l 53 250 l 53 544 q 87 646 53 610 q 201 682 121 682 l 282 682 l 282 564 l 247 564 q 215 556 224 564 q 207 526 207 549 m 207 304 l 207 156 q 215 126 207 135 q 247 118 224 118 l 281 118 l 281 0 l 201 0 q 87 36 121 0 q 53 138 53 72 l 53 304 l 207 304 m 214 726 l 333 917 l 501 917 l 344 726 l 214 726 z "},"ô":{"ha":558,"x_min":49,"x_max":506,"o":"m 351 251 l 351 526 q 343 556 351 549 q 311 564 335 564 l 276 564 l 276 682 l 358 682 q 472 646 438 682 q 506 544 506 610 l 506 251 l 351 251 m 351 156 l 351 297 l 506 297 l 506 138 q 472 36 506 72 q 358 0 438 0 l 271 0 l 271 118 l 311 118 q 343 126 335 118 q 351 156 351 135 m 207 526 l 207 250 l 53 250 l 53 544 q 87 646 53 610 q 201 682 121 682 l 282 682 l 282 564 l 247 564 q 215 556 224 564 q 207 526 207 549 m 207 304 l 207 156 q 215 126 207 135 q 247 118 224 118 l 281 118 l 281 0 l 201 0 q 87 36 121 0 q 53 138 53 72 l 53 304 l 207 304 m 49 726 l 196 917 l 358 917 l 506 726 l 350 726 l 276 833 l 204 726 l 49 726 z "},"ö":{"ha":558,"x_min":53,"x_max":506,"o":"m 57 751 l 57 897 l 218 897 l 218 751 l 57 751 m 340 751 l 340 897 l 501 897 l 501 751 l 340 751 m 351 251 l 351 526 q 343 556 351 549 q 311 564 335 564 l 276 564 l 276 682 l 358 682 q 472 646 438 682 q 506 544 506 610 l 506 251 l 351 251 m 351 156 l 351 297 l 506 297 l 506 138 q 472 36 506 72 q 358 0 438 0 l 271 0 l 271 118 l 311 118 q 343 126 335 118 q 351 156 351 135 m 207 526 l 207 250 l 53 250 l 53 544 q 87 646 53 610 q 201 682 121 682 l 282 682 l 282 564 l 247 564 q 215 556 224 564 q 207 526 207 549 m 207 304 l 207 156 q 215 126 207 135 q 247 118 224 118 l 281 118 l 281 0 l 201 0 q 87 36 121 0 q 53 138 53 72 l 53 304 l 207 304 z "},"œ":{"ha":913,"x_min":57,"x_max":786,"o":"m 199 0 q 91 36 125 0 q 57 138 57 72 l 57 544 q 91 646 57 610 q 199 682 125 682 l 296 682 q 367 664 336 682 q 410 618 399 646 q 453 664 422 646 q 533 682 483 682 l 635 682 q 751 646 715 682 q 786 544 786 610 l 786 307 l 632 307 l 632 525 q 624 555 632 547 q 593 563 617 563 l 532 563 q 500 555 508 563 q 492 525 492 547 l 492 157 q 500 127 492 135 q 532 119 508 119 l 590 119 q 622 127 614 119 q 629 157 629 135 l 629 207 l 785 207 l 785 138 q 749 36 785 72 q 633 0 713 0 l 532 0 q 453 19 483 0 q 410 64 422 38 q 367 19 397 38 q 296 0 336 0 l 199 0 m 214 522 l 214 160 q 222 131 214 139 q 253 122 231 122 l 294 122 q 327 131 317 122 q 338 164 338 140 l 338 518 q 294 560 336 560 l 253 560 q 222 552 231 560 q 214 522 214 544 m 786 400 l 786 293 l 386 293 l 386 400 l 786 400 z "},"ò":{"ha":558,"x_min":51,"x_max":506,"o":"m 351 251 l 351 526 q 343 556 351 549 q 311 564 335 564 l 276 564 l 276 682 l 358 682 q 472 646 438 682 q 506 544 506 610 l 506 251 l 351 251 m 351 156 l 351 297 l 506 297 l 506 138 q 472 36 506 72 q 358 0 438 0 l 271 0 l 271 118 l 311 118 q 343 126 335 118 q 351 156 351 135 m 207 526 l 207 250 l 53 250 l 53 544 q 87 646 53 610 q 201 682 121 682 l 282 682 l 282 564 l 247 564 q 215 556 224 564 q 207 526 207 549 m 207 304 l 207 156 q 215 126 207 135 q 247 118 224 118 l 281 118 l 281 0 l 201 0 q 87 36 121 0 q 53 138 53 72 l 53 304 l 207 304 m 219 917 l 339 726 l 208 726 l 51 917 l 219 917 z "},"ő":{"ha":558,"x_min":53,"x_max":585,"o":"m 318 726 l 438 917 l 585 917 l 428 726 l 318 726 m 124 726 l 243 917 l 390 917 l 233 726 l 124 726 m 351 251 l 351 526 q 343 556 351 549 q 311 564 335 564 l 276 564 l 276 682 l 358 682 q 472 646 438 682 q 506 544 506 610 l 506 251 l 351 251 m 351 156 l 351 297 l 506 297 l 506 138 q 472 36 506 72 q 358 0 438 0 l 271 0 l 271 118 l 311 118 q 343 126 335 118 q 351 156 351 135 m 207 526 l 207 250 l 53 250 l 53 544 q 87 646 53 610 q 201 682 121 682 l 282 682 l 282 564 l 247 564 q 215 556 224 564 q 207 526 207 549 m 207 304 l 207 156 q 215 126 207 135 q 247 118 224 118 l 281 118 l 281 0 l 201 0 q 87 36 121 0 q 53 138 53 72 l 53 304 l 207 304 z "},"ō":{"ha":558,"x_min":53,"x_max":506,"o":"m 351 251 l 351 526 q 343 556 351 549 q 311 564 335 564 l 276 564 l 276 682 l 358 682 q 472 646 438 682 q 506 544 506 610 l 506 251 l 351 251 m 351 156 l 351 297 l 506 297 l 506 138 q 472 36 506 72 q 358 0 438 0 l 271 0 l 271 118 l 311 118 q 343 126 335 118 q 351 156 351 135 m 207 526 l 207 250 l 53 250 l 53 544 q 87 646 53 610 q 201 682 121 682 l 282 682 l 282 564 l 247 564 q 215 556 224 564 q 207 526 207 549 m 207 304 l 207 156 q 215 126 207 135 q 247 118 224 118 l 281 118 l 281 0 l 201 0 q 87 36 121 0 q 53 138 53 72 l 53 304 l 207 304 m 63 767 l 63 876 l 483 876 l 483 767 l 63 767 z "},"ø":{"ha":567,"x_min":50,"x_max":517,"o":"m 510 544 l 510 138 q 476 36 510 72 q 361 0 442 0 l 204 0 q 91 36 125 0 q 57 138 57 72 l 57 544 q 91 646 57 610 q 204 682 125 682 l 361 682 q 476 646 442 682 q 510 544 510 610 m 360 149 l 360 533 q 351 564 360 556 q 319 572 343 572 l 247 572 q 215 564 224 572 q 207 533 207 556 l 207 149 q 215 118 207 126 q 247 110 224 110 l 319 110 q 351 118 343 110 q 360 149 360 126 m 433 710 l 517 710 l 133 -28 l 50 -28 l 433 710 z "},"õ":{"ha":558,"x_min":53,"x_max":506,"o":"m 351 251 l 351 526 q 343 556 351 549 q 311 564 335 564 l 276 564 l 276 682 l 358 682 q 472 646 438 682 q 506 544 506 610 l 506 251 l 351 251 m 351 156 l 351 297 l 506 297 l 506 138 q 472 36 506 72 q 358 0 438 0 l 271 0 l 271 118 l 311 118 q 343 126 335 118 q 351 156 351 135 m 207 526 l 207 250 l 53 250 l 53 544 q 87 646 53 610 q 201 682 121 682 l 282 682 l 282 564 l 247 564 q 215 556 224 564 q 207 526 207 549 m 207 304 l 207 156 q 215 126 207 135 q 247 118 224 118 l 281 118 l 281 0 l 201 0 q 87 36 121 0 q 53 138 53 72 l 53 304 l 207 304 m 358 740 q 297 756 324 740 q 248 785 269 771 q 210 800 226 800 q 185 768 185 800 l 185 740 l 54 740 l 54 785 q 80 871 54 839 q 171 903 106 903 l 188 903 q 248 888 221 903 q 296 858 275 874 q 333 843 317 843 q 353 850 347 843 q 358 875 358 857 l 358 903 l 489 903 l 489 854 q 465 771 489 801 q 372 740 440 740 l 358 740 z "},"p":{"ha":547,"x_min":60,"x_max":499,"o":"m 499 321 l 340 321 l 340 522 q 333 552 340 544 q 301 560 325 560 l 260 560 q 227 549 238 560 q 217 514 217 539 l 217 471 l 210 471 l 210 579 q 238 656 210 631 q 314 682 265 682 l 356 682 q 465 646 431 682 q 499 544 499 610 l 499 321 m 217 -189 l 60 -189 l 60 682 l 215 682 l 215 586 l 217 576 l 217 -189 m 340 363 l 499 363 l 499 138 q 465 36 499 72 q 356 0 431 0 l 314 0 q 238 26 265 0 q 210 104 210 51 l 210 203 l 217 203 l 217 168 q 227 133 217 143 q 260 122 238 122 l 301 122 q 333 131 325 122 q 340 160 340 139 l 340 363 z "},"q":{"ha":547,"x_min":50,"x_max":489,"o":"m 207 321 l 50 321 l 50 544 q 84 646 50 610 q 192 682 118 682 l 235 682 q 310 656 283 682 q 338 579 338 631 l 338 471 l 331 471 l 331 514 q 321 549 331 539 q 288 560 311 560 l 246 560 q 215 552 224 560 q 207 522 207 544 l 207 321 m 489 -189 l 331 -189 l 331 576 l 333 586 l 333 682 l 489 682 l 489 -189 m 50 363 l 207 363 l 207 160 q 215 131 207 139 q 246 122 224 122 l 288 122 q 321 133 311 122 q 331 168 331 143 l 331 203 l 338 203 l 338 104 q 310 26 338 51 q 235 0 283 0 l 192 0 q 84 36 118 0 q 50 138 50 72 l 50 363 z "},"r":{"ha":369,"x_min":60,"x_max":363,"o":"m 363 685 l 363 549 l 304 549 q 217 449 217 549 l 217 417 l 210 417 l 210 554 q 224 617 210 588 q 267 666 239 647 q 338 685 296 685 l 363 685 m 217 0 l 60 0 l 60 682 l 215 682 l 215 546 l 217 554 l 217 0 z "},"ŕ":{"ha":369,"x_min":60,"x_max":436,"o":"m 363 685 l 363 549 l 304 549 q 217 449 217 549 l 217 417 l 210 417 l 210 554 q 224 617 210 588 q 267 666 239 647 q 338 685 296 685 l 363 685 m 217 0 l 60 0 l 60 682 l 215 682 l 215 546 l 217 554 l 217 0 m 147 726 l 267 917 l 435 917 l 278 726 l 147 726 z "},"ř":{"ha":369,"x_min":-18,"x_max":439,"o":"m 363 685 l 363 549 l 304 549 q 217 449 217 549 l 217 417 l 210 417 l 210 554 q 224 617 210 588 q 267 666 239 647 q 338 685 296 685 l 363 685 m 217 0 l 60 0 l 60 682 l 215 682 l 215 546 l 217 554 l 217 0 m 129 726 l -18 917 l 138 917 l 210 810 l 283 917 l 439 917 l 292 726 l 129 726 z "},"ŗ":{"ha":369,"x_min":58,"x_max":363,"o":"m 363 685 l 363 549 l 304 549 q 217 449 217 549 l 217 417 l 210 417 l 210 554 q 224 617 210 588 q 267 666 239 647 q 338 685 296 685 l 363 685 m 217 0 l 60 0 l 60 682 l 215 682 l 215 546 l 217 554 l 217 0 m 58 -68 l 222 -68 l 222 -151 l 111 -347 l 58 -347 l 58 -68 z "},"s":{"ha":503,"x_min":43,"x_max":460,"o":"m 307 150 l 307 246 q 299 276 307 268 q 267 283 290 283 l 192 283 q 78 319 113 283 q 43 419 43 354 l 43 544 q 78 646 43 610 q 194 682 114 682 l 304 682 q 419 646 383 682 q 454 544 454 610 l 454 481 l 303 481 l 303 532 q 295 562 303 554 q 264 569 288 569 l 236 569 q 204 562 213 569 q 196 532 196 554 l 196 432 q 204 402 196 410 q 236 394 213 394 l 311 394 q 425 359 390 394 q 460 258 460 324 l 460 138 q 424 36 460 72 q 310 0 389 0 l 197 0 q 81 36 117 0 q 46 138 46 72 l 46 200 l 200 200 l 200 150 q 208 120 200 128 q 239 113 217 113 l 267 113 q 299 120 290 113 q 307 150 307 128 z "},"ś":{"ha":503,"x_min":43,"x_max":483,"o":"m 307 150 l 307 246 q 299 276 307 268 q 267 283 290 283 l 192 283 q 78 319 113 283 q 43 419 43 354 l 43 544 q 78 646 43 610 q 194 682 114 682 l 304 682 q 419 646 383 682 q 454 544 454 610 l 454 481 l 303 481 l 303 532 q 295 562 303 554 q 264 569 288 569 l 236 569 q 204 562 213 569 q 196 532 196 554 l 196 432 q 204 402 196 410 q 236 394 213 394 l 311 394 q 425 359 390 394 q 460 258 460 324 l 460 138 q 424 36 460 72 q 310 0 389 0 l 197 0 q 81 36 117 0 q 46 138 46 72 l 46 200 l 200 200 l 200 150 q 208 120 200 128 q 239 113 217 113 l 267 113 q 299 120 290 113 q 307 150 307 128 m 196 726 l 315 917 l 483 917 l 326 726 l 196 726 z "},"š":{"ha":503,"x_min":21,"x_max":478,"o":"m 307 150 l 307 246 q 299 276 307 268 q 267 283 290 283 l 192 283 q 78 319 113 283 q 43 419 43 354 l 43 544 q 78 646 43 610 q 194 682 114 682 l 304 682 q 419 646 383 682 q 454 544 454 610 l 454 481 l 303 481 l 303 532 q 295 562 303 554 q 264 569 288 569 l 236 569 q 204 562 213 569 q 196 532 196 554 l 196 432 q 204 402 196 410 q 236 394 213 394 l 311 394 q 425 359 390 394 q 460 258 460 324 l 460 138 q 424 36 460 72 q 310 0 389 0 l 197 0 q 81 36 117 0 q 46 138 46 72 l 46 200 l 200 200 l 200 150 q 208 120 200 128 q 239 113 217 113 l 267 113 q 299 120 290 113 q 307 150 307 128 m 168 726 l 21 917 l 176 917 l 249 810 l 322 917 l 478 917 l 331 726 l 168 726 z "},"ş":{"ha":503,"x_min":43,"x_max":460,"o":"m 307 150 l 307 246 q 299 276 307 268 q 267 283 290 283 l 192 283 q 78 319 113 283 q 43 419 43 354 l 43 544 q 78 646 43 610 q 194 682 114 682 l 304 682 q 419 646 383 682 q 454 544 454 610 l 454 481 l 303 481 l 303 532 q 295 562 303 554 q 264 569 288 569 l 236 569 q 204 562 213 569 q 196 532 196 554 l 196 432 q 204 402 196 410 q 236 394 213 394 l 311 394 q 425 359 390 394 q 460 258 460 324 l 460 138 q 424 36 460 72 q 310 0 389 0 l 197 0 q 81 36 117 0 q 46 138 46 72 l 46 200 l 200 200 l 200 150 q 208 120 200 128 q 239 113 217 113 l 267 113 q 299 120 290 113 q 307 150 307 128 m 168 -68 l 332 -68 l 332 -151 l 221 -347 l 168 -347 l 168 -68 z "},"ș":{"ha":503,"x_min":43,"x_max":460,"o":"m 307 150 l 307 246 q 299 276 307 268 q 267 283 290 283 l 192 283 q 78 319 113 283 q 43 419 43 354 l 43 544 q 78 646 43 610 q 194 682 114 682 l 304 682 q 419 646 383 682 q 454 544 454 610 l 454 481 l 303 481 l 303 532 q 295 562 303 554 q 264 569 288 569 l 236 569 q 204 562 213 569 q 196 532 196 554 l 196 432 q 204 402 196 410 q 236 394 213 394 l 311 394 q 425 359 390 394 q 460 258 460 324 l 460 138 q 424 36 460 72 q 310 0 389 0 l 197 0 q 81 36 117 0 q 46 138 46 72 l 46 200 l 200 200 l 200 150 q 208 120 200 128 q 239 113 217 113 l 267 113 q 299 120 290 113 q 307 150 307 128 m 175 -68 l 340 -68 l 340 -151 l 228 -347 l 175 -347 l 175 -68 z "},"t":{"ha":339,"x_min":7,"x_max":325,"o":"m 232 804 l 232 164 q 240 134 232 142 q 272 126 249 126 l 324 126 l 324 0 l 226 0 q 110 36 146 0 q 75 138 75 72 l 75 804 l 232 804 m 325 682 l 325 560 l 7 560 l 7 682 l 325 682 z "},"ť":{"ha":339,"x_min":7,"x_max":422,"o":"m 292 954 l 422 954 l 422 878 l 336 728 l 292 728 l 292 954 m 232 804 l 232 164 q 240 134 232 142 q 272 126 249 126 l 324 126 l 324 0 l 226 0 q 110 36 146 0 q 75 138 75 72 l 75 804 l 232 804 m 325 682 l 325 560 l 7 560 l 7 682 l 325 682 z "},"ţ":{"ha":481,"x_min":7,"x_max":474,"o":"m 160 839 l 319 839 l 319 0 l 160 0 l 160 839 m 474 876 l 474 754 l 7 754 l 7 876 l 474 876 m 158 -68 l 322 -68 l 322 -151 l 211 -347 l 158 -347 l 158 -68 z "},"ț":{"ha":339,"x_min":7,"x_max":325,"o":"m 232 804 l 232 164 q 240 134 232 142 q 272 126 249 126 l 324 126 l 324 0 l 226 0 q 110 36 146 0 q 75 138 75 72 l 75 804 l 232 804 m 325 682 l 325 560 l 7 560 l 7 682 l 325 682 m 111 -68 l 275 -68 l 275 -151 l 164 -347 l 111 -347 l 111 -68 z "},"þ":{"ha":554,"x_min":56,"x_max":494,"o":"m 494 321 l 338 321 l 338 522 q 329 552 338 544 q 297 560 321 560 l 257 560 q 224 549 235 560 q 214 514 214 539 l 214 471 l 207 471 l 207 579 q 234 656 207 631 q 310 682 261 682 l 351 682 q 460 646 426 682 q 494 544 494 610 l 494 321 m 214 -189 l 56 -189 l 56 929 l 211 929 l 211 586 l 214 576 l 214 -189 m 338 363 l 494 363 l 494 138 q 460 36 494 72 q 351 0 426 0 l 310 0 q 234 26 261 0 q 207 104 207 51 l 207 203 l 214 203 l 214 168 q 224 133 214 143 q 257 122 235 122 l 297 122 q 329 131 321 122 q 338 160 338 139 l 338 363 z "},"u":{"ha":554,"x_min":57,"x_max":496,"o":"m 57 682 l 214 682 l 214 160 q 222 131 214 139 q 253 122 231 122 l 294 122 q 328 133 318 122 q 338 168 338 143 l 338 211 l 344 211 l 344 104 q 317 26 344 51 q 242 0 290 0 l 199 0 q 91 36 125 0 q 57 138 57 72 l 57 682 m 338 682 l 496 682 l 496 0 l 340 0 l 340 99 l 338 104 l 338 682 z "},"ú":{"ha":554,"x_min":57,"x_max":496,"o":"m 57 682 l 214 682 l 214 160 q 222 131 214 139 q 253 122 231 122 l 294 122 q 328 133 318 122 q 338 168 338 143 l 338 211 l 344 211 l 344 104 q 317 26 344 51 q 242 0 290 0 l 199 0 q 91 36 125 0 q 57 138 57 72 l 57 682 m 338 682 l 496 682 l 496 0 l 340 0 l 340 99 l 338 104 l 338 682 m 206 726 l 325 917 l 493 917 l 336 726 l 206 726 z "},"û":{"ha":551,"x_min":44,"x_max":501,"o":"m 44 726 l 192 917 l 354 917 l 501 726 l 346 726 l 272 833 l 200 726 l 44 726 m 57 682 l 214 682 l 214 160 q 222 131 214 139 q 253 122 231 122 l 294 122 q 328 133 318 122 q 338 168 338 143 l 338 211 l 344 211 l 344 104 q 317 26 344 51 q 242 0 290 0 l 199 0 q 91 36 125 0 q 57 138 57 72 l 57 682 m 338 682 l 496 682 l 496 0 l 340 0 l 340 99 l 338 104 l 338 682 z "},"ü":{"ha":561,"x_min":49,"x_max":496,"o":"m 49 751 l 49 897 l 210 897 l 210 751 l 49 751 m 332 751 l 332 897 l 493 897 l 493 751 l 332 751 m 57 682 l 214 682 l 214 160 q 222 131 214 139 q 253 122 231 122 l 294 122 q 328 133 318 122 q 338 168 338 143 l 338 211 l 344 211 l 344 104 q 317 26 344 51 q 242 0 290 0 l 199 0 q 91 36 125 0 q 57 138 57 72 l 57 682 m 338 682 l 496 682 l 496 0 l 340 0 l 340 99 l 338 104 l 338 682 z "},"ù":{"ha":554,"x_min":57,"x_max":496,"o":"m 57 682 l 214 682 l 214 160 q 222 131 214 139 q 253 122 231 122 l 294 122 q 328 133 318 122 q 338 168 338 143 l 338 211 l 344 211 l 344 104 q 317 26 344 51 q 242 0 290 0 l 199 0 q 91 36 125 0 q 57 138 57 72 l 57 682 m 338 682 l 496 682 l 496 0 l 340 0 l 340 99 l 338 104 l 338 682 m 226 917 l 346 726 l 215 726 l 58 917 l 226 917 z "},"ű":{"ha":554,"x_min":57,"x_max":574,"o":"m 307 726 l 426 917 l 574 917 l 417 726 l 307 726 m 113 726 l 232 917 l 379 917 l 222 726 l 113 726 m 57 682 l 214 682 l 214 160 q 222 131 214 139 q 253 122 231 122 l 294 122 q 328 133 318 122 q 338 168 338 143 l 338 211 l 344 211 l 344 104 q 317 26 344 51 q 242 0 290 0 l 199 0 q 91 36 125 0 q 57 138 57 72 l 57 682 m 338 682 l 496 682 l 496 0 l 340 0 l 340 99 l 338 104 l 338 682 z "},"ū":{"ha":554,"x_min":57,"x_max":496,"o":"m 57 682 l 214 682 l 214 160 q 222 131 214 139 q 253 122 231 122 l 294 122 q 328 133 318 122 q 338 168 338 143 l 338 211 l 344 211 l 344 104 q 317 26 344 51 q 242 0 290 0 l 199 0 q 91 36 125 0 q 57 138 57 72 l 57 682 m 338 682 l 496 682 l 496 0 l 340 0 l 340 99 l 338 104 l 338 682 m 64 767 l 64 876 l 485 876 l 485 767 l 64 767 z "},"ų":{"ha":554,"x_min":57,"x_max":521,"o":"m 57 682 l 214 682 l 214 160 q 222 131 214 139 q 253 122 231 122 l 294 122 q 328 133 318 122 q 338 168 338 143 l 338 211 l 344 211 l 344 104 q 317 26 344 51 q 242 0 290 0 l 199 0 q 91 36 125 0 q 57 138 57 72 l 57 682 m 338 682 l 496 682 l 496 0 l 340 0 l 340 99 l 338 104 l 338 682 m 247 -154 q 277 -62 247 -94 q 379 -29 307 -29 l 496 -29 l 496 -131 l 404 -131 q 375 -137 383 -131 q 367 -165 367 -143 l 367 -197 q 375 -224 367 -217 q 404 -231 383 -231 l 521 -231 l 521 -332 l 379 -332 q 277 -299 307 -332 q 247 -207 247 -267 l 247 -154 m 496 -35 l 389 -35 l 389 17 l 496 17 l 496 -35 z "},"ů":{"ha":554,"x_min":57,"x_max":496,"o":"m 57 682 l 214 682 l 214 160 q 222 131 214 139 q 253 122 231 122 l 294 122 q 328 133 318 122 q 338 168 338 143 l 338 211 l 344 211 l 344 104 q 317 26 344 51 q 242 0 290 0 l 199 0 q 91 36 125 0 q 57 138 57 72 l 57 682 m 338 682 l 496 682 l 496 0 l 340 0 l 340 99 l 338 104 l 338 682 m 444 860 l 444 836 q 419 759 444 786 q 332 732 393 732 l 232 732 q 145 759 171 732 q 119 836 119 786 l 119 860 q 145 938 119 911 q 232 965 171 965 l 332 965 q 419 938 393 965 q 444 860 444 911 m 340 842 l 340 854 q 334 881 340 874 q 306 888 328 888 l 258 888 q 230 881 236 888 q 224 854 224 874 l 224 842 q 230 817 224 824 q 258 810 236 810 l 306 810 q 334 817 328 810 q 340 842 340 824 z "},"v":{"ha":497,"x_min":4,"x_max":493,"o":"m 161 682 l 249 147 l 336 682 l 493 682 l 353 0 l 144 0 l 4 682 l 161 682 z "},"w":{"ha":810,"x_min":7,"x_max":803,"o":"m 656 682 l 803 682 l 669 0 l 485 0 l 403 482 l 321 0 l 136 0 l 7 682 l 154 682 l 233 150 l 322 682 l 488 682 l 571 151 l 656 682 z "},"x":{"ha":517,"x_min":7,"x_max":514,"o":"m 343 350 l 514 0 l 351 0 l 257 226 l 167 0 l 7 0 l 171 349 l 11 682 l 178 682 l 258 469 l 336 682 l 497 682 l 343 350 z "},"y":{"ha":524,"x_min":8,"x_max":517,"o":"m 8 682 l 171 682 l 268 157 l 358 682 l 517 682 l 364 -42 q 303 -151 347 -112 q 175 -189 258 -189 l 82 -189 l 82 -68 l 153 -68 q 201 -58 182 -68 q 228 -19 219 -49 l 239 25 l 164 25 l 8 682 z "},"ý":{"ha":524,"x_min":8,"x_max":517,"o":"m 8 682 l 171 682 l 268 157 l 358 682 l 517 682 l 364 -42 q 303 -151 347 -112 q 175 -189 258 -189 l 82 -189 l 82 -68 l 153 -68 q 201 -58 182 -68 q 228 -19 219 -49 l 239 25 l 164 25 l 8 682 m 201 726 l 321 917 l 489 917 l 332 726 l 201 726 z "},"ÿ":{"ha":546,"x_min":8,"x_max":517,"o":"m 40 751 l 40 897 l 201 897 l 201 751 l 40 751 m 324 751 l 324 897 l 485 897 l 485 751 l 324 751 m 8 682 l 171 682 l 268 157 l 358 682 l 517 682 l 364 -42 q 303 -151 347 -112 q 175 -189 258 -189 l 82 -189 l 82 -68 l 153 -68 q 201 -58 182 -68 q 228 -19 219 -49 l 239 25 l 164 25 l 8 682 z "},"z":{"ha":446,"x_min":18,"x_max":428,"o":"m 422 682 l 422 564 l 33 564 l 33 682 l 422 682 m 257 564 l 422 564 l 181 118 l 18 118 l 257 564 m 428 118 l 428 0 l 18 0 l 18 118 l 428 118 z "},"ź":{"ha":446,"x_min":18,"x_max":454,"o":"m 422 682 l 422 564 l 33 564 l 33 682 l 422 682 m 257 564 l 422 564 l 181 118 l 18 118 l 257 564 m 428 118 l 428 0 l 18 0 l 18 118 l 428 118 m 167 726 l 286 917 l 454 917 l 297 726 l 167 726 z "},"ž":{"ha":446,"x_min":0,"x_max":457,"o":"m 422 682 l 422 564 l 33 564 l 33 682 l 422 682 m 257 564 l 422 564 l 181 118 l 18 118 l 257 564 m 428 118 l 428 0 l 18 0 l 18 118 l 428 118 m 147 726 l 0 917 l 156 917 l 228 810 l 301 917 l 457 917 l 310 726 l 147 726 z "},"ż":{"ha":446,"x_min":18,"x_max":428,"o":"m 422 682 l 422 564 l 33 564 l 33 682 l 422 682 m 257 564 l 422 564 l 181 118 l 18 118 l 257 564 m 428 118 l 428 0 l 18 0 l 18 118 l 428 118 m 147 749 l 147 894 l 317 894 l 317 749 l 147 749 z "},"ﬁ":{"ha":576,"x_min":10,"x_max":518,"o":"m 518 0 l 361 0 l 361 682 l 518 682 l 518 0 m 235 769 l 235 0 l 79 0 l 79 792 q 115 893 79 857 q 229 929 150 929 l 300 929 l 300 807 l 274 807 q 243 799 251 807 q 235 769 235 792 m 458 682 l 458 560 l 10 560 l 10 682 l 458 682 m 361 807 l 361 929 l 518 929 l 518 807 l 361 807 z "},"ﬂ":{"ha":576,"x_min":10,"x_max":518,"o":"m 235 769 l 235 0 l 79 0 l 79 792 q 115 893 79 857 q 229 929 150 929 l 300 929 l 300 807 l 274 807 q 243 799 251 807 q 235 769 235 792 m 458 682 l 458 560 l 10 560 l 10 682 l 458 682 m 518 0 l 363 0 l 363 929 l 518 929 l 518 0 z "},"ª":{"ha":389,"x_min":35,"x_max":347,"o":"m 136 621 l 35 621 l 35 779 q 59 851 35 826 q 136 876 83 876 l 181 876 q 234 858 217 876 q 251 803 251 839 l 251 732 l 246 732 l 246 760 q 215 792 246 792 l 164 792 q 142 786 149 792 q 136 765 136 781 l 136 621 m 347 394 l 246 394 l 246 800 l 247 804 l 247 876 l 347 876 l 347 394 m 35 650 l 136 650 l 136 507 q 142 486 136 492 q 164 481 149 481 l 215 481 q 239 488 232 481 q 246 514 246 496 l 246 539 l 251 539 l 251 468 q 235 413 251 432 q 183 394 219 394 l 136 394 q 59 420 83 394 q 35 492 35 446 l 35 650 z "},"º":{"ha":378,"x_min":36,"x_max":343,"o":"m 242 572 l 242 775 q 235 796 242 790 q 213 801 229 801 l 193 801 l 193 876 l 238 876 q 319 851 294 876 q 343 779 343 826 l 343 572 l 242 572 m 242 496 l 242 606 l 343 606 l 343 492 q 319 420 343 446 q 238 394 294 394 l 189 394 l 189 469 l 213 469 q 235 475 229 469 q 242 496 242 481 m 138 775 l 138 572 l 36 572 l 36 779 q 60 851 36 826 q 140 876 85 876 l 204 876 l 204 801 l 165 801 q 143 796 149 801 q 138 775 138 790 m 138 608 l 138 496 q 143 475 138 481 q 165 469 149 469 l 203 469 l 203 394 l 140 394 q 60 420 85 394 q 36 492 36 446 l 36 608 l 138 608 z "},"अ":{"ha":835,"x_min":54,"x_max":863,"o":"m 611 876 l 768 876 l 768 0 l 611 0 l 611 876 m 343 494 l 676 494 l 676 381 l 400 381 l 343 494 m 713 876 l 863 876 l 863 761 l 713 761 l 713 876 m 340 879 q 455 845 422 879 q 488 746 488 811 l 488 565 q 472 514 488 531 q 431 494 457 497 l 431 490 q 472 471 457 488 q 488 419 488 454 l 488 242 q 455 142 488 176 q 340 108 422 108 l 201 108 q 88 142 121 108 q 54 242 54 176 l 54 367 l 213 367 l 213 260 q 221 231 213 238 q 250 224 229 224 l 292 224 q 322 231 314 224 q 331 260 331 238 l 331 393 q 322 426 331 417 q 289 435 313 435 l 217 435 l 217 549 l 289 549 q 322 558 313 549 q 331 590 331 567 l 331 728 q 322 757 331 750 q 292 764 314 764 l 250 764 q 221 757 229 764 q 213 728 213 750 l 213 628 l 54 628 l 54 746 q 88 845 54 811 q 201 879 121 879 l 340 879 z "},"आ":{"ha":1128,"x_min":54,"x_max":1154,"o":"m 611 876 l 768 876 l 768 0 l 611 0 l 611 876 m 343 494 l 676 494 l 676 381 l 400 381 l 343 494 m 713 876 l 863 876 l 863 761 l 713 761 l 713 876 m 340 879 q 455 845 422 879 q 488 746 488 811 l 488 565 q 472 514 488 531 q 431 494 457 497 l 431 490 q 472 471 457 488 q 488 419 488 454 l 488 242 q 455 142 488 176 q 340 108 422 108 l 201 108 q 88 142 121 108 q 54 242 54 176 l 54 367 l 213 367 l 213 260 q 221 231 213 238 q 250 224 229 224 l 292 224 q 322 231 314 224 q 331 260 331 238 l 331 393 q 322 426 331 417 q 289 435 313 435 l 217 435 l 217 549 l 289 549 q 322 558 313 549 q 331 590 331 567 l 331 728 q 322 757 331 750 q 292 764 314 764 l 250 764 q 221 757 229 764 q 213 728 213 750 l 213 628 l 54 628 l 54 746 q 88 845 54 811 q 201 879 121 879 l 340 879 m 903 790 l 1060 790 l 1060 0 l 903 0 l 903 790 m 808 876 l 1154 876 l 1154 761 l 808 761 l 808 876 z "},"ा":{"ha":293,"x_min":-26,"x_max":319,"o":"m 68 790 l 225 790 l 225 0 l 68 0 l 68 790 m -26 876 l 319 876 l 319 761 l -26 761 l -26 876 z "},"ऐ":{"ha":606,"x_min":-28,"x_max":633,"o":"m 67 797 l 225 797 l 225 146 q 233 116 225 124 q 263 108 242 108 l 353 108 q 379 116 372 108 q 386 146 386 124 l 386 289 l 544 289 l 544 126 q 512 31 544 63 q 397 0 479 0 l 214 0 q 100 31 133 0 q 67 126 67 63 l 67 797 m 389 797 l 547 797 l 547 511 q 514 416 547 447 q 400 385 481 385 l 297 385 l 297 500 l 351 500 q 381 507 374 500 q 389 536 389 514 l 389 797 m -28 876 l 633 876 l 633 761 l -28 761 l -28 876 m 347 1147 l 546 864 l 392 864 q 322 934 357 893 q 246 1026 286 975 l 158 1147 l 347 1147 z "},"औ":{"ha":1128,"x_min":54,"x_max":1154,"o":"m 574 1147 l 767 1147 l 826 1078 q 910 974 878 1017 q 972 885 943 931 l 978 885 q 937 970 954 928 q 894 1068 919 1013 l 863 1147 l 1014 1147 l 1058 867 l 906 867 q 868 892 889 878 q 820 928 847 906 q 754 985 793 950 l 574 1147 m 611 876 l 768 876 l 768 0 l 611 0 l 611 876 m 343 494 l 676 494 l 676 381 l 400 381 l 343 494 m 713 876 l 863 876 l 863 761 l 713 761 l 713 876 m 340 879 q 455 845 422 879 q 488 746 488 811 l 488 565 q 472 514 488 531 q 431 494 457 497 l 431 490 q 472 471 457 488 q 488 419 488 454 l 488 242 q 455 142 488 176 q 340 108 422 108 l 201 108 q 88 142 121 108 q 54 242 54 176 l 54 367 l 213 367 l 213 260 q 221 231 213 238 q 250 224 229 224 l 292 224 q 322 231 314 224 q 331 260 331 238 l 331 393 q 322 426 331 417 q 289 435 313 435 l 217 435 l 217 549 l 289 549 q 322 558 313 549 q 331 590 331 567 l 331 728 q 322 757 331 750 q 292 764 314 764 l 250 764 q 221 757 229 764 q 213 728 213 750 l 213 628 l 54 628 l 54 746 q 88 845 54 811 q 201 879 121 879 l 340 879 m 903 790 l 1060 790 l 1060 0 l 903 0 l 903 790 m 808 876 l 1154 876 l 1154 761 l 808 761 l 808 876 z "},"ौ":{"ha":293,"x_min":-261,"x_max":319,"o":"m 68 790 l 225 790 l 225 0 l 68 0 l 68 790 m -26 876 l 319 876 l 319 761 l -26 761 l -26 876 m -261 1147 l -68 1147 l -8 1078 q 76 974 43 1017 q 138 885 108 931 l 143 885 q 102 970 119 928 q 60 1068 85 1013 l 28 1147 l 179 1147 l 224 867 l 71 867 q 33 892 54 878 q -15 928 13 906 q -81 985 -42 950 l -261 1147 z "},"ए":{"ha":606,"x_min":-28,"x_max":633,"o":"m 67 797 l 225 797 l 225 146 q 233 116 225 124 q 263 108 242 108 l 353 108 q 379 116 372 108 q 386 146 386 124 l 386 289 l 544 289 l 544 126 q 512 31 544 63 q 397 0 479 0 l 214 0 q 100 31 133 0 q 67 126 67 63 l 67 797 m 389 797 l 547 797 l 547 511 q 514 416 547 447 q 400 385 481 385 l 297 385 l 297 500 l 351 500 q 381 507 374 500 q 389 536 389 514 l 389 797 m -28 876 l 633 876 l 633 761 l -28 761 l -28 876 z "},"इ":{"ha":547,"x_min":-28,"x_max":575,"o":"m -28 876 l 575 876 l 575 761 l -28 761 l -28 876 m 56 249 l 214 249 l 214 -37 l 56 -37 l 56 249 m 317 825 l 474 825 l 474 557 l 242 557 q 211 550 219 557 q 203 521 203 543 l 203 475 q 211 446 203 453 q 242 439 219 439 l 346 439 q 460 408 428 439 q 493 311 493 376 l 493 188 q 460 92 493 122 q 346 61 428 61 l 169 61 l 169 169 l 297 169 q 328 177 319 169 q 336 206 336 185 l 336 293 q 328 322 336 315 q 297 329 319 329 l 193 329 q 78 360 111 329 q 46 457 46 392 l 46 539 q 78 635 46 604 q 193 665 111 665 l 317 665 l 317 825 z "},"ि":{"ha":292,"x_min":-28,"x_max":783,"o":"m -28 876 l 319 876 l 319 761 l -28 761 l -28 876 m 67 799 l 225 799 l 225 0 l 67 0 l 67 799 m 647 1157 q 747 1126 711 1157 q 783 1026 783 1096 l 783 932 l 625 932 l 625 996 q 617 1033 625 1025 q 579 1042 610 1042 l 271 1042 q 234 1033 243 1042 q 225 996 225 1025 l 225 863 l 67 863 l 67 1026 q 103 1126 67 1096 q 203 1157 139 1157 l 647 1157 z "},"ई":{"ha":547,"x_min":-28,"x_max":575,"o":"m -28 876 l 575 876 l 575 761 l -28 761 l -28 876 m 56 249 l 214 249 l 214 -37 l 56 -37 l 56 249 m 317 825 l 474 825 l 474 557 l 242 557 q 211 550 219 557 q 203 521 203 543 l 203 475 q 211 446 203 453 q 242 439 219 439 l 346 439 q 460 408 428 439 q 493 311 493 376 l 493 188 q 460 92 493 122 q 346 61 428 61 l 169 61 l 169 169 l 297 169 q 328 177 319 169 q 336 206 336 185 l 336 293 q 328 322 336 315 q 297 329 319 329 l 193 329 q 78 360 111 329 q 46 457 46 392 l 46 539 q 78 635 46 604 q 193 665 111 665 l 317 665 l 317 825 m 571 989 l 513 989 q 482 982 490 989 q 474 953 474 975 l 474 860 l 317 860 l 317 971 q 349 1067 317 1036 q 464 1097 382 1097 l 571 1097 l 571 989 z "},"ी":{"ha":292,"x_min":-243,"x_max":319,"o":"m 319 876 l 319 761 l -28 761 l -28 876 l 319 876 m 225 799 l 225 0 l 67 0 l 67 799 l 225 799 m 89 1157 q 189 1126 153 1157 q 225 1026 225 1096 l 225 863 l 67 863 l 67 996 q 59 1033 67 1025 q 21 1042 51 1042 l -39 1042 q -78 1033 -69 1042 q -86 996 -86 1025 l -86 932 l -243 932 l -243 1026 q -207 1126 -243 1096 q -107 1157 -171 1157 l 89 1157 z "},"ऌ":{"ha":832,"x_min":-28,"x_max":860,"o":"m -28 876 l 860 876 l 860 761 l -28 761 l -28 876 m 343 665 q 394 651 378 665 q 414 608 411 636 l 418 608 q 438 651 422 636 q 489 665 454 665 l 642 665 l 642 551 l 532 551 q 501 543 508 551 q 493 513 493 535 l 493 274 l 336 274 l 336 513 q 329 543 336 535 q 297 551 322 551 l 256 551 q 225 544 233 551 q 217 513 217 536 l 217 154 q 225 124 217 132 q 256 117 233 117 l 310 117 l 310 0 l 207 0 q 92 31 125 0 q 60 126 60 63 l 60 526 q 95 633 60 600 q 201 665 131 665 l 343 665 m 613 796 l 769 796 l 769 54 l 656 54 q 625 47 633 54 q 617 18 617 40 l 617 -31 q 625 -59 617 -51 q 656 -67 633 -67 l 839 -67 l 839 -181 l 607 -181 q 492 -150 525 -181 q 460 -54 460 -119 l 460 36 q 492 133 460 101 q 604 164 525 164 l 613 164 l 613 796 z "},"ॡ":{"ha":832,"x_min":-28,"x_max":860,"o":"m -28 876 l 860 876 l 860 761 l -28 761 l -28 876 m 343 665 q 394 651 378 665 q 414 608 411 636 l 418 608 q 438 651 422 636 q 489 665 454 665 l 642 665 l 642 551 l 532 551 q 501 543 508 551 q 493 513 493 535 l 493 328 l 336 328 l 336 513 q 329 543 336 535 q 297 551 322 551 l 256 551 q 225 544 233 551 q 217 513 217 536 l 217 154 q 225 124 217 132 q 256 117 233 117 l 310 117 l 310 0 l 207 0 q 92 31 125 0 q 60 126 60 63 l 60 526 q 95 633 60 600 q 201 665 131 665 l 343 665 m 501 192 q 538 285 501 257 q 638 313 574 313 l 769 313 l 769 197 l 697 197 q 667 190 675 197 q 658 158 658 183 l 658 117 q 667 85 658 93 q 697 78 675 78 l 763 78 l 763 -37 l 697 -37 q 667 -45 675 -37 q 658 -76 658 -53 l 658 -119 q 667 -151 658 -143 q 697 -158 675 -158 l 833 -158 l 833 -272 l 661 -272 q 541 -240 581 -272 q 501 -133 501 -208 l 501 -54 q 517 -3 501 -19 q 558 17 532 14 l 558 21 q 517 40 532 24 q 501 92 501 57 l 501 192 m 613 785 l 769 785 l 769 267 l 613 267 l 613 785 z "},"ओ":{"ha":1126,"x_min":54,"x_max":1154,"o":"m 868 1147 l 1067 864 l 913 864 q 842 934 878 893 q 767 1026 807 975 l 679 1147 l 868 1147 m 611 876 l 768 876 l 768 0 l 611 0 l 611 876 m 343 494 l 676 494 l 676 381 l 400 381 l 343 494 m 713 876 l 863 876 l 863 761 l 713 761 l 713 876 m 340 879 q 455 845 422 879 q 488 746 488 811 l 488 565 q 472 514 488 531 q 431 494 457 497 l 431 490 q 472 471 457 488 q 488 419 488 454 l 488 242 q 455 142 488 176 q 340 108 422 108 l 201 108 q 88 142 121 108 q 54 242 54 176 l 54 367 l 213 367 l 213 260 q 221 231 213 238 q 250 224 229 224 l 292 224 q 322 231 314 224 q 331 260 331 238 l 331 393 q 322 426 331 417 q 289 435 313 435 l 217 435 l 217 549 l 289 549 q 322 558 313 549 q 331 590 331 567 l 331 728 q 322 757 331 750 q 292 764 314 764 l 250 764 q 221 757 229 764 q 213 728 213 750 l 213 628 l 54 628 l 54 746 q 88 845 54 811 q 201 879 121 879 l 340 879 m 903 790 l 1060 790 l 1060 0 l 903 0 l 903 790 m 808 876 l 1154 876 l 1154 761 l 808 761 l 808 876 z "},"ॉ":{"ha":293,"x_min":-107,"x_max":400,"o":"m 68 790 l 225 790 l 225 0 l 68 0 l 68 790 m -26 876 l 319 876 l 319 761 l -26 761 l -26 876 m -107 1157 l 28 1157 l 28 1082 q 37 1050 28 1058 q 69 1042 46 1042 l 222 1042 q 256 1050 247 1042 q 264 1082 264 1058 l 264 1157 l 400 1157 l 400 1065 q 365 974 400 1004 q 244 943 329 943 l 47 943 q -72 974 -36 943 q -107 1065 -107 1004 l -107 1157 z "},"ो":{"ha":293,"x_min":-164,"x_max":319,"o":"m 68 790 l 225 790 l 225 0 l 68 0 l 68 790 m -26 876 l 319 876 l 319 761 l -26 761 l -26 876 m 26 1147 l 225 864 l 71 864 q 1 934 36 893 q -75 1026 -35 975 l -162 1147 l 26 1147 z "},"ऋ":{"ha":1106,"x_min":-28,"x_max":1129,"o":"m 561 804 l 561 0 l 404 0 l 404 804 l 561 804 m -28 876 l 1129 876 l 1129 761 l -28 761 l -28 876 m 106 663 q 185 653 154 663 q 238 624 217 644 q 279 569 260 604 l 415 333 l 199 0 l 19 0 l 274 392 l 256 293 l 156 474 q 113 530 133 514 q 51 546 92 546 l 13 546 l 13 663 l 106 663 m 897 521 q 890 550 897 542 q 860 558 882 558 l 844 558 q 815 550 822 558 q 808 521 808 542 l 808 414 q 815 385 808 393 q 844 376 822 376 l 860 376 q 890 385 882 376 q 897 414 897 393 l 897 521 m 1054 -92 l 815 -92 q 708 -61 740 -92 q 676 28 676 -31 l 676 86 q 705 174 676 143 q 797 206 733 206 l 818 206 l 729 268 l 314 268 l 314 376 l 761 376 l 743 350 q 673 374 696 354 q 650 439 650 393 l 650 528 q 686 632 650 599 q 810 665 722 665 l 894 665 q 1018 632 982 665 q 1054 528 1054 599 l 1054 424 q 1018 319 1054 353 q 894 285 982 285 l 883 285 l 1004 206 l 1004 97 l 863 97 q 840 91 847 97 q 833 69 833 85 l 833 43 q 840 22 833 28 q 863 15 847 15 l 1054 15 l 1054 -92 z "},"ॠ":{"ha":1114,"x_min":-28,"x_max":1150,"o":"m 576 804 l 576 0 l 419 0 l 419 804 l 576 804 m -28 876 l 1150 876 l 1150 761 l -28 761 l -28 876 m 121 663 q 201 653 169 663 q 253 624 232 644 q 294 569 275 604 l 431 333 l 214 0 l 35 0 l 289 392 l 271 293 l 171 474 q 128 530 149 514 q 67 546 107 546 l 28 546 l 28 663 l 121 663 m 918 521 q 911 550 918 542 q 882 558 904 558 l 865 558 q 837 550 844 558 q 829 521 829 542 l 829 414 q 837 385 829 393 q 865 376 844 376 l 882 376 q 911 385 904 376 q 918 414 918 393 l 918 521 m 915 665 q 1039 632 1003 665 q 1075 528 1075 599 l 1075 407 q 1039 302 1075 336 q 915 268 1003 268 l 864 268 q 838 261 846 268 q 829 229 829 254 l 829 188 q 838 156 829 164 q 867 149 846 149 l 929 149 l 929 33 l 867 33 q 838 26 846 33 q 829 -6 829 18 l 829 -49 q 838 -79 829 -71 q 867 -87 846 -87 l 999 -87 l 999 -201 l 832 -201 q 711 -169 750 -201 q 672 -62 672 -136 l 672 17 q 688 68 672 51 q 729 88 703 85 l 729 92 q 688 113 703 96 q 672 163 672 129 l 672 229 q 700 280 672 268 q 774 288 728 292 l 785 268 l 329 268 l 329 376 l 783 376 l 764 350 q 695 374 718 354 q 672 439 672 393 l 672 528 q 708 632 672 599 q 832 665 743 665 l 915 665 z "},"उ":{"ha":540,"x_min":-28,"x_max":563,"o":"m -28 876 l 563 876 l 563 761 l -28 761 l -28 876 m 467 564 q 452 513 467 529 q 410 493 438 496 l 410 488 q 452 469 438 485 q 467 418 467 453 l 467 126 q 434 31 467 63 q 319 0 401 0 l 179 0 q 65 31 97 0 q 32 126 32 63 l 32 296 l 189 296 l 189 146 q 197 116 189 124 q 224 108 204 108 l 271 108 q 301 116 293 108 q 310 146 310 124 l 310 392 q 301 424 310 417 q 271 431 293 431 l 178 431 l 178 546 l 271 546 q 301 553 293 546 q 310 585 310 561 l 310 715 q 300 753 310 744 q 253 761 290 761 l 372 785 q 442 774 417 785 q 467 725 467 763 l 467 564 z "},"ऑ":{"ha":1128,"x_min":54,"x_max":1235,"o":"m 1099 1082 l 1099 1082 l 1099 1157 l 1235 1157 l 1235 1065 q 1199 973 1235 1003 q 1081 943 1163 943 l 882 943 q 765 973 801 943 q 728 1065 728 1003 l 728 1157 l 864 1157 l 864 1082 q 872 1050 864 1058 q 904 1042 881 1042 l 1058 1042 q 1090 1050 1082 1042 q 1099 1082 1099 1058 m 611 876 l 611 876 l 1154 876 l 1154 761 l 1060 761 l 1060 0 l 903 0 l 903 761 l 768 761 l 768 0 l 611 0 l 611 381 l 488 381 l 488 242 q 453 142 488 175 q 340 108 419 108 l 201 108 q 88 142 122 108 q 54 242 54 175 l 54 367 l 213 367 l 213 260 q 220 231 213 238 q 250 224 228 224 l 292 224 q 322 231 314 224 q 331 260 331 238 l 331 393 q 322 426 331 417 q 289 435 313 435 l 217 435 l 217 549 l 289 549 q 322 558 313 549 q 331 590 331 568 l 331 728 q 322 757 331 750 q 292 764 314 764 l 250 764 q 220 757 228 764 q 213 728 213 750 l 213 628 l 54 628 l 54 746 q 88 846 54 813 q 201 879 122 879 l 340 879 q 453 846 419 879 q 488 746 488 813 l 488 565 q 439 494 488 506 l 611 494 l 611 876 z "},"ऊ":{"ha":768,"x_min":-28,"x_max":796,"o":"m 592 488 q 698 455 663 488 q 733 349 733 422 l 733 126 q 700 31 733 63 q 586 0 667 0 l 514 0 l 514 115 l 538 115 q 567 122 560 115 q 575 151 575 129 l 575 335 q 567 366 575 358 q 538 374 560 374 l 363 374 l 363 488 l 592 488 m 796 876 l 796 761 l -28 761 l -28 876 l 796 876 m 467 564 q 452 513 467 529 q 410 493 438 496 l 410 488 q 452 469 438 485 q 467 418 467 453 l 467 126 q 434 31 467 63 q 319 0 401 0 l 179 0 q 65 31 97 0 q 32 126 32 63 l 32 296 l 189 296 l 189 146 q 197 116 189 124 q 224 108 204 108 l 271 108 q 301 116 293 108 q 310 146 310 124 l 310 392 q 301 424 310 417 q 271 431 293 431 l 178 431 l 178 546 l 271 546 q 301 553 293 546 q 310 585 310 561 l 310 715 q 300 753 310 744 q 253 761 290 761 l 372 785 q 442 774 417 785 q 467 725 467 763 l 467 564 z "},"ब":{"ha":651,"x_min":-28,"x_max":679,"o":"m -28 876 l 679 876 l 679 761 l -28 761 l -28 876 m 369 665 l 369 557 l 267 557 l 351 417 q 390 355 371 386 q 422 303 410 324 q 435 283 435 283 q 433 299 435 283 q 428 353 431 315 q 426 451 426 390 l 426 824 l 583 824 l 583 0 l 426 0 l 426 139 l 435 158 l 292 379 q 247 460 267 425 q 215 510 226 496 l 215 263 q 224 231 215 239 q 253 224 232 224 l 396 224 q 428 233 418 224 q 438 264 438 242 l 454 188 q 439 127 454 146 q 379 108 424 108 l 199 108 q 93 141 129 108 q 57 247 57 174 l 57 539 q 90 635 57 604 q 204 665 124 665 l 369 665 z "},"भ":{"ha":861,"x_min":60,"x_max":889,"o":"m 636 801 l 794 801 l 794 0 l 636 0 l 636 801 m 636 876 l 889 876 l 889 761 l 636 761 l 636 876 m 354 879 q 468 845 435 879 q 501 746 501 811 l 501 247 q 465 141 501 174 q 342 108 428 108 l 219 108 q 97 141 133 108 q 60 247 60 174 l 60 454 q 92 549 60 518 q 207 581 125 581 l 711 581 l 711 465 l 256 465 q 225 458 233 465 q 217 429 217 451 l 217 263 q 226 231 217 239 q 257 224 235 224 l 304 224 q 335 231 326 224 q 343 263 343 239 l 343 728 q 335 757 343 750 q 306 764 328 764 l 267 764 q 238 757 246 764 q 229 728 229 750 l 229 668 l 71 668 l 71 746 q 104 845 71 811 q 218 879 138 879 l 354 879 z "},"च":{"ha":606,"x_min":-29,"x_max":633,"o":"m -29 876 l 633 876 l 633 761 l -29 761 l -29 876 m 381 824 l 538 824 l 538 0 l 381 0 l 381 824 m -3 665 l 321 665 l 321 551 l -3 551 l -3 665 m 79 497 q 110 561 79 549 q 192 572 142 574 l 299 551 q 261 549 275 551 q 242 540 247 547 q 238 513 238 532 l 238 263 q 246 231 238 239 q 275 224 254 224 l 340 224 q 372 233 363 224 q 381 264 381 242 l 397 188 q 382 127 397 146 q 324 108 367 108 l 221 108 q 115 141 151 108 q 79 247 79 174 l 79 497 z "},"छ":{"ha":818,"x_min":-28,"x_max":846,"o":"m -28 876 l 846 876 l 846 761 l -28 761 l -28 876 m 492 797 l 639 797 l 639 632 l 492 632 l 492 797 m 64 725 q 94 776 64 768 q 175 783 124 785 l 289 760 q 234 756 247 763 q 221 717 221 749 l 221 529 q 229 499 221 507 q 260 490 238 490 l 308 490 l 308 376 l 260 376 q 229 369 238 376 q 221 338 221 361 l 221 156 q 229 124 221 132 q 260 117 238 117 l 564 117 q 594 124 586 117 q 603 156 603 132 l 603 526 q 594 556 603 549 q 564 563 586 563 l 539 563 q 510 556 518 563 q 501 526 501 549 l 501 399 q 510 370 501 378 q 539 363 518 363 l 561 363 l 561 260 l 508 260 q 408 288 443 260 q 372 386 372 317 l 372 539 q 410 637 372 608 q 521 665 447 665 l 607 665 q 719 637 682 665 q 756 539 756 608 l 756 139 q 717 33 756 65 q 596 0 678 0 l 224 0 q 103 33 142 0 q 64 139 64 65 l 64 360 q 79 411 64 394 q 121 431 94 428 l 121 435 q 79 454 94 438 q 64 506 64 471 l 64 725 z "},"द":{"ha":560,"x_min":-36,"x_max":588,"o":"m -36 876 l 588 876 l 588 761 l -36 761 l -36 876 m 335 814 l 492 814 l 492 551 l 256 551 q 226 544 235 551 q 217 513 217 536 l 217 263 q 225 231 217 239 q 254 224 233 224 l 300 224 q 331 233 322 224 q 340 264 340 242 l 357 188 q 342 127 357 146 q 283 108 328 108 l 218 108 q 95 141 132 108 q 58 247 58 174 l 58 539 q 92 635 58 604 q 206 665 125 665 l 335 665 l 335 814 m 340 385 l 497 385 l 497 0 l 340 0 l 340 385 z "},"ड":{"ha":560,"x_min":-28,"x_max":588,"o":"m -28 876 l 588 876 l 588 761 l -28 761 l -28 876 m 310 825 l 467 825 l 467 557 l 263 557 q 233 550 242 557 q 225 521 225 543 l 225 451 q 233 423 225 431 q 263 415 242 415 l 342 415 q 456 385 424 415 q 489 289 489 354 l 489 126 q 456 31 489 63 q 342 0 424 0 l 201 0 q 88 31 121 0 q 54 126 54 63 l 54 225 l 213 225 l 213 146 q 220 116 213 124 q 246 108 228 108 l 293 108 q 324 116 315 108 q 332 146 332 124 l 332 271 q 324 300 332 293 q 293 307 315 307 l 214 307 q 101 338 133 307 q 68 433 68 369 l 68 539 q 101 635 68 604 q 214 665 133 665 l 310 665 l 310 825 z "},"ड़":{"ha":560,"x_min":-28,"x_max":588,"o":"m -28 876 l 588 876 l 588 761 l -28 761 l -28 876 m 310 825 l 467 825 l 467 557 l 263 557 q 233 550 242 557 q 225 521 225 543 l 225 451 q 233 423 225 431 q 263 415 242 415 l 342 415 q 456 385 424 415 q 489 289 489 354 l 489 126 q 456 31 489 63 q 342 0 424 0 l 201 0 q 88 31 121 0 q 54 126 54 63 l 54 225 l 213 225 l 213 146 q 220 116 213 124 q 246 108 228 108 l 293 108 q 324 116 315 108 q 332 146 332 124 l 332 271 q 324 300 332 293 q 293 307 315 307 l 214 307 q 101 338 133 307 q 68 433 68 369 l 68 539 q 101 635 68 604 q 214 665 133 665 l 310 665 l 310 825 m 204 -82 l 336 -82 l 336 -228 l 204 -228 l 204 -82 z "},"ढ":{"ha":610,"x_min":-28,"x_max":638,"o":"m -28 876 l 638 876 l 638 761 l -28 761 l -28 876 m 336 814 l 493 814 l 493 551 l 264 551 q 234 544 243 551 q 225 513 225 536 l 225 154 q 234 123 225 131 q 264 115 243 115 l 351 115 q 382 123 374 115 q 390 154 390 131 l 390 253 q 382 283 390 276 q 351 290 374 290 l 292 290 l 292 406 l 389 406 q 511 373 474 406 q 549 267 549 340 l 549 139 q 511 33 549 65 q 389 0 474 0 l 226 0 q 103 33 140 0 q 67 139 67 65 l 67 539 q 100 635 67 604 q 214 665 133 665 l 336 665 l 336 814 z "},"ध":{"ha":715,"x_min":86,"x_max":747,"o":"m 494 876 l 747 876 l 747 761 l 496 761 l 494 876 m 496 822 l 653 822 l 653 0 l 496 0 l 496 822 m 244 575 q 253 544 244 551 q 282 536 261 536 l 378 536 l 378 421 l 282 421 q 253 414 261 421 q 244 383 244 407 l 244 263 q 253 231 244 239 q 282 224 261 224 l 449 224 q 486 234 476 224 q 496 271 496 244 l 513 182 q 496 126 513 144 q 440 108 479 108 l 228 108 q 121 139 156 108 q 86 235 86 169 l 86 406 q 102 456 86 440 q 144 475 118 472 l 144 481 q 102 500 118 483 q 86 551 86 517 l 86 757 q 121 853 86 822 q 228 883 156 883 l 288 883 q 394 853 360 883 q 428 757 428 822 l 428 675 l 332 675 l 332 732 q 324 761 332 754 q 294 768 317 768 l 282 768 q 253 761 261 768 q 244 732 244 754 l 244 575 z "},"फ़":{"ha":836,"x_min":-28,"x_max":864,"o":"m 347 822 l 504 822 l 504 0 l 347 0 l 347 822 m 61 821 l 219 821 l 219 263 q 228 231 219 239 q 257 224 236 224 l 307 224 q 338 233 329 224 q 347 264 347 242 l 364 188 q 349 127 364 146 q 289 108 333 108 l 203 108 q 97 141 133 108 q 61 247 61 174 l 61 821 m 647 665 q 753 633 718 665 q 789 526 789 600 l 789 235 q 756 140 789 171 q 643 108 724 108 l 561 108 l 561 217 l 593 217 q 624 224 615 217 q 632 254 632 232 l 632 513 q 624 544 632 536 q 593 551 615 551 l 544 551 q 514 542 524 551 q 504 510 504 533 l 488 586 q 503 647 488 629 q 561 665 518 665 l 647 665 m -28 876 l 864 876 l 864 761 l -28 761 l -28 876 m 129 0 l 261 0 l 261 -146 l 129 -146 l 129 0 z "},"ग":{"ha":842,"x_min":-28,"x_max":869,"o":"m 617 815 l 775 815 l 775 0 l 617 0 l 617 815 m -28 876 l 869 876 l 869 761 l -28 761 l -28 876 m 329 800 l 488 800 l 488 247 q 451 141 488 174 q 328 108 414 108 l 204 108 q 81 141 118 108 q 44 247 44 174 l 44 488 q 86 588 44 557 q 215 619 128 619 l 379 619 l 379 504 l 244 504 q 210 497 218 504 q 201 461 201 489 l 201 263 q 210 231 201 239 q 242 224 219 224 l 290 224 q 321 231 313 224 q 329 263 329 239 l 329 800 z "},"घ":{"ha":649,"x_min":-28,"x_max":676,"o":"m 61 722 q 92 774 61 764 q 172 783 122 783 l 288 761 q 244 759 260 761 q 224 747 229 757 q 219 717 219 738 l 219 588 q 228 556 219 564 q 257 549 236 549 l 331 549 l 331 435 l 257 435 q 228 427 236 435 q 219 396 219 419 l 219 263 q 228 231 219 239 q 257 224 236 224 l 376 224 q 414 234 404 224 q 424 271 424 244 l 442 182 q 425 126 442 144 q 369 108 408 108 l 222 108 q 101 141 140 108 q 61 247 61 174 l 61 418 q 77 469 61 453 q 119 488 93 486 l 119 493 q 77 513 93 496 q 61 564 61 529 l 61 722 m -28 876 l 676 876 l 676 761 l -28 761 l -28 876 m 424 822 l 582 822 l 582 0 l 424 0 l 424 822 z "},"ग़":{"ha":842,"x_min":-28,"x_max":869,"o":"m 617 815 l 775 815 l 775 0 l 617 0 l 617 815 m -28 876 l 869 876 l 869 761 l -28 761 l -28 876 m 329 800 l 488 800 l 488 247 q 451 141 488 174 q 328 108 414 108 l 204 108 q 81 141 118 108 q 44 247 44 174 l 44 488 q 86 588 44 557 q 215 619 128 619 l 379 619 l 379 504 l 244 504 q 210 497 218 504 q 201 461 201 489 l 201 263 q 210 231 201 239 q 242 224 219 224 l 290 224 q 321 231 313 224 q 329 263 329 239 l 329 800 m 196 6 l 328 6 l 328 -140 l 196 -140 l 196 6 z "},"ह":{"ha":581,"x_min":-28,"x_max":617,"o":"m -28 876 l 617 876 l 617 761 l -28 761 l -28 876 m 356 665 l 356 814 l 514 814 l 514 551 l 263 551 q 233 544 242 551 q 225 515 225 536 l 225 474 q 233 445 225 453 q 263 438 242 438 l 361 438 q 484 406 447 438 q 521 299 521 374 l 521 233 l 364 233 l 364 285 q 355 316 364 308 q 324 324 346 324 l 263 324 q 233 316 242 324 q 225 285 225 308 l 225 154 q 233 123 225 131 q 263 115 242 115 l 521 115 l 521 0 l 226 0 q 106 33 146 0 q 67 139 67 65 l 67 307 q 83 358 67 342 q 125 378 99 375 l 125 382 q 83 401 99 385 q 67 453 67 418 l 67 539 q 100 635 67 604 q 214 665 133 665 l 356 665 z "},"ज":{"ha":826,"x_min":-28,"x_max":854,"o":"m 601 810 l 758 810 l 758 0 l 601 0 l 601 810 m -28 876 l 854 876 l 854 761 l -28 761 l -28 876 m 60 665 l 217 665 l 217 263 q 226 231 217 239 q 257 224 235 224 l 294 224 q 325 231 317 224 q 333 263 333 239 l 333 665 l 647 665 l 647 551 l 490 551 l 490 247 q 453 141 490 174 q 331 108 417 108 l 219 108 q 97 141 133 108 q 60 247 60 174 l 60 665 z "},"झ":{"ha":849,"x_min":-40,"x_max":876,"o":"m 56 249 l 214 249 l 214 -37 l 56 -37 l 56 249 m -40 876 l 876 876 l 876 761 l -40 761 l -40 876 m 625 814 l 782 814 l 782 0 l 624 0 l 625 814 m 322 825 l 481 825 l 481 557 l 250 557 q 219 550 228 557 q 211 521 211 543 l 211 475 q 219 446 211 453 q 250 439 228 439 l 650 439 l 650 329 l 433 329 l 485 365 q 497 300 497 340 l 497 188 q 465 92 497 122 q 350 61 432 61 l 167 61 l 167 169 l 301 169 q 332 177 324 169 q 340 206 340 185 l 340 293 q 332 322 340 315 q 301 329 324 329 l 201 329 q 87 360 119 329 q 54 457 54 392 l 54 539 q 87 635 54 604 q 201 665 119 665 l 322 665 l 322 825 z "},"क":{"ha":822,"x_min":-28,"x_max":850,"o":"m 332 822 l 490 822 l 490 0 l 332 0 l 332 822 m 276 665 l 276 557 l 243 557 q 213 550 221 557 q 204 521 204 543 l 204 263 q 213 231 204 239 q 243 224 221 224 l 292 224 q 323 233 314 224 q 332 264 332 242 l 350 188 q 335 127 350 146 q 275 108 319 108 l 189 108 q 83 141 118 108 q 47 247 47 174 l 47 539 q 80 635 47 604 q 194 665 113 665 l 276 665 m 633 665 q 740 633 704 665 q 775 526 775 600 l 775 235 q 742 140 775 171 q 628 108 710 108 l 546 108 l 546 217 l 579 217 q 609 224 601 217 q 617 254 617 232 l 617 513 q 609 544 617 536 q 579 551 601 551 l 531 551 q 499 542 508 551 q 490 510 490 533 l 472 586 q 488 647 472 629 q 547 665 504 665 l 633 665 m -28 876 l 850 876 l 850 761 l -28 761 l -28 876 z "},"ख":{"ha":1024,"x_min":-28,"x_max":1051,"o":"m 801 829 l 956 829 l 956 0 l 801 0 l 801 829 m 753 654 l 753 546 l 714 546 q 683 539 692 546 q 675 510 675 532 l 675 294 q 683 263 675 271 q 714 256 692 256 l 756 256 q 791 265 781 256 q 801 300 801 275 l 815 219 q 800 159 815 178 q 740 140 785 140 l 663 140 q 556 173 592 140 q 521 279 521 206 l 521 528 q 554 624 521 593 q 668 654 588 654 l 753 654 m 61 654 l 219 654 l 219 163 q 228 126 219 136 q 264 117 238 117 l 582 117 l 582 0 l 233 0 q 103 31 144 0 q 61 132 61 63 l 61 654 m -28 876 l 1051 876 l 1051 761 l 403 761 l 417 776 q 449 763 438 774 q 461 725 461 753 l 461 464 q 426 363 461 394 q 311 332 392 332 l 185 332 l 185 447 l 258 447 q 294 456 285 447 q 303 492 303 465 l 303 717 q 294 753 303 744 q 258 761 286 761 l -28 761 l -28 876 z "},"ख़":{"ha":1024,"x_min":-28,"x_max":1051,"o":"m 801 829 l 956 829 l 956 0 l 801 0 l 801 829 m 753 654 l 753 546 l 714 546 q 683 539 692 546 q 675 510 675 532 l 675 294 q 683 263 675 271 q 714 256 692 256 l 756 256 q 791 265 781 256 q 801 300 801 275 l 815 219 q 800 159 815 178 q 740 140 785 140 l 663 140 q 556 173 592 140 q 521 279 521 206 l 521 528 q 554 624 521 593 q 668 654 588 654 l 753 654 m 61 654 l 219 654 l 219 163 q 228 126 219 136 q 264 117 238 117 l 582 117 l 582 0 l 233 0 q 103 31 144 0 q 61 132 61 63 l 61 654 m -28 876 l 1051 876 l 1051 761 l 403 761 l 417 776 q 449 763 438 774 q 461 725 461 753 l 461 464 q 426 363 461 394 q 311 332 392 332 l 185 332 l 185 447 l 258 447 q 294 456 285 447 q 303 492 303 465 l 303 717 q 294 753 303 744 q 258 761 286 761 l -28 761 l -28 876 m 196 -78 l 328 -78 l 328 -224 l 196 -224 l 196 -78 z "},"ल":{"ha":836,"x_min":-28,"x_max":864,"o":"m -28 876 l 864 876 l 864 761 l -28 761 l -28 876 m 351 665 q 402 651 385 665 q 422 608 419 636 l 426 608 q 446 651 429 636 q 496 665 463 665 l 650 665 l 650 551 l 539 551 q 509 543 517 551 q 501 513 501 535 l 501 250 l 344 250 l 344 513 q 337 543 344 535 q 306 551 329 551 l 263 551 q 233 544 242 551 q 225 513 225 536 l 225 154 q 233 124 225 132 q 263 117 242 117 l 342 117 l 342 0 l 214 0 q 101 31 133 0 q 68 126 68 63 l 68 526 q 103 633 68 600 q 208 665 139 665 l 351 665 m 775 0 l 617 0 l 617 796 l 775 796 l 775 0 z "},"ळ":{"ha":853,"x_min":-43,"x_max":896,"o":"m -43 876 l 896 876 l 896 761 l -43 761 l -43 876 m 510 794 l 668 794 l 668 622 l 510 622 l 510 794 m 660 665 q 766 633 731 665 q 801 526 801 600 l 801 247 q 766 141 801 174 q 660 108 731 108 l 513 108 q 431 165 436 108 l 425 165 q 343 108 419 108 l 193 108 q 88 141 124 108 q 51 247 51 174 l 51 526 q 88 633 51 600 q 193 665 124 665 l 343 665 q 425 608 419 665 l 431 608 q 513 665 436 665 l 660 665 m 643 513 q 635 544 643 536 q 606 551 628 551 l 540 551 q 510 543 517 551 q 503 513 503 535 l 503 263 q 510 232 503 240 q 540 224 517 224 l 606 224 q 635 231 628 224 q 643 263 643 239 l 643 513 m 351 513 q 344 543 351 535 q 313 551 336 551 l 247 551 q 218 544 226 551 q 210 513 210 536 l 210 263 q 218 231 210 239 q 247 224 226 224 l 313 224 q 344 232 336 224 q 351 263 351 240 l 351 513 m 197 29 l 329 29 l 329 -117 l 197 -117 l 197 29 z "},"ऴ":{"ha":853,"x_min":-43,"x_max":896,"o":"m -43 876 l 896 876 l 896 761 l -43 761 l -43 876 m 510 794 l 668 794 l 668 622 l 510 622 l 510 794 m 660 665 q 766 633 731 665 q 801 526 801 600 l 801 247 q 766 141 801 174 q 660 108 731 108 l 513 108 q 431 165 436 108 l 425 165 q 343 108 419 108 l 193 108 q 88 141 124 108 q 51 247 51 174 l 51 526 q 88 633 51 600 q 193 665 124 665 l 343 665 q 425 608 419 665 l 431 608 q 513 665 436 665 l 660 665 m 643 513 q 635 544 643 536 q 606 551 628 551 l 540 551 q 510 543 517 551 q 503 513 503 535 l 503 263 q 510 232 503 240 q 540 224 517 224 l 606 224 q 635 231 628 224 q 643 263 643 239 l 643 513 m 351 513 q 344 543 351 535 q 313 551 336 551 l 247 551 q 218 544 226 551 q 210 513 210 536 l 210 263 q 218 231 210 239 q 247 224 226 224 l 313 224 q 344 232 336 224 q 351 263 351 240 l 351 513 m 197 29 l 329 29 l 329 -117 l 197 -117 l 197 29 z "},"म":{"ha":847,"x_min":-28,"x_max":875,"o":"m 329 789 l 488 789 l 488 271 q 451 165 488 197 q 328 132 414 132 l 206 132 q 83 165 119 132 q 46 271 46 197 l 46 474 q 78 569 46 538 q 193 600 111 600 l 697 600 l 697 485 l 231 485 q 200 478 208 485 q 192 449 192 471 l 192 285 q 201 255 192 263 q 232 247 210 247 l 290 247 q 321 255 313 247 q 329 285 329 263 l 329 789 m 622 801 l 781 801 l 781 0 l 622 0 l 622 801 m -28 876 l 875 876 l 875 761 l -28 761 l -28 876 z "},"न":{"ha":803,"x_min":-28,"x_max":831,"o":"m 578 801 l 736 801 l 736 0 l 578 0 l 578 801 m -28 876 l 831 876 l 831 761 l -28 761 l -28 876 m 474 247 q 436 141 474 174 q 313 108 399 108 l 206 108 q 83 141 119 108 q 46 247 46 174 l 46 539 q 78 635 46 604 q 193 665 111 665 l 653 665 l 653 551 l 242 551 q 211 544 219 551 q 203 514 203 536 l 203 263 q 212 231 203 239 q 243 224 221 224 l 276 224 q 307 231 299 224 q 315 263 315 239 l 315 581 l 474 581 l 474 247 z "},"ङ":{"ha":614,"x_min":-28,"x_max":642,"o":"m -28 876 l 642 876 l 642 761 l -28 761 l -28 876 m 310 825 l 467 825 l 467 557 l 263 557 q 233 550 242 557 q 225 521 225 543 l 225 451 q 233 423 225 431 q 263 415 242 415 l 342 415 q 456 385 424 415 q 489 289 489 354 l 489 126 q 456 31 489 63 q 342 0 424 0 l 201 0 q 88 31 121 0 q 54 126 54 63 l 54 225 l 213 225 l 213 146 q 220 116 213 124 q 246 108 228 108 l 293 108 q 324 116 315 108 q 332 146 332 124 l 332 271 q 324 300 332 293 q 293 307 315 307 l 214 307 q 101 338 133 307 q 68 433 68 369 l 68 539 q 101 635 68 604 q 214 665 133 665 l 310 665 l 310 825 m 478 558 l 608 558 l 608 413 l 478 413 l 478 558 z "},"ण":{"ha":832,"x_min":-28,"x_max":860,"o":"m 607 810 l 765 810 l 765 0 l 607 0 l 607 810 m -28 876 l 860 876 l 860 761 l -28 761 l -28 876 m 60 799 l 217 799 l 217 263 q 226 231 217 239 q 257 224 235 224 l 294 224 q 325 231 317 224 q 333 263 333 239 l 333 799 l 490 799 l 490 247 q 453 141 490 174 q 331 108 417 108 l 219 108 q 97 141 133 108 q 60 247 60 174 l 60 799 z "},"ञ":{"ha":814,"x_min":-28,"x_max":842,"o":"m 589 801 l 747 801 l 747 0 l 589 0 l 589 801 m -28 876 l 842 876 l 842 761 l -28 761 l -28 876 m 36 364 l 193 364 l 193 263 q 202 231 193 239 q 232 224 211 224 l 267 224 q 297 231 289 224 q 306 263 306 239 l 306 514 q 297 544 306 536 q 267 551 289 551 l 138 551 l 138 665 l 317 665 q 430 631 397 665 q 463 533 463 597 l 463 247 q 426 141 463 174 q 303 108 389 108 l 196 108 q 73 141 110 108 q 36 247 36 174 l 36 364 m 390 347 l 390 463 l 661 463 l 661 347 l 390 347 z "},"प":{"ha":576,"x_min":-28,"x_max":604,"o":"m -28 876 l 604 876 l 604 761 l -28 761 l -28 876 m 353 824 l 510 824 l 510 0 l 353 0 l 353 824 m 67 821 l 225 821 l 225 263 q 233 231 225 239 q 263 224 242 224 l 311 224 q 344 233 335 224 q 353 264 353 242 l 369 188 q 354 127 369 146 q 294 108 339 108 l 208 108 q 103 141 139 108 q 67 247 67 174 l 67 821 z "},"फ":{"ha":836,"x_min":-28,"x_max":864,"o":"m 347 822 l 504 822 l 504 0 l 347 0 l 347 822 m 61 821 l 219 821 l 219 263 q 228 231 219 239 q 257 224 236 224 l 307 224 q 338 233 329 224 q 347 264 347 242 l 364 188 q 349 127 364 146 q 289 108 333 108 l 203 108 q 97 141 133 108 q 61 247 61 174 l 61 821 m 647 665 q 753 633 718 665 q 789 526 789 600 l 789 235 q 756 140 789 171 q 643 108 724 108 l 561 108 l 561 217 l 593 217 q 624 224 615 217 q 632 254 632 232 l 632 513 q 624 544 632 536 q 593 551 615 551 l 544 551 q 514 542 524 551 q 504 510 504 533 l 488 586 q 503 647 488 629 q 561 665 518 665 l 647 665 m -28 876 l 864 876 l 864 761 l -28 761 l -28 876 z "},"क़":{"ha":822,"x_min":-28,"x_max":850,"o":"m 332 822 l 490 822 l 490 0 l 332 0 l 332 822 m 276 665 l 276 557 l 243 557 q 213 550 221 557 q 204 521 204 543 l 204 263 q 213 231 204 239 q 243 224 221 224 l 292 224 q 323 233 314 224 q 332 264 332 242 l 350 188 q 335 127 350 146 q 275 108 319 108 l 189 108 q 83 141 118 108 q 47 247 47 174 l 47 539 q 80 635 47 604 q 194 665 113 665 l 276 665 m 633 665 q 740 633 704 665 q 775 526 775 600 l 775 235 q 742 140 775 171 q 628 108 710 108 l 546 108 l 546 217 l 579 217 q 609 224 601 217 q 617 254 617 232 l 617 513 q 609 544 617 536 q 579 551 601 551 l 531 551 q 499 542 508 551 q 490 510 490 533 l 472 586 q 488 647 472 629 q 547 665 504 665 l 633 665 m -28 876 l 850 876 l 850 761 l -28 761 l -28 876 m 93 22 l 225 22 l 225 -124 l 93 -124 l 93 22 z "},"र":{"ha":546,"x_min":-28,"x_max":574,"o":"m 60 635 l 217 635 l 217 146 q 225 116 217 124 q 256 108 233 108 l 297 108 q 324 116 317 108 q 332 146 332 124 l 332 289 l 489 289 l 489 126 q 456 31 489 63 q 343 0 424 0 l 207 0 q 92 31 125 0 q 60 126 60 63 l 60 635 m -28 876 l 574 876 l 574 761 l 432 761 l 447 776 q 479 763 468 774 q 490 725 490 753 l 490 506 q 449 406 490 438 q 319 375 408 375 l 192 375 l 192 489 l 289 489 q 324 499 315 489 q 333 535 333 508 l 333 717 q 325 753 333 744 q 289 761 317 761 l -28 761 l -28 876 z "},"ढ़":{"ha":610,"x_min":-28,"x_max":638,"o":"m -28 876 l 638 876 l 638 761 l -28 761 l -28 876 m 336 814 l 493 814 l 493 551 l 264 551 q 234 544 243 551 q 225 513 225 536 l 225 154 q 234 123 225 131 q 264 115 243 115 l 351 115 q 382 123 374 115 q 390 154 390 131 l 390 253 q 382 283 390 276 q 351 290 374 290 l 292 290 l 292 406 l 389 406 q 511 373 474 406 q 549 267 549 340 l 549 139 q 511 33 549 65 q 389 0 474 0 l 226 0 q 103 33 140 0 q 67 139 67 65 l 67 539 q 100 635 67 604 q 214 665 133 665 l 336 665 l 336 814 m 243 -75 l 375 -75 l 375 -221 l 243 -221 l 243 -75 z "},"ऱ":{"ha":546,"x_min":-28,"x_max":574,"o":"m 60 635 l 217 635 l 217 146 q 225 116 217 124 q 256 108 233 108 l 297 108 q 324 116 317 108 q 332 146 332 124 l 332 289 l 489 289 l 489 126 q 456 31 489 63 q 343 0 424 0 l 207 0 q 92 31 125 0 q 60 126 60 63 l 60 635 m -28 876 l 574 876 l 574 761 l 432 761 l 447 776 q 479 763 468 774 q 490 725 490 753 l 490 506 q 449 406 490 438 q 319 375 408 375 l 192 375 l 192 489 l 289 489 q 324 499 315 489 q 333 535 333 508 l 333 717 q 325 753 333 744 q 289 761 317 761 l -28 761 l -28 876 m 193 -96 l 325 -96 l 325 -242 l 193 -242 l 193 -96 z "},"स":{"ha":828,"x_min":-28,"x_max":856,"o":"m 60 635 l 217 635 l 217 146 q 225 116 217 124 q 256 108 233 108 l 297 108 q 324 116 317 108 q 332 146 332 124 l 332 289 l 489 289 l 489 126 q 456 31 489 63 q 343 0 424 0 l 207 0 q 92 31 125 0 q 60 126 60 63 l 60 635 m -28 876 l 856 876 l 856 761 l 432 761 l 447 776 q 479 763 468 774 q 490 725 490 753 l 490 551 q 468 487 490 507 q 399 463 446 467 l 379 489 l 660 489 l 660 375 l 192 375 l 192 489 l 289 489 q 324 499 315 489 q 333 535 333 508 l 333 717 q 325 753 333 744 q 289 761 317 761 l -28 761 l -28 876 m 603 790 l 760 790 l 760 0 l 603 0 l 603 790 z "},"श":{"ha":838,"x_min":72,"x_max":865,"o":"m 72 539 l 229 539 l 229 146 q 238 116 229 124 q 268 108 246 108 l 310 108 q 337 116 329 108 q 344 146 344 124 l 344 265 l 501 265 l 501 126 q 469 31 501 63 q 354 0 436 0 l 218 0 q 105 31 138 0 q 72 126 72 63 l 72 539 m 356 881 q 470 846 438 881 q 503 747 503 811 l 503 482 q 462 383 503 414 q 332 351 421 351 l 204 351 l 204 465 l 301 465 q 337 475 328 465 q 346 511 346 485 l 346 729 q 338 758 346 751 q 307 765 329 765 l 265 765 q 238 758 246 765 q 231 729 231 751 l 231 633 l 74 633 l 74 747 q 106 846 74 811 q 221 881 139 881 l 356 881 m 613 876 l 865 876 l 865 761 l 769 761 l 769 0 l 613 0 l 613 876 z "},"ष":{"ha":638,"x_min":-28,"x_max":665,"o":"m -28 876 l 665 876 l 665 761 l -28 761 l -28 876 m 67 821 l 219 821 l 219 782 l 354 522 q 407 410 389 457 q 425 363 425 363 q 419 414 425 363 q 413 546 413 465 l 413 824 l 571 824 l 571 0 l 413 0 l 413 197 l 419 225 l 281 494 q 231 601 249 557 q 213 646 213 646 q 219 599 213 646 q 225 478 225 551 l 225 263 q 233 231 225 239 q 263 224 242 224 l 372 224 q 403 233 394 224 q 413 264 413 242 l 431 188 q 415 127 431 146 q 356 108 400 108 l 208 108 q 103 141 139 108 q 67 247 67 174 l 67 821 z "},"त":{"ha":592,"x_min":-28,"x_max":619,"o":"m 524 807 l 524 0 l 367 0 l 367 807 l 524 807 m -28 876 l 619 876 l 619 761 l -28 761 l -28 876 m 401 665 l 401 551 l 256 551 q 225 544 233 551 q 217 514 217 536 l 217 154 q 225 124 217 132 q 256 117 233 117 l 289 117 l 289 0 l 207 0 q 92 31 125 0 q 60 126 60 63 l 60 539 q 92 635 60 604 q 207 665 125 665 l 401 665 z "},"थ":{"ha":732,"x_min":67,"x_max":760,"o":"m 507 876 l 760 876 l 760 761 l 507 761 l 507 876 m 507 822 l 665 822 l 665 0 l 507 0 l 507 822 m 275 883 q 381 853 347 883 q 415 757 415 822 l 415 538 q 383 440 415 474 q 268 406 350 406 l 224 406 l 224 263 q 232 231 224 239 q 263 224 240 224 l 460 224 q 497 234 488 224 q 507 271 507 244 l 525 182 q 508 126 525 144 q 453 108 492 108 l 226 108 q 106 141 144 108 q 67 247 67 174 l 67 519 l 219 519 q 250 527 242 519 q 258 557 258 535 l 258 732 q 250 761 258 754 q 219 768 242 768 l 211 768 q 182 761 190 768 q 174 732 174 754 l 174 675 l 78 675 l 78 757 q 111 853 78 822 q 217 883 144 883 l 275 883 z "},"ट":{"ha":558,"x_min":-28,"x_max":586,"o":"m 336 814 l 493 814 l 493 551 l 264 551 q 234 544 243 551 q 225 513 225 536 l 225 154 q 234 123 225 131 q 264 115 243 115 l 301 115 q 333 123 324 115 q 342 154 342 131 l 342 297 l 499 297 l 499 139 q 462 33 499 65 q 339 0 425 0 l 226 0 q 103 33 140 0 q 67 139 67 65 l 67 539 q 100 635 67 604 q 214 665 133 665 l 336 665 l 336 814 m -28 876 l 586 876 l 586 761 l -28 761 l -28 876 z "},"ठ":{"ha":585,"x_min":-28,"x_max":613,"o":"m -28 876 l 613 876 l 613 761 l -28 761 l -28 876 m 363 665 q 485 633 449 665 q 522 526 522 600 l 522 139 q 485 33 522 65 q 363 0 449 0 l 226 0 q 103 33 140 0 q 67 139 67 65 l 67 526 q 103 633 67 600 q 226 665 140 665 l 363 665 m 217 789 l 374 789 l 374 632 l 217 632 l 217 789 m 365 513 q 357 544 365 536 q 326 551 349 551 l 264 551 q 234 544 243 551 q 225 513 225 536 l 225 154 q 234 123 225 131 q 264 115 243 115 l 326 115 q 357 123 349 115 q 365 154 365 131 l 365 513 z "},"व":{"ha":572,"x_min":-28,"x_max":600,"o":"m -28 876 l 600 876 l 600 761 l -28 761 l -28 876 m 347 824 l 504 824 l 504 0 l 347 0 l 347 824 m 290 665 l 290 551 l 257 551 q 228 544 236 551 q 219 514 219 536 l 219 263 q 228 231 219 239 q 257 224 236 224 l 307 224 q 338 233 329 224 q 347 264 347 242 l 364 188 q 349 127 364 146 q 289 108 333 108 l 203 108 q 97 141 133 108 q 61 247 61 174 l 61 539 q 94 635 61 604 q 208 665 128 665 l 290 665 z "},"य":{"ha":717,"x_min":-43,"x_max":744,"o":"m -43 876 l 744 876 l 744 761 l -43 761 l -43 876 m 492 822 l 650 822 l 650 0 l 492 0 l 492 822 m 381 549 q 367 476 381 506 q 323 431 354 446 q 238 415 292 415 l 210 415 l 210 263 q 218 231 210 239 q 247 224 226 224 l 444 224 q 482 234 472 224 q 492 271 492 244 l 508 182 q 492 126 508 144 q 438 108 476 108 l 211 108 q 91 141 131 108 q 51 247 51 174 l 51 531 l 190 531 q 220 538 213 531 q 228 567 228 546 l 228 715 q 219 753 228 744 q 172 761 210 761 l 282 785 q 355 771 329 785 q 381 714 381 757 l 381 549 z "},"ज़":{"ha":826,"x_min":-28,"x_max":854,"o":"m 601 810 l 758 810 l 758 0 l 601 0 l 601 810 m -28 876 l 854 876 l 854 761 l -28 761 l -28 876 m 60 665 l 217 665 l 217 263 q 226 231 217 239 q 257 224 235 224 l 294 224 q 325 231 317 224 q 333 263 333 239 l 333 665 l 647 665 l 647 551 l 490 551 l 490 247 q 453 141 490 174 q 331 108 417 108 l 219 108 q 97 141 133 108 q 60 247 60 174 l 60 665 m 210 7 l 342 7 l 342 -139 l 210 -139 l 210 7 z "},"८":{"ha":585,"x_min":60,"x_max":524,"o":"m 215 350 l 215 158 q 224 129 215 138 q 254 121 232 121 l 297 121 l 297 0 l 211 0 q 96 36 132 0 q 60 138 60 72 l 60 343 q 74 408 60 383 q 118 443 88 432 q 74 481 88 454 q 60 549 60 508 l 60 739 q 96 840 60 804 q 211 876 132 876 l 299 876 l 299 756 l 254 756 q 224 748 232 756 q 215 718 215 740 l 215 535 q 224 506 215 514 q 254 497 232 497 l 299 497 l 299 388 l 254 388 q 224 380 232 388 q 215 350 215 372 m 369 535 l 369 718 q 361 748 369 740 q 329 756 353 756 l 290 756 l 290 876 l 372 876 q 488 840 453 876 q 524 739 524 804 l 524 549 q 510 481 524 508 q 465 443 497 454 q 510 408 497 432 q 524 343 524 383 l 524 138 q 488 36 524 72 q 372 0 453 0 l 288 0 l 288 121 l 329 121 q 361 129 353 121 q 369 158 369 138 l 369 350 q 361 380 369 372 q 329 388 353 388 l 286 388 l 286 497 l 329 497 q 361 506 353 497 q 369 535 369 514 z "},"५":{"ha":554,"x_min":56,"x_max":507,"o":"m 217 288 l 217 160 q 225 131 217 139 q 256 122 233 122 l 308 122 q 340 131 332 122 q 349 160 349 139 l 349 397 q 340 427 349 419 q 308 435 332 435 l 157 435 l 157 557 l 356 557 q 472 521 436 557 q 507 419 507 485 l 507 138 q 472 36 507 72 q 356 0 436 0 l 207 0 q 91 36 126 0 q 56 138 56 72 l 56 288 l 217 288 m 219 435 l 61 435 l 61 876 l 501 876 l 501 754 l 219 754 l 219 435 z "},"४":{"ha":563,"x_min":10,"x_max":563,"o":"m 64 169 l 64 293 l 563 293 l 563 169 l 64 169 m 10 169 l 10 306 l 285 876 l 444 876 l 94 169 l 10 169 m 328 463 l 479 463 l 479 0 l 328 0 l 328 463 z "},"९":{"ha":572,"x_min":50,"x_max":510,"o":"m 207 717 l 207 506 q 215 476 207 485 q 246 468 224 468 l 399 468 l 399 353 l 201 353 q 85 388 121 353 q 50 490 50 424 l 50 739 q 85 840 50 804 q 201 876 121 876 l 286 876 l 286 754 l 246 754 q 215 747 224 754 q 207 717 207 739 m 353 160 l 353 717 q 345 747 353 739 q 314 754 338 754 l 274 754 l 274 876 l 358 876 q 474 840 439 876 q 510 739 510 804 l 510 138 q 474 36 510 72 q 358 0 439 0 l 275 0 l 275 122 l 314 122 q 345 131 338 122 q 353 160 353 139 m 213 269 l 213 160 q 221 131 213 139 q 251 122 229 122 l 292 122 l 292 0 l 207 0 q 91 36 126 0 q 56 138 56 72 l 56 269 l 213 269 z "},"१":{"ha":361,"x_min":26,"x_max":294,"o":"m 226 876 l 226 754 l 26 754 l 26 876 l 226 876 m 135 876 l 294 876 l 294 0 l 135 0 l 135 876 z "},"७":{"ha":457,"x_min":10,"x_max":450,"o":"m 406 876 l 406 747 l 10 747 l 10 876 l 406 876 m 450 876 l 450 782 l 206 0 l 42 0 l 321 876 l 450 876 z "},"६":{"ha":575,"x_min":61,"x_max":522,"o":"m 365 160 l 365 353 q 357 383 365 375 q 325 390 349 390 l 174 390 l 174 510 l 371 510 q 487 474 451 510 q 522 372 522 438 l 522 138 q 487 36 522 72 q 371 0 451 0 l 286 0 l 286 122 l 325 122 q 357 131 349 122 q 365 160 365 139 m 219 717 l 219 160 q 228 131 219 139 q 258 122 236 122 l 299 122 l 299 0 l 213 0 q 97 36 133 0 q 61 138 61 72 l 61 739 q 97 840 61 804 q 213 876 133 876 l 297 876 l 297 754 l 258 754 q 228 747 236 754 q 219 717 219 739 m 358 604 l 358 717 q 351 747 358 739 q 319 754 343 754 l 279 754 l 279 876 l 364 876 q 480 840 444 876 q 515 739 515 804 l 515 604 l 358 604 z "},"३":{"ha":542,"x_min":39,"x_max":482,"o":"m 199 717 l 199 599 l 39 599 l 39 739 q 74 840 39 804 q 190 876 110 876 l 331 876 q 446 840 410 876 q 482 739 482 804 l 482 551 q 468 484 482 511 q 424 446 454 457 q 468 410 454 435 q 482 346 482 386 l 482 138 q 446 36 482 72 q 331 0 410 0 l 190 0 q 74 36 110 0 q 39 138 39 72 l 39 276 l 199 276 l 199 160 q 207 131 199 139 q 238 122 215 122 l 285 122 q 316 131 308 122 q 324 160 324 139 l 324 347 q 316 378 324 371 q 285 386 308 386 l 178 386 l 178 503 l 285 503 q 316 510 308 503 q 324 540 324 518 l 324 717 q 316 747 324 739 q 285 754 308 754 l 238 754 q 207 747 215 754 q 199 717 199 739 z "},"२":{"ha":513,"x_min":33,"x_max":475,"o":"m 193 717 l 193 586 l 33 586 l 33 739 q 69 840 33 804 q 185 876 104 876 l 318 876 q 435 840 399 876 q 471 739 471 804 l 471 640 q 456 535 471 579 q 408 440 442 490 l 226 122 l 475 122 l 475 0 l 38 0 l 38 115 l 264 482 q 303 561 293 526 q 313 643 313 596 l 313 717 q 304 747 313 739 q 274 754 296 754 l 233 754 q 201 747 210 754 q 193 717 193 739 z "},"०":{"ha":588,"x_min":61,"x_max":525,"o":"m 525 739 l 525 138 q 490 36 525 72 q 374 0 454 0 l 213 0 q 97 36 133 0 q 61 138 61 72 l 61 739 q 97 840 61 804 q 213 876 133 876 l 374 876 q 490 840 454 876 q 525 739 525 804 m 365 160 l 365 717 q 357 747 365 739 q 325 754 349 754 l 261 754 q 231 747 239 754 q 222 717 222 739 l 222 160 q 231 131 222 139 q 261 122 239 122 l 325 122 q 357 131 349 122 q 365 160 365 139 z "},"⁄":{"ha":550,"x_min":-6,"x_max":528,"o":"m 388 972 l 528 972 l 135 -143 l -6 -143 l 388 972 z "},"¹":{"ha":231,"x_min":15,"x_max":178,"o":"m 124 876 l 124 801 l 15 801 l 15 876 l 124 876 m 74 876 l 178 876 l 178 394 l 74 394 l 74 876 z "},"³":{"ha":325,"x_min":21,"x_max":292,"o":"m 122 781 l 122 724 l 21 724 l 21 801 q 40 857 21 838 q 104 876 60 876 l 208 876 q 272 857 253 876 q 292 801 292 838 l 292 696 q 285 658 292 672 q 260 638 278 643 q 285 618 278 632 q 292 582 292 604 l 292 469 q 272 414 292 433 q 208 394 253 394 l 104 394 q 40 414 60 394 q 21 469 21 433 l 21 547 l 122 547 l 122 490 q 127 474 122 478 q 144 469 132 469 l 169 469 q 186 474 182 469 q 190 490 190 478 l 190 579 q 186 596 190 592 q 169 600 182 600 l 124 600 l 124 672 l 169 672 q 186 677 182 672 q 190 693 190 682 l 190 781 q 186 797 190 793 q 169 801 182 801 l 144 801 q 127 797 132 801 q 122 781 122 793 z "},"²":{"ha":315,"x_min":19,"x_max":289,"o":"m 121 781 l 121 711 l 19 711 l 19 801 q 39 857 19 838 q 101 876 58 876 l 204 876 q 268 857 249 876 q 288 801 288 838 l 288 751 q 278 683 288 713 q 247 628 268 654 l 142 474 l 289 474 l 289 394 l 19 394 l 19 468 l 160 658 q 181 699 176 681 q 185 749 185 718 l 185 781 q 181 797 185 793 q 164 801 176 801 l 142 801 q 126 797 131 801 q 121 781 121 793 z "},"\r":{"ha":224,"x_min":0,"x_max":0,"o":""},"\u0000":{"ha":0,"x_min":0,"x_max":0,"o":""},"‍":{"ha":0,"x_min":0,"x_max":0,"o":""},"﻿":{"ha":0,"x_min":0,"x_max":0,"o":""},"‌":{"ha":0,"x_min":-32,"x_max":33,"o":"m 33 -319 l -32 -319 l -32 1126 l 33 1126 l 33 -319 z "}," ":{"ha":224,"x_min":0,"x_max":0,"o":""}," ":{"ha":224,"x_min":0,"x_max":0,"o":""},"​":{"ha":0,"x_min":0,"x_max":0,"o":""},"॰":{"ha":517,"x_min":78,"x_max":440,"o":"m 78 432 q 127 573 78 525 q 258 621 176 621 q 390 573 340 621 q 440 432 440 525 q 390 292 440 340 q 258 243 340 243 q 127 292 176 243 q 78 432 78 340 m 197 432 q 213 365 197 385 q 258 344 229 344 q 303 365 288 344 q 319 432 319 385 q 304 499 319 479 q 258 519 289 519 q 213 499 228 519 q 197 432 197 479 z "},"।":{"ha":503,"x_min":175,"x_max":328,"o":"m 328 919 l 328 -43 l 175 -43 l 175 919 l 328 919 z "},"॥":{"ha":778,"x_min":175,"x_max":603,"o":"m 328 919 l 328 -43 l 175 -43 l 175 919 l 328 919 m 603 919 l 603 -43 l 450 -43 l 450 919 l 603 919 z "},"*":{"ha":474,"x_min":22,"x_max":451,"o":"m 258 671 l 215 671 q 206 690 215 671 q 185 744 196 708 q 175 835 175 781 l 175 876 l 299 876 l 299 833 q 289 744 299 781 q 269 690 279 708 q 258 671 258 671 m 243 692 l 231 651 q 210 647 231 651 q 151 644 189 643 q 63 663 114 646 l 22 675 l 61 793 l 101 781 q 184 743 153 764 q 229 707 215 722 q 243 692 243 692 m 219 683 l 254 658 q 252 638 254 658 q 237 581 250 617 q 192 501 224 546 l 167 468 l 65 542 l 92 576 q 153 642 124 619 q 201 674 182 665 q 219 683 219 683 m 219 658 l 254 683 q 274 675 254 683 q 323 644 293 667 q 383 576 353 621 l 408 542 l 308 468 l 282 504 q 238 582 251 547 q 222 638 225 617 q 219 658 219 658 m 243 651 l 231 692 q 244 708 231 692 q 290 744 258 724 q 374 781 322 765 l 413 793 l 451 675 l 410 663 q 322 644 360 646 q 264 647 285 643 q 243 651 243 651 z "},"\\":{"ha":550,"x_min":22,"x_max":557,"o":"m 22 972 l 164 972 l 557 -143 l 415 -143 l 22 972 z "},"•":{"ha":550,"x_min":86,"x_max":464,"o":"m 86 446 q 111 542 86 499 q 180 610 136 585 q 275 635 224 635 q 371 610 328 635 q 439 542 414 585 q 464 446 464 499 q 439 351 464 394 q 371 282 414 307 q 275 257 328 257 q 180 282 224 257 q 111 351 136 307 q 86 446 86 394 z "},":":{"ha":264,"x_min":47,"x_max":217,"o":"m 47 494 l 47 682 l 217 682 l 217 494 l 47 494 m 47 0 l 47 188 l 217 188 l 217 0 l 47 0 z "},",":{"ha":264,"x_min":47,"x_max":217,"o":"m 47 188 l 217 188 l 217 88 l 100 -197 l 47 -197 l 47 188 z "},"…":{"ha":850,"x_min":67,"x_max":829,"o":"m 67 0 l 67 183 l 244 183 l 244 0 l 67 0 m 360 0 l 360 183 l 536 183 l 536 0 l 360 0 m 653 0 l 653 183 l 829 183 l 829 0 l 653 0 z "},"!":{"ha":325,"x_min":69,"x_max":256,"o":"m 69 876 l 256 876 l 228 294 l 97 294 l 69 876 m 78 0 l 78 188 l 246 188 l 246 0 l 78 0 z "},"¡":{"ha":325,"x_min":69,"x_max":256,"o":"m 69 -194 l 97 388 l 228 388 l 256 -194 l 69 -194 m 78 682 l 246 682 l 246 494 l 78 494 l 78 682 z "},"#":{"ha":763,"x_min":42,"x_max":721,"o":"m 251 875 l 389 875 l 221 0 l 83 0 l 251 875 m 721 660 l 721 547 l 93 547 l 93 660 l 721 660 m 511 0 l 374 0 l 542 875 l 679 875 l 511 0 m 42 215 l 42 328 l 669 328 l 669 215 l 42 215 z "},".":{"ha":264,"x_min":47,"x_max":217,"o":"m 47 0 l 47 188 l 217 188 l 217 0 l 47 0 z "},"·":{"ha":324,"x_min":53,"x_max":222,"o":"m 53 360 l 53 540 l 222 540 l 222 360 l 53 360 z "},"?":{"ha":526,"x_min":28,"x_max":479,"o":"m 318 525 l 318 722 q 311 751 318 742 q 282 761 304 761 l 236 761 l 236 876 l 328 876 q 444 839 410 876 q 479 740 479 801 l 479 521 q 444 422 479 460 q 328 385 410 385 l 224 385 l 224 486 l 282 486 q 311 495 304 486 q 318 525 318 504 m 163 486 l 325 486 l 310 294 l 176 294 l 163 486 m 157 0 l 157 188 l 326 188 l 326 0 l 157 0 m 189 722 l 189 624 l 28 624 l 28 740 q 63 839 28 801 q 179 876 97 876 l 263 876 l 263 761 l 226 761 q 197 751 204 761 q 189 722 189 742 z "},"¿":{"ha":526,"x_min":28,"x_max":479,"o":"m 189 157 l 189 -39 q 196 -69 189 -60 q 225 -79 203 -79 l 269 -79 l 269 -194 l 179 -194 q 63 -157 97 -194 q 28 -58 28 -119 l 28 161 q 63 261 28 224 q 179 299 97 299 l 283 299 l 283 196 l 225 196 q 196 187 203 196 q 189 157 189 178 m 344 196 l 182 196 l 197 388 l 331 388 l 344 196 m 350 682 l 350 494 l 181 494 l 181 682 l 350 682 m 318 -39 l 318 58 l 479 58 l 479 -58 q 444 -157 479 -119 q 328 -194 410 -194 l 244 -194 l 244 -79 l 281 -79 q 311 -69 304 -79 q 318 -39 318 -60 z "},";":{"ha":264,"x_min":47,"x_max":217,"o":"m 47 188 l 217 188 l 217 88 l 100 -197 l 47 -197 l 47 188 m 47 494 l 47 682 l 217 682 l 217 494 l 47 494 z "},"/":{"ha":550,"x_min":-6,"x_max":528,"o":"m 388 972 l 528 972 l 135 -143 l -6 -143 l 388 972 z "},"—":{"ha":831,"x_min":28,"x_max":797,"o":"m 28 354 l 28 469 l 797 469 l 797 354 l 28 354 z "},"–":{"ha":658,"x_min":43,"x_max":550,"o":"m 43 354 l 43 469 l 550 469 l 550 354 l 43 354 z "},"-":{"ha":449,"x_min":56,"x_max":393,"o":"m 56 354 l 56 469 l 393 469 l 393 354 l 56 354 z "},"­":{"ha":449,"x_min":56,"x_max":393,"o":"m 56 354 l 56 469 l 393 469 l 393 354 l 56 354 z "},"_":{"ha":658,"x_min":0,"x_max":658,"o":"m 0 -175 l 0 -58 l 658 -58 l 658 -175 l 0 -175 z "},"{":{"ha":410,"x_min":14,"x_max":399,"o":"m 301 936 l 301 604 q 273 485 301 526 q 196 433 244 443 q 274 386 247 429 q 301 272 301 343 l 301 -69 q 311 -99 301 -90 q 343 -108 321 -108 l 399 -108 l 399 -225 l 286 -225 q 173 -185 204 -225 q 142 -82 142 -144 l 142 236 q 117 342 142 308 q 33 376 92 376 l 14 376 l 14 492 l 33 492 q 117 525 92 492 q 142 632 142 558 l 142 949 q 173 1050 142 1010 q 286 1090 204 1090 l 399 1090 l 399 975 l 343 975 q 311 966 321 975 q 301 936 301 957 z "},"}":{"ha":410,"x_min":11,"x_max":396,"o":"m 107 604 l 107 936 q 98 966 107 957 q 65 975 89 975 l 11 975 l 11 1090 l 124 1090 q 236 1050 206 1090 q 267 949 267 1010 l 267 632 q 292 525 267 558 q 376 492 318 492 l 396 492 l 396 376 l 376 376 q 292 342 318 376 q 267 236 267 308 l 267 -82 q 236 -185 267 -144 q 124 -225 206 -225 l 11 -225 l 11 -108 l 65 -108 q 98 -99 89 -108 q 107 -69 107 -90 l 107 272 q 135 386 107 343 q 214 433 163 429 q 136 485 165 443 q 107 604 107 526 z "},"[":{"ha":435,"x_min":74,"x_max":369,"o":"m 140 968 l 140 1090 l 369 1090 l 369 968 l 140 968 m 74 1090 l 235 1090 l 235 -226 l 74 -226 l 74 1090 m 132 -226 l 132 -104 l 369 -104 l 369 -226 l 132 -226 z "},"]":{"ha":435,"x_min":47,"x_max":343,"o":"m 276 1090 l 276 968 l 47 968 l 47 1090 l 276 1090 m 182 1090 l 343 1090 l 343 -226 l 182 -226 l 182 1090 m 285 -104 l 285 -226 l 47 -226 l 47 -104 l 285 -104 z "},"(":{"ha":396,"x_min":63,"x_max":411,"o":"m 63 569 q 146 967 63 828 q 393 1107 229 1107 l 411 1107 l 411 974 l 394 972 q 297 921 335 969 q 240 783 258 872 q 222 572 222 694 l 222 294 q 240 83 222 172 q 297 -54 258 -6 q 394 -106 335 -103 l 411 -107 l 411 -240 l 393 -240 q 146 -101 229 -240 q 63 297 63 39 l 63 569 z "},")":{"ha":396,"x_min":-17,"x_max":332,"o":"m 332 297 q 249 -101 332 39 q 1 -240 165 -240 l -17 -240 l -17 -107 l 0 -106 q 99 -54 61 -103 q 154 83 136 -6 q 172 294 172 172 l 172 572 q 154 783 172 694 q 99 921 136 872 q 0 972 61 969 l -17 974 l -17 1107 l 1 1107 q 249 967 165 1107 q 332 569 332 828 l 332 297 z "},"«":{"ha":685,"x_min":43,"x_max":646,"o":"m 204 142 l 43 356 l 204 569 l 361 569 l 199 356 l 361 142 l 204 142 m 489 142 l 328 356 l 489 569 l 646 569 l 485 356 l 646 142 l 489 142 z "},"»":{"ha":685,"x_min":43,"x_max":646,"o":"m 361 356 l 200 142 l 43 142 l 204 356 l 43 569 l 200 569 l 361 356 m 646 356 l 485 142 l 328 142 l 489 356 l 328 569 l 485 569 l 646 356 z "},"‹":{"ha":406,"x_min":43,"x_max":367,"o":"m 204 142 l 43 356 l 204 569 l 367 569 l 206 356 l 367 142 l 204 142 z "},"›":{"ha":407,"x_min":43,"x_max":367,"o":"m 367 356 l 206 142 l 43 142 l 204 356 l 43 569 l 206 569 l 367 356 z "},"\"":{"ha":463,"x_min":51,"x_max":411,"o":"m 51 876 l 194 876 l 194 549 l 51 549 l 51 876 m 268 876 l 411 876 l 411 549 l 268 549 l 268 876 z "},"„":{"ha":497,"x_min":47,"x_max":449,"o":"m 47 188 l 217 188 l 217 88 l 96 -197 l 47 -197 l 47 188 m 281 188 l 449 188 l 449 88 l 329 -197 l 281 -197 l 281 188 z "},"“":{"ha":497,"x_min":47,"x_max":449,"o":"m 449 492 l 281 492 l 281 592 l 400 876 l 449 876 l 449 492 m 217 492 l 47 492 l 47 592 l 168 876 l 217 876 l 217 492 z "},"”":{"ha":497,"x_min":47,"x_max":449,"o":"m 47 876 l 217 876 l 217 776 l 96 492 l 47 492 l 47 876 m 281 876 l 449 876 l 449 776 l 329 492 l 281 492 l 281 876 z "},"‘":{"ha":265,"x_min":47,"x_max":218,"o":"m 218 492 l 47 492 l 47 592 l 168 876 l 218 876 l 218 492 z "},"’":{"ha":265,"x_min":47,"x_max":218,"o":"m 47 876 l 218 876 l 218 776 l 97 492 l 47 492 l 47 876 z "},"‚":{"ha":264,"x_min":47,"x_max":217,"o":"m 47 188 l 217 188 l 217 88 l 100 -197 l 47 -197 l 47 188 z "},"'":{"ha":257,"x_min":51,"x_max":206,"o":"m 51 876 l 206 876 l 206 549 l 51 549 l 51 876 z "},"ƒ":{"ha":529,"x_min":-14,"x_max":469,"o":"m 363 765 l 251 -62 q 231 -136 246 -106 q 185 -183 215 -167 q 100 -200 154 -200 l -14 -200 l -14 -74 l 54 -74 q 85 -65 78 -74 q 94 -36 92 -57 l 206 792 q 226 867 211 836 q 273 913 242 897 q 356 929 304 929 l 469 929 l 469 803 l 401 803 q 372 795 379 803 q 363 765 365 788 m 469 682 l 469 560 l 82 560 l 82 682 l 469 682 z "},"ऽ":{"ha":549,"x_min":57,"x_max":492,"o":"m 458 767 l 265 767 q 236 760 244 767 q 228 731 228 753 l 228 567 q 236 538 228 544 q 265 531 244 531 l 344 531 q 459 499 426 531 q 492 403 492 468 l 492 126 q 459 31 492 63 q 344 0 426 0 l 204 0 q 90 31 124 0 q 57 126 57 63 l 57 225 l 215 225 l 215 146 q 223 116 215 124 q 249 108 231 108 l 296 108 q 326 116 318 108 q 335 146 335 124 l 335 385 q 326 414 335 407 q 296 421 318 421 l 217 421 q 103 452 136 421 q 71 549 71 483 l 71 749 q 103 845 71 814 q 217 876 136 876 l 458 876 l 458 767 z "},"ॐ":{"ha":1051,"x_min":54,"x_max":985,"o":"m 536 919 l 664 919 l 664 788 l 536 788 l 536 919 m 438 708 l 693 708 q 726 716 718 708 q 735 747 735 724 l 735 824 l 889 824 l 889 726 q 856 628 889 663 q 742 593 822 593 l 438 593 l 438 708 m 340 876 q 454 842 421 876 q 488 743 488 808 l 488 554 q 474 502 488 518 q 436 486 461 486 l 438 497 l 838 497 q 952 463 919 497 q 985 364 985 429 l 985 133 q 952 34 985 68 q 838 0 919 0 l 714 0 q 601 34 633 0 q 568 133 568 68 l 568 269 l 725 269 l 725 151 q 733 122 725 129 q 763 115 742 115 l 789 115 q 819 122 811 115 q 828 151 828 129 l 828 344 q 819 374 828 367 q 789 382 811 382 l 438 382 l 436 393 q 474 377 461 393 q 488 325 488 361 l 488 133 q 454 34 488 68 q 340 0 421 0 l 201 0 q 87 34 119 0 q 54 133 54 68 l 54 281 l 211 281 l 211 151 q 219 122 211 129 q 250 115 228 115 l 292 115 q 322 122 314 115 q 329 151 329 129 l 329 340 q 320 373 329 364 q 289 382 311 382 l 215 382 l 215 496 l 289 496 q 320 505 311 496 q 329 538 329 514 l 329 725 q 322 754 329 747 q 292 761 314 761 l 250 761 q 219 754 228 761 q 211 725 211 747 l 211 603 l 54 603 l 54 743 q 87 842 54 808 q 201 876 119 876 l 340 876 z "},"&":{"ha":707,"x_min":50,"x_max":774,"o":"m 774 -49 l 610 -49 l 193 425 q 118 522 149 479 q 88 617 88 565 l 88 739 q 123 840 88 804 q 239 876 158 876 l 382 876 q 496 840 461 876 q 531 739 531 804 l 531 621 q 517 535 531 569 q 478 476 504 500 q 413 426 451 451 l 242 318 q 213 291 222 306 q 203 247 203 276 l 203 154 q 211 124 203 132 q 243 117 219 117 l 501 117 q 533 124 525 117 q 540 154 540 132 l 540 328 l 668 328 l 668 138 q 630 36 668 72 q 513 0 592 0 l 201 0 q 85 36 121 0 q 50 138 50 72 l 50 263 q 59 324 50 299 q 90 369 68 349 q 147 411 111 390 l 299 513 q 358 560 339 539 q 376 618 376 581 l 376 724 q 369 753 376 746 q 338 761 361 761 l 283 761 q 253 753 261 761 q 244 724 244 746 l 244 608 q 256 561 244 583 q 290 516 268 539 q 338 461 311 493 l 774 -49 z "},"@":{"ha":1033,"x_min":90,"x_max":969,"o":"m 329 468 q 362 565 329 531 q 464 599 394 599 l 497 599 q 558 583 535 599 q 592 538 582 568 l 592 599 l 726 599 l 726 221 l 789 221 q 819 229 811 221 q 828 258 828 238 l 828 660 q 819 690 828 682 q 789 699 811 699 l 275 699 q 244 690 253 699 q 236 660 236 682 l 236 44 q 244 15 236 22 q 275 7 253 7 l 728 7 l 728 -111 l 233 -111 q 124 -75 158 -111 q 90 26 90 -39 l 90 679 q 124 781 90 744 q 233 817 158 817 l 828 817 q 936 781 903 817 q 969 679 969 744 l 969 249 q 935 148 969 183 q 826 113 901 113 l 597 113 l 597 188 q 565 131 592 149 q 497 113 538 113 l 464 113 q 362 147 394 113 q 329 243 329 181 l 329 468 m 472 453 l 472 258 q 480 230 472 238 q 510 222 488 222 l 549 222 q 579 232 569 222 q 589 267 589 242 l 589 444 q 579 478 589 468 q 549 489 569 489 l 510 489 q 480 482 488 489 q 472 453 472 475 z "},"|":{"ha":301,"x_min":74,"x_max":222,"o":"m 74 1068 l 222 1068 l 222 -194 l 74 -194 l 74 1068 z "},"¦":{"ha":301,"x_min":67,"x_max":228,"o":"m 67 353 l 228 353 l 228 -133 l 67 -133 l 67 353 m 228 522 l 67 522 l 67 1007 l 228 1007 l 228 522 z "},"©":{"ha":1003,"x_min":57,"x_max":960,"o":"m 960 472 l 960 397 q 930 181 960 269 q 831 46 900 92 q 642 0 761 0 l 375 0 q 187 46 257 0 q 87 181 117 92 q 57 397 57 269 l 57 472 q 87 690 57 600 q 187 828 117 781 q 375 876 257 876 l 642 876 q 831 828 761 876 q 930 690 900 781 q 960 472 960 600 m 396 107 l 621 107 q 742 137 697 107 q 808 228 788 167 q 828 385 828 290 l 828 485 q 808 643 828 579 q 742 739 788 707 q 621 771 697 771 l 396 771 q 274 739 321 771 q 208 643 228 707 q 188 485 188 579 l 188 385 q 208 228 188 290 q 274 137 228 167 q 396 107 321 107 m 568 346 l 568 385 l 693 385 l 693 325 q 664 241 693 271 q 571 211 635 211 l 447 211 q 353 241 382 211 q 324 325 324 271 l 324 563 q 353 646 324 617 q 447 675 382 675 l 571 675 q 664 646 635 675 q 693 563 693 617 l 693 503 l 568 503 l 568 542 q 561 568 568 561 q 533 575 554 575 l 483 575 q 456 568 464 575 q 449 542 449 561 l 449 346 q 456 319 449 326 q 483 313 464 313 l 533 313 q 561 319 554 313 q 568 346 568 326 z "},"†":{"ha":540,"x_min":10,"x_max":531,"o":"m 190 876 l 350 876 l 350 -153 l 190 -153 l 190 876 m 531 656 l 531 539 l 10 539 l 10 656 l 531 656 z "},"‡":{"ha":574,"x_min":26,"x_max":547,"o":"m 207 876 l 367 876 l 367 -206 l 207 -206 l 207 876 m 547 656 l 547 539 l 26 539 l 26 656 l 547 656 m 547 131 l 547 15 l 26 15 l 26 131 l 547 131 z "},"°":{"ha":572,"x_min":69,"x_max":499,"o":"m 499 740 l 499 596 q 465 495 499 531 q 351 460 431 460 l 217 460 q 103 495 138 460 q 69 596 69 531 l 69 740 q 103 841 69 806 q 217 876 138 876 l 351 876 q 465 841 431 876 q 499 740 499 806 m 353 604 l 353 732 q 344 760 353 753 q 313 768 336 768 l 256 768 q 224 760 232 768 q 215 732 215 753 l 215 604 q 224 576 215 583 q 256 568 232 568 l 313 568 q 344 576 336 568 q 353 604 353 583 z "},"℮":{"ha":836,"x_min":47,"x_max":808,"o":"m 192 325 l 808 325 l 808 333 q 757 507 808 429 q 619 631 706 585 q 426 678 532 678 q 280 651 349 678 q 159 576 211 624 q 77 467 107 529 q 47 333 47 404 q 77 201 47 263 q 159 93 107 140 q 280 19 211 46 q 426 -7 349 -7 q 599 29 521 -7 q 728 125 676 65 l 674 125 q 565 43 629 74 q 428 13 501 13 q 300 40 360 13 q 194 114 240 67 q 188 135 188 124 l 188 322 q 192 325 188 325 m 668 538 l 668 350 q 664 343 668 343 l 192 343 q 188 350 188 343 l 188 533 q 196 557 188 547 q 301 629 242 601 q 428 657 360 657 q 555 631 496 657 q 660 560 614 604 q 668 538 668 551 z "},"¶":{"ha":729,"x_min":60,"x_max":647,"o":"m 368 876 l 368 307 l 211 307 q 95 343 131 307 q 60 444 60 379 l 60 739 q 95 840 60 804 q 211 876 131 876 l 368 876 m 281 876 l 417 876 l 417 -189 l 281 -189 l 281 876 m 513 876 l 647 876 l 647 -189 l 513 -189 l 513 876 z "},"®":{"ha":601,"x_min":46,"x_max":556,"o":"m 556 751 l 556 710 q 539 588 556 638 q 482 512 522 538 q 375 486 442 486 l 225 486 q 119 512 158 486 q 63 588 79 538 q 46 710 46 638 l 46 751 q 63 874 46 824 q 119 952 79 925 q 225 979 158 979 l 375 979 q 482 952 442 979 q 539 874 522 925 q 556 751 556 824 m 238 549 l 364 549 q 433 565 407 549 q 469 615 458 581 q 481 701 481 650 l 481 758 q 469 847 481 811 q 433 899 458 882 q 364 917 407 917 l 238 917 q 169 899 194 917 q 132 847 143 882 q 121 758 121 811 l 121 701 q 132 615 121 650 q 169 565 143 581 q 238 549 194 549 m 221 875 l 331 875 q 371 863 358 875 q 383 826 383 850 l 383 750 q 350 703 383 713 l 399 593 l 336 593 l 292 700 l 281 700 l 281 593 l 221 593 l 221 875 m 325 757 l 325 821 q 315 831 325 831 l 281 831 l 281 747 l 315 747 q 325 757 325 747 z "},"§":{"ha":631,"x_min":76,"x_max":554,"o":"m 322 251 l 322 331 l 360 331 q 391 338 383 331 q 399 368 399 346 l 399 490 q 391 520 399 513 q 360 528 383 528 l 264 528 q 148 563 183 528 q 113 664 113 599 l 113 792 q 148 892 113 857 q 264 928 183 928 l 403 928 q 519 892 483 928 q 554 792 554 857 l 554 733 l 397 733 l 397 778 q 389 808 397 800 q 358 815 381 815 l 310 815 q 278 808 286 815 q 269 778 269 800 l 269 681 q 278 651 269 660 q 310 643 286 643 l 399 643 q 515 607 479 643 q 550 506 550 571 l 550 399 q 522 290 550 329 q 413 251 493 251 l 322 251 m 308 597 l 308 528 l 271 528 q 240 520 249 528 q 232 490 232 513 l 232 368 q 240 338 232 346 q 271 331 249 331 l 368 331 q 483 294 447 331 q 519 193 519 258 l 519 67 q 483 -35 519 1 q 368 -71 447 -71 l 228 -71 q 112 -35 147 -71 q 76 67 76 1 l 76 125 l 233 125 l 233 79 q 242 50 233 58 q 274 42 250 42 l 322 42 q 353 50 346 42 q 361 79 361 58 l 361 176 q 353 206 361 199 q 322 214 346 214 l 232 214 q 116 250 151 214 q 81 351 81 286 l 81 450 q 110 558 81 519 q 218 597 139 597 l 308 597 z "},"™":{"ha":911,"x_min":10,"x_max":869,"o":"m 125 839 l 251 839 l 251 422 l 125 422 l 125 839 m 367 876 l 367 772 l 10 772 l 10 876 l 367 876 m 413 876 l 554 876 l 642 619 l 728 876 l 869 876 l 869 422 l 757 422 l 757 693 l 693 494 l 592 494 l 526 693 l 526 422 l 413 422 l 413 876 z "},"ℓ":{"ha":760,"x_min":115,"x_max":683,"o":"m 503 721 l 492 721 q 460 714 469 721 q 451 683 451 707 l 451 154 q 460 123 451 131 q 492 115 469 115 l 653 115 l 653 0 l 454 0 q 331 33 368 0 q 294 139 294 65 l 294 697 q 331 803 294 771 q 454 836 368 836 l 532 836 q 619 817 586 836 q 667 768 651 799 q 683 701 683 738 q 662 607 683 650 q 600 528 640 564 l 115 81 l 115 233 l 481 579 q 522 626 504 599 q 540 679 540 654 q 532 710 540 699 q 503 721 524 721 z "},"€":{"ha":601,"x_min":29,"x_max":556,"o":"m 251 722 l 251 153 q 260 124 251 132 q 292 115 268 115 l 329 115 l 329 -1 l 242 -1 q 127 35 163 -1 q 92 136 92 71 l 92 739 q 127 840 92 804 q 242 876 163 876 l 335 876 l 335 760 l 292 760 q 260 752 268 760 q 251 722 251 744 m 394 586 l 394 722 q 387 752 394 744 q 356 760 379 760 l 313 760 l 313 876 l 404 876 q 519 840 483 876 q 556 739 556 804 l 556 586 l 394 586 m 394 153 l 394 286 l 556 286 l 556 136 q 519 35 556 71 q 404 -1 483 -1 l 313 -1 l 313 115 l 356 115 q 387 124 379 115 q 394 153 394 132 m 361 407 l 361 301 l 29 301 l 29 407 l 361 407 m 361 574 l 361 471 l 29 471 l 29 574 l 361 574 z "},"¢":{"ha":528,"x_min":50,"x_max":489,"o":"m 207 522 l 207 160 q 215 131 207 139 q 246 122 224 122 l 278 122 l 278 0 l 201 0 q 85 36 121 0 q 50 138 50 72 l 50 544 q 85 646 50 610 q 201 682 121 682 l 282 682 l 282 560 l 246 560 q 215 552 224 560 q 207 522 207 544 m 335 453 l 335 522 q 327 552 335 544 q 296 560 319 560 l 263 560 l 263 682 l 338 682 q 453 646 418 682 q 489 544 489 610 l 489 453 l 335 453 m 335 160 l 335 231 l 489 231 l 489 138 q 453 36 489 72 q 338 0 418 0 l 263 0 l 263 122 l 296 122 q 327 131 319 122 q 335 160 335 139 m 349 635 l 197 635 l 197 790 l 349 790 l 349 635 m 349 -107 l 197 -107 l 197 51 l 349 51 l 349 -107 z "},"¤":{"ha":717,"x_min":69,"x_max":643,"o":"m 597 515 l 597 315 q 581 222 597 261 q 526 161 564 182 q 424 140 489 140 l 299 140 q 197 161 235 140 q 142 222 158 182 q 126 315 126 261 l 126 515 q 142 611 126 572 q 197 670 158 650 q 299 690 235 690 l 424 690 q 526 670 489 690 q 581 611 564 650 q 597 515 597 572 m 332 253 l 389 253 q 444 265 428 253 q 461 324 461 278 l 461 507 q 444 565 461 553 q 389 578 428 578 l 332 578 q 277 565 293 578 q 261 507 261 553 l 261 324 q 277 265 261 278 q 332 253 293 253 m 297 644 l 197 547 l 69 675 l 168 772 l 297 644 m 515 547 l 417 644 l 546 772 l 643 675 l 515 547 m 197 297 l 297 200 l 168 72 l 69 171 l 197 297 m 417 200 l 515 297 l 643 171 l 546 72 l 417 200 z "},"$":{"ha":554,"x_min":50,"x_max":506,"o":"m 353 828 l 201 828 l 201 986 l 353 986 l 353 828 m 353 -110 l 201 -110 l 201 49 l 353 49 l 353 -110 m 344 160 l 344 347 q 336 377 344 369 q 306 385 328 385 l 193 385 q 83 422 115 385 q 50 524 50 458 l 50 739 q 85 840 50 804 q 200 876 119 876 l 353 876 q 467 840 432 876 q 503 739 503 804 l 503 617 l 342 617 l 342 717 q 334 747 342 739 q 303 754 326 754 l 250 754 q 218 747 226 754 q 210 717 210 739 l 210 540 q 218 511 210 519 q 250 503 226 503 l 360 503 q 472 467 439 503 q 506 367 506 432 l 506 138 q 470 36 506 72 q 354 0 435 0 l 204 0 q 88 36 124 0 q 53 138 53 72 l 53 258 l 213 258 l 213 160 q 221 131 213 139 q 253 122 229 122 l 306 122 q 336 131 328 122 q 344 160 344 139 z "},"₹":{"ha":546,"x_min":56,"x_max":482,"o":"m 482 663 l 482 556 l 56 556 l 56 663 l 482 663 m 482 876 l 482 769 l 56 769 l 56 876 l 482 876 m 278 799 q 352 791 326 799 q 387 764 378 783 q 396 706 396 744 l 396 472 q 358 365 396 397 q 232 333 321 332 l 144 333 l 188 388 l 425 0 l 257 0 l 56 333 l 56 449 l 200 449 q 231 456 222 449 q 239 488 239 464 l 239 732 q 231 762 239 754 q 200 769 222 769 l 278 799 z "},"£":{"ha":585,"x_min":39,"x_max":557,"o":"m 265 717 l 265 231 q 258 166 265 194 q 228 122 251 138 l 557 122 l 557 0 l 39 0 l 39 117 q 92 150 79 119 q 104 243 104 181 l 104 739 q 140 840 104 804 q 256 876 176 876 l 400 876 q 515 840 479 876 q 551 739 551 804 l 551 611 l 392 611 l 392 717 q 383 747 392 739 q 351 754 375 754 l 304 754 q 274 747 282 754 q 265 717 265 739 m 39 361 l 39 478 l 454 478 l 454 361 l 39 361 z "},"₺":{"ha":261,"x_min":-51,"x_max":499,"o":"m 340 422 l 499 422 l 499 138 q 465 36 499 72 q 356 0 431 0 l 186 0 l 163 122 l 301 122 q 333 131 325 122 q 340 160 340 139 l 340 422 m 60 929 l 217 929 l 217 104 l 215 99 l 215 0 l 60 0 l 60 929 m 338 654 l 338 538 l -51 354 l -51 471 l 338 654 m 338 844 l 338 729 l -51 546 l -51 661 l 338 844 z "},"¥":{"ha":590,"x_min":15,"x_max":576,"o":"m 221 490 l 221 381 l 39 381 l 39 490 l 221 490 m 556 490 l 556 381 l 382 381 l 382 490 l 556 490 m 556 308 l 556 200 l 39 200 l 39 308 l 556 308 m 371 257 l 226 257 l 15 876 l 176 876 l 297 440 l 414 876 l 576 876 l 371 257 m 218 344 l 378 344 l 378 0 l 218 0 l 218 344 z "},"≈":{"ha":711,"x_min":56,"x_max":656,"o":"m 467 506 q 393 520 422 506 q 341 554 364 535 q 294 589 318 574 q 240 604 271 604 q 208 592 215 604 q 200 557 200 581 l 200 506 l 56 506 l 56 592 q 85 682 56 651 q 183 713 114 713 l 246 713 q 320 697 290 713 q 373 663 350 682 q 419 628 396 643 q 474 614 442 614 q 505 626 499 614 q 511 661 511 638 l 511 711 l 656 711 l 656 625 q 626 536 656 567 q 528 506 597 506 l 467 506 m 467 253 q 393 268 422 253 q 341 303 364 283 q 294 337 318 322 q 240 351 271 351 q 208 340 215 351 q 200 306 200 328 l 200 254 l 56 254 l 56 340 q 85 429 56 399 q 183 460 114 460 l 246 460 q 320 445 290 460 q 373 411 350 431 q 419 376 396 392 q 474 361 442 361 q 505 373 499 361 q 511 408 511 385 l 511 460 l 656 460 l 656 374 q 626 284 656 315 q 528 253 597 253 l 467 253 z "},"^":{"ha":775,"x_min":92,"x_max":657,"o":"m 271 931 l 476 931 l 657 425 l 493 425 l 374 790 l 256 425 l 92 425 l 271 931 z "},"~":{"ha":807,"x_min":99,"x_max":707,"o":"m 517 293 q 442 310 472 293 q 388 348 413 326 q 340 387 364 369 q 283 404 315 404 q 251 392 258 404 q 243 357 243 381 l 243 293 l 99 293 l 99 392 q 128 482 99 451 q 226 513 158 513 l 290 513 q 365 496 333 513 q 420 457 396 479 q 469 418 444 435 q 524 401 493 401 q 556 413 549 401 q 563 449 563 425 l 563 511 l 707 511 l 707 413 q 677 324 707 354 q 578 293 647 293 l 517 293 z "},"∙":{"ha":264,"x_min":47,"x_max":217,"o":"m 47 344 l 47 532 l 217 532 l 217 344 l 47 344 z "},"÷":{"ha":621,"x_min":35,"x_max":586,"o":"m 35 375 l 35 499 l 586 499 l 586 375 l 35 375 m 233 710 l 388 710 l 388 578 l 233 578 l 233 710 m 233 297 l 388 297 l 388 164 l 233 164 l 233 297 z "},"∕":{"ha":550,"x_min":-6,"x_max":528,"o":"m 388 972 l 528 972 l 135 -143 l -6 -143 l 388 972 z "},"=":{"ha":629,"x_min":39,"x_max":590,"o":"m 39 506 l 39 632 l 590 632 l 590 506 l 39 506 m 39 242 l 39 369 l 590 369 l 590 242 l 39 242 z "},">":{"ha":629,"x_min":39,"x_max":590,"o":"m 439 439 l 39 556 l 39 689 l 590 515 l 590 365 l 39 188 l 39 321 l 439 439 z "},"≥":{"ha":664,"x_min":54,"x_max":610,"o":"m 474 539 l 54 625 l 54 751 l 610 607 l 610 476 l 54 321 l 54 450 l 474 539 m 54 169 l 54 285 l 610 285 l 610 169 l 54 169 z "},"∞":{"ha":826,"x_min":31,"x_max":796,"o":"m 197 265 l 215 371 l 240 371 q 280 384 263 371 q 307 413 297 397 l 426 603 q 469 663 451 642 q 510 693 486 685 q 578 701 535 701 l 604 701 l 604 596 l 571 596 q 542 586 553 596 q 519 558 532 576 l 407 369 q 358 303 381 325 q 306 273 336 281 q 225 265 275 265 l 197 265 m 228 371 l 210 265 l 181 265 q 65 302 100 265 q 31 400 31 339 l 31 567 q 65 665 31 628 q 181 701 100 701 l 226 701 l 226 594 l 197 594 q 163 584 169 594 q 156 549 156 574 l 156 418 q 163 381 156 392 q 197 371 169 371 l 228 371 m 444 521 l 367 451 l 303 544 q 272 581 288 568 q 229 594 256 594 l 215 594 l 215 701 l 232 701 q 298 691 272 701 q 343 660 324 681 q 386 607 363 640 l 444 521 m 390 411 l 461 490 l 519 411 q 546 382 532 393 q 582 371 560 371 l 611 371 l 611 265 l 594 265 q 527 273 554 265 q 479 299 500 281 q 432 353 458 317 l 390 411 m 603 265 l 599 371 l 628 371 q 664 381 657 371 q 671 418 671 392 l 671 549 q 664 585 671 574 q 628 596 657 596 l 597 596 l 597 701 l 644 701 q 761 665 726 701 q 796 567 796 628 l 796 400 q 761 302 796 339 q 644 265 726 265 l 603 265 z "},"∫":{"ha":485,"x_min":61,"x_max":435,"o":"m 326 828 l 326 -43 q 291 -144 326 -108 q 175 -181 256 -181 l 61 -181 l 61 -54 l 129 -54 q 160 -47 153 -54 q 169 -17 167 -39 l 169 854 q 205 956 169 919 q 321 992 240 992 l 435 992 l 435 865 l 367 865 q 335 858 343 865 q 326 828 328 850 z "},"<":{"ha":629,"x_min":39,"x_max":590,"o":"m 590 556 l 190 439 l 590 321 l 590 188 l 39 365 l 39 515 l 590 689 l 590 556 z "},"≤":{"ha":664,"x_min":46,"x_max":601,"o":"m 601 625 l 182 539 l 601 450 l 601 321 l 46 476 l 46 607 l 601 751 l 601 625 m 601 285 l 601 169 l 46 169 l 46 285 l 601 285 z "},"¬":{"ha":682,"x_min":54,"x_max":615,"o":"m 575 563 l 575 403 l 54 403 l 54 563 l 575 563 m 615 200 l 499 200 l 499 563 l 615 563 l 615 200 z "},"−":{"ha":703,"x_min":29,"x_max":581,"o":"m 29 375 l 29 499 l 581 499 l 581 375 l 29 375 z "},"×":{"ha":567,"x_min":32,"x_max":535,"o":"m 535 275 l 440 181 l 32 589 l 126 683 l 535 275 m 440 683 l 535 589 l 126 181 l 32 275 l 440 683 z "},"≠":{"ha":694,"x_min":54,"x_max":640,"o":"m 640 253 l 54 253 l 54 376 l 640 376 l 640 253 m 640 504 l 54 504 l 54 628 l 640 628 l 640 504 m 251 139 l 142 139 l 443 738 l 553 738 l 251 139 z "},"%":{"ha":994,"x_min":39,"x_max":956,"o":"m 393 760 l 393 504 q 365 419 393 449 q 269 389 336 389 l 163 389 q 68 419 97 389 q 39 504 39 449 l 39 760 q 68 847 39 817 q 163 876 97 876 l 269 876 q 365 847 336 876 q 393 760 393 817 m 956 371 l 956 117 q 927 30 956 60 q 832 0 899 0 l 725 0 q 630 30 660 0 q 600 117 600 60 l 600 371 q 630 458 600 428 q 725 488 660 488 l 832 488 q 927 458 899 488 q 956 371 956 428 m 264 524 l 264 740 q 258 768 264 761 q 231 775 251 775 l 203 775 q 175 768 182 775 q 168 740 168 761 l 168 524 q 175 497 168 504 q 203 490 182 490 l 231 490 q 258 497 251 490 q 264 524 264 504 m 826 136 l 826 351 q 820 379 826 372 q 792 386 814 386 l 764 386 q 737 379 743 386 q 731 351 731 372 l 731 136 q 737 108 731 115 q 764 101 743 101 l 792 101 q 820 108 814 101 q 826 136 826 115 m 651 876 l 776 876 l 343 0 l 219 0 l 651 876 z "},"‰":{"ha":1414,"x_min":39,"x_max":1375,"o":"m 393 760 l 393 504 q 365 419 393 449 q 269 389 336 389 l 163 389 q 68 419 97 389 q 39 504 39 449 l 39 760 q 68 847 39 817 q 163 876 97 876 l 269 876 q 365 847 336 876 q 393 760 393 817 m 956 371 l 956 117 q 927 30 956 60 q 832 0 899 0 l 725 0 q 630 30 660 0 q 600 117 600 60 l 600 371 q 630 458 600 428 q 725 488 660 488 l 832 488 q 927 458 899 488 q 956 371 956 428 m 264 524 l 264 740 q 258 768 264 761 q 231 775 251 775 l 203 775 q 175 768 182 775 q 168 740 168 761 l 168 524 q 175 497 168 504 q 203 490 182 490 l 231 490 q 258 497 251 490 q 264 524 264 504 m 826 136 l 826 351 q 820 379 826 372 q 792 386 814 386 l 764 386 q 737 379 743 386 q 731 351 731 372 l 731 136 q 737 108 731 115 q 764 101 743 101 l 792 101 q 820 108 814 101 q 826 136 826 115 m 651 876 l 776 876 l 343 0 l 219 0 l 651 876 m 1375 371 l 1375 117 q 1347 30 1375 60 q 1251 0 1318 0 l 1144 0 q 1049 30 1079 0 q 1019 117 1019 60 l 1019 371 q 1049 458 1019 428 q 1144 488 1079 488 l 1251 488 q 1347 458 1318 488 q 1375 371 1375 428 m 1246 136 l 1246 351 q 1240 379 1246 372 q 1211 386 1233 386 l 1183 386 q 1156 379 1163 386 q 1150 351 1150 372 l 1150 136 q 1156 108 1150 115 q 1183 101 1163 101 l 1211 101 q 1240 108 1233 101 q 1246 136 1246 115 z "},"+":{"ha":608,"x_min":29,"x_max":581,"o":"m 29 375 l 29 499 l 581 499 l 581 375 l 29 375 m 228 710 l 382 710 l 382 164 l 228 164 l 228 710 z "},"±":{"ha":629,"x_min":39,"x_max":590,"o":"m 39 499 l 39 619 l 590 619 l 590 499 l 39 499 m 238 726 l 392 726 l 392 390 l 238 390 l 238 726 m 39 224 l 39 347 l 590 347 l 590 224 l 39 224 z "},"∏":{"ha":647,"x_min":8,"x_max":579,"o":"m 90 164 l 90 811 l 247 811 l 247 138 q 212 36 247 72 q 96 0 176 0 l 8 0 l 8 126 l 50 126 q 82 134 74 126 q 90 164 90 142 m 419 817 l 579 817 l 579 0 l 419 0 l 419 817 m 579 876 l 579 760 l 90 760 l 90 876 l 579 876 z "},"√":{"ha":1011,"x_min":110,"x_max":900,"o":"m 182 374 l 324 374 l 436 8 l 758 972 l 900 972 l 507 -143 l 365 -143 l 182 374 m 290 374 l 290 257 l 110 257 l 110 374 l 290 374 z "},"Ω":{"ha":613,"x_min":17,"x_max":596,"o":"m 383 338 l 383 717 q 375 747 383 739 q 343 754 367 754 l 297 754 l 297 876 l 392 876 q 507 840 471 876 q 543 739 543 804 l 543 338 l 383 338 m 383 165 l 383 385 l 543 385 l 543 215 q 507 125 543 150 q 392 100 471 100 l 339 100 l 339 122 l 350 122 q 378 133 372 122 q 383 165 383 144 m 231 717 l 231 338 l 71 338 l 71 739 q 106 840 71 804 q 222 876 142 876 l 317 876 l 317 754 l 269 754 q 239 747 247 754 q 231 717 231 739 m 231 392 l 231 165 q 237 133 231 144 q 264 122 243 122 l 274 122 l 274 100 l 222 100 q 106 125 142 100 q 71 215 71 150 l 71 392 l 231 392 m 596 122 l 596 0 l 336 0 l 336 122 l 596 122 m 278 122 l 278 0 l 17 0 l 17 122 l 278 122 z "},"µ":{"ha":563,"x_min":56,"x_max":494,"o":"m 56 682 l 213 682 l 213 160 q 221 131 213 139 q 253 122 229 122 l 294 122 q 327 133 317 122 q 338 168 338 143 l 338 211 l 343 211 l 343 104 q 316 26 343 51 q 240 0 289 0 l 199 0 q 90 36 124 0 q 56 138 56 72 l 56 682 m 338 682 l 494 682 l 494 0 l 339 0 l 339 99 l 338 104 l 338 682 m 56 613 l 213 613 l 213 -189 l 56 -189 l 56 613 z "},"◌":{"ha":917,"x_min":61,"x_max":856,"o":"m 193 718 q 210 762 193 744 q 254 779 228 779 q 299 762 282 779 q 315 718 315 744 q 299 674 315 692 q 254 656 282 656 q 210 674 228 656 q 193 718 193 692 m 79 565 q 98 609 79 592 q 143 626 117 626 q 186 609 168 626 q 204 565 204 592 q 186 522 204 539 q 143 504 168 504 q 98 522 117 504 q 79 565 79 539 m 61 390 q 78 435 61 418 q 122 453 96 453 q 167 435 150 453 q 183 390 183 418 q 167 347 183 364 q 122 331 150 331 q 78 347 96 331 q 61 390 61 364 m 133 229 q 151 273 133 256 q 194 290 168 290 q 238 273 221 290 q 256 229 256 256 q 238 185 256 203 q 194 168 221 168 q 151 185 168 168 q 133 229 133 203 m 274 125 q 292 168 274 150 q 336 186 310 186 q 380 168 363 186 q 397 125 397 150 q 380 80 397 99 q 336 61 363 61 q 292 80 310 61 q 274 125 274 99 m 450 103 q 467 147 450 131 q 511 164 485 164 q 556 147 539 164 q 574 103 574 131 q 556 59 574 76 q 511 42 539 42 q 467 59 485 42 q 450 103 450 76 m 618 176 q 635 220 618 203 q 679 238 653 238 q 724 220 706 238 q 742 176 742 203 q 724 133 742 150 q 679 115 706 115 q 635 133 653 115 q 618 176 618 150 m 719 313 q 738 358 719 340 q 782 375 756 375 q 824 358 807 375 q 842 313 842 340 q 824 269 842 286 q 782 251 807 251 q 738 269 756 251 q 719 313 719 286 m 733 499 q 751 543 733 526 q 794 560 768 560 q 838 543 821 560 q 856 499 856 526 q 838 455 856 472 q 794 438 821 438 q 751 455 768 438 q 733 499 733 472 m 664 663 q 681 708 664 690 q 725 725 699 725 q 769 708 753 725 q 786 663 786 690 q 769 619 786 636 q 725 601 753 601 q 681 619 699 601 q 664 663 664 636 m 532 757 q 550 802 532 785 q 594 819 568 819 q 638 802 621 819 q 654 757 654 785 q 638 714 654 732 q 594 696 621 696 q 550 714 568 696 q 532 757 532 732 m 357 778 q 374 822 357 806 q 418 839 392 839 q 463 822 446 839 q 479 778 479 806 q 463 734 479 751 q 418 717 446 717 q 374 734 392 717 q 357 778 357 751 z "},"◊":{"ha":774,"x_min":78,"x_max":696,"o":"m 696 439 l 538 439 l 385 746 l 236 439 l 78 439 l 310 876 l 460 876 l 696 439 m 538 439 l 696 439 l 460 0 l 310 0 l 78 439 l 236 439 l 385 131 l 538 439 z "},"ै":{"ha":0,"x_min":-558,"x_max":-74,"o":"m -558 1147 l -365 1147 l -306 1078 q -222 974 -254 1017 q -160 885 -189 931 l -154 885 q -195 970 -178 928 q -237 1068 -212 1013 l -269 1147 l -118 1147 l -74 867 l -226 867 q -264 892 -243 878 q -312 928 -285 906 q -378 985 -339 950 l -558 1147 z "},"ं":{"ha":0,"x_min":-211,"x_max":-81,"o":"m -211 1156 l -81 1156 l -81 1010 l -211 1010 l -211 1156 z "},"ँ":{"ha":0,"x_min":-397,"x_max":110,"o":"m -397 1157 l -261 1157 l -261 1082 q -253 1050 -261 1058 q -221 1042 -244 1042 l -67 1042 q -35 1050 -43 1042 q -26 1082 -26 1058 l -26 1157 l 110 1157 l 110 1065 q 74 974 110 1004 q -44 943 39 943 l -243 943 q -361 974 -325 943 q -397 1065 -397 1004 l -397 1157 m -208 1231 l -81 1231 l -81 1099 l -208 1099 l -208 1231 z "},"े":{"ha":0,"x_min":-460,"x_max":-72,"o":"m -271 1147 l -72 864 l -226 864 q -297 934 -261 893 q -372 1026 -332 975 l -460 1147 l -271 1147 z "},"्":{"ha":0,"x_min":-243,"x_max":75,"o":"m -83 -85 l 75 -278 l -86 -278 l -243 -85 l -83 -85 z "},"ॢ":{"ha":0,"x_min":-476,"x_max":-37,"o":"m -314 14 q -274 -18 -279 14 l -271 -18 q -260 6 -269 -3 q -233 14 -251 14 l -150 14 l -150 -56 l -204 -56 q -221 -60 -217 -56 q -225 -75 -225 -64 l -225 -197 l -322 -197 l -322 -75 q -326 -60 -322 -64 q -343 -56 -329 -56 l -358 -56 q -374 -59 -369 -56 q -379 -75 -379 -62 l -379 -257 q -374 -273 -379 -269 q -358 -276 -369 -276 l -335 -276 l -335 -346 l -393 -346 q -458 -329 -440 -346 q -476 -276 -476 -312 l -476 -64 q -456 -4 -476 -22 q -397 14 -436 14 l -314 14 m -165 14 l -67 14 l -67 -319 l -133 -319 q -149 -324 -144 -319 q -154 -339 -154 -328 l -154 -358 q -149 -372 -154 -368 q -133 -376 -144 -376 l -37 -376 l -37 -446 l -169 -446 q -233 -428 -214 -446 q -251 -375 -251 -411 l -251 -325 q -233 -272 -251 -289 q -169 -254 -215 -254 l -165 -254 l -165 14 z "},"ॣ":{"ha":0,"x_min":-481,"x_max":-25,"o":"m -25 -431 l -25 -499 l -136 -499 q -203 -480 -181 -499 q -225 -421 -225 -461 l -225 -381 q -216 -353 -225 -361 q -193 -343 -207 -344 l -193 -339 q -216 -328 -207 -337 q -225 -301 -225 -319 l -225 -246 q -211 -200 -225 -217 q -167 -183 -197 -183 l -165 -183 l -165 -54 l -207 -54 q -224 -59 -219 -54 q -228 -75 -228 -64 l -228 -181 l -325 -181 l -325 -75 q -328 -59 -325 -64 q -346 -54 -332 -54 l -364 -54 q -379 -58 -375 -54 q -383 -75 -383 -62 l -383 -256 q -379 -271 -383 -267 q -364 -275 -375 -275 l -340 -275 l -340 -344 l -399 -344 q -462 -327 -444 -344 q -481 -274 -481 -310 l -481 -64 q -461 -4 -481 -22 q -401 14 -442 14 l -315 14 q -276 -18 -281 14 l -275 -18 q -263 6 -272 -3 q -236 14 -254 14 l -67 14 l -67 -250 l -107 -250 q -123 -254 -118 -250 q -128 -271 -128 -258 l -128 -286 q -123 -301 -128 -297 q -107 -306 -118 -306 l -71 -306 l -71 -374 l -107 -374 q -123 -378 -118 -374 q -128 -394 -128 -382 l -128 -410 q -123 -426 -128 -422 q -107 -431 -118 -431 l -25 -431 z "},"़":{"ha":0,"x_min":-210,"x_max":-78,"o":"m -210 -72 l -78 -72 l -78 -218 l -210 -218 l -210 -72 z "},"ृ":{"ha":0,"x_min":-347,"x_max":-17,"o":"m -67 6 l -67 -110 l -146 -110 q -181 -117 -172 -110 q -189 -153 -189 -125 l -189 -186 q -181 -221 -189 -212 q -146 -229 -172 -229 l -17 -229 l -17 -346 l -206 -346 q -311 -313 -275 -346 q -347 -206 -347 -281 l -347 -135 q -311 -27 -347 -60 q -206 6 -275 6 l -67 6 z "},"ॄ":{"ha":0,"x_min":-336,"x_max":-4,"o":"m -336 -115 q -300 -23 -336 -51 q -200 6 -264 6 l -67 6 l -67 -110 l -140 -110 q -169 -117 -161 -110 q -178 -149 -178 -125 l -178 -192 q -169 -223 -178 -215 q -140 -231 -161 -231 l -75 -231 l -75 -346 l -140 -346 q -169 -353 -161 -346 q -178 -383 -178 -360 l -178 -426 q -169 -458 -178 -450 q -140 -465 -161 -465 l -4 -465 l -4 -581 l -176 -581 q -297 -548 -257 -581 q -336 -442 -336 -515 l -336 -361 q -321 -310 -336 -326 q -278 -292 -306 -294 l -278 -286 q -321 -267 -306 -283 q -336 -215 -336 -250 l -336 -115 z "},"ु":{"ha":0,"x_min":-519,"x_max":57,"o":"m -85 6 q 22 -27 -14 6 q 57 -133 57 -60 l 57 -206 q 22 -312 57 -281 q -85 -344 -14 -344 l -247 -344 q -348 -333 -308 -344 q -416 -296 -387 -322 q -472 -222 -444 -269 l -519 -140 l -333 -140 l -301 -193 q -272 -222 -289 -214 q -231 -231 -256 -231 l -143 -231 q -108 -222 -115 -231 q -100 -187 -100 -214 l -100 -154 q -108 -119 -100 -126 q -143 -111 -115 -111 l -225 -111 l -225 6 l -85 6 z "},"ॆ":{"ha":0,"x_min":-514,"x_max":-67,"o":"m -514 1078 l -514 1078 l -514 1153 l -356 1153 l -356 1121 q -347 1083 -356 1092 q -310 1075 -339 1075 l -185 1075 q -67 957 -67 1075 l -67 825 l -225 825 l -225 914 q -234 951 -225 943 q -271 960 -243 960 l -396 960 q -514 1078 -514 960 z "},"ू":{"ha":0,"x_min":-357,"x_max":274,"o":"m -85 6 q 13 -6 -25 6 q 78 -44 50 -18 q 132 -115 106 -71 l 274 -343 l 88 -343 l -33 -151 q -60 -119 -46 -129 q -100 -110 -75 -110 l -157 -110 q -192 -117 -183 -110 q -200 -153 -200 -125 l -200 -186 q -192 -221 -200 -212 q -157 -229 -183 -229 l -85 -229 l -85 -346 l -215 -346 q -322 -313 -286 -346 q -357 -206 -357 -281 l -357 -135 q -322 -27 -357 -60 q -215 6 -286 6 l -85 6 z "},"ः":{"ha":279,"x_min":74,"x_max":206,"o":"m 74 231 l 206 231 l 206 85 l 74 85 l 74 231 m 74 685 l 206 685 l 206 539 l 74 539 l 74 685 z "},"´":{"ha":617,"x_min":163,"x_max":450,"o":"m 163 726 l 282 917 l 450 917 l 293 726 l 163 726 z "},"˘":{"ha":617,"x_min":88,"x_max":529,"o":"m 388 917 l 529 917 l 529 864 q 494 763 529 799 q 379 726 458 726 l 299 726 l 299 828 l 347 828 q 379 836 371 828 q 388 865 388 844 l 388 917 m 88 917 l 229 917 l 229 865 q 238 836 229 844 q 269 828 246 828 l 318 828 l 318 726 l 238 726 q 123 763 158 726 q 88 864 88 799 l 88 917 z "},"ˇ":{"ha":617,"x_min":79,"x_max":536,"o":"m 226 726 l 79 917 l 235 917 l 307 810 l 381 917 l 536 917 l 389 726 l 226 726 z "},"¸":{"ha":617,"x_min":179,"x_max":432,"o":"m 283 -132 l 283 -68 l 432 -68 l 432 -144 q 392 -251 432 -214 q 272 -289 353 -289 l 179 -289 l 179 -174 l 240 -174 q 274 -163 264 -174 q 283 -132 283 -153 z "},"ˆ":{"ha":617,"x_min":79,"x_max":536,"o":"m 79 726 l 226 917 l 389 917 l 536 726 l 381 726 l 307 833 l 235 726 l 79 726 z "},"¨":{"ha":617,"x_min":86,"x_max":531,"o":"m 86 751 l 86 897 l 247 897 l 247 751 l 86 751 m 369 751 l 369 897 l 531 897 l 531 751 l 369 751 z "},"˙":{"ha":617,"x_min":224,"x_max":393,"o":"m 224 749 l 224 894 l 393 894 l 393 749 l 224 749 z "},"`":{"ha":617,"x_min":153,"x_max":440,"o":"m 321 917 l 440 726 l 310 726 l 153 917 l 321 917 z "},"˝":{"ha":617,"x_min":78,"x_max":539,"o":"m 272 726 l 392 917 l 539 917 l 382 726 l 272 726 m 78 726 l 197 917 l 344 917 l 188 726 l 78 726 z "},"¯":{"ha":617,"x_min":97,"x_max":518,"o":"m 97 767 l 97 876 l 518 876 l 518 767 l 97 767 z "},"˛":{"ha":617,"x_min":176,"x_max":450,"o":"m 176 -154 q 206 -62 176 -94 q 308 -29 236 -29 l 425 -29 l 425 -131 l 333 -131 q 304 -137 313 -131 q 296 -165 296 -143 l 296 -197 q 304 -224 296 -217 q 333 -231 313 -231 l 450 -231 l 450 -332 l 308 -332 q 206 -299 236 -332 q 176 -207 176 -267 l 176 -154 m 425 -35 l 318 -35 l 318 17 l 425 17 l 425 -35 z "},"˚":{"ha":617,"x_min":146,"x_max":471,"o":"m 471 833 l 471 810 q 445 733 471 760 q 358 706 419 706 l 258 706 q 172 733 197 706 q 146 810 146 760 l 146 833 q 172 912 146 885 q 258 939 197 939 l 358 939 q 445 912 419 939 q 471 833 471 885 m 367 815 l 367 828 q 360 854 367 847 q 332 861 354 861 l 285 861 q 256 854 263 861 q 250 828 250 847 l 250 815 q 256 790 250 797 q 285 783 263 783 l 332 783 q 360 790 354 783 q 367 815 367 797 z "},"˜":{"ha":617,"x_min":90,"x_max":525,"o":"m 394 740 q 333 756 360 740 q 284 785 306 771 q 246 800 263 800 q 221 768 221 800 l 221 740 l 90 740 l 90 785 q 116 871 90 839 q 207 903 142 903 l 224 903 q 284 888 257 903 q 332 858 311 874 q 369 843 353 843 q 389 850 383 843 q 394 875 394 857 l 394 903 l 525 903 l 525 854 q 501 771 525 801 q 408 740 476 740 l 394 740 z "},"ʼ":{"ha":265,"x_min":47,"x_max":218,"o":"m 47 876 l 218 876 l 218 776 l 97 492 l 47 492 l 47 876 z "},"ˉ":{"ha":617,"x_min":97,"x_max":518,"o":"m 97 767 l 97 876 l 518 876 l 518 767 l 97 767 z "}}}
